<svg xmlns="http://www.w3.org/2000/svg" width="74.627" height="75.33" viewBox="0 0 74.627 75.33">
  <g id="Logistics" transform="translate(-607.3 -183.994)">
    <path id="Path_747" data-name="Path 747" d="M681.916,221.758c0,6.814-.011,13.639.011,20.453a1.887,1.887,0,0,1-1.28,1.947q-17.411,7.4-34.811,14.8a2.5,2.5,0,0,1-.677.286,3.194,3.194,0,0,1-1.418-.011q-17.442-7.444-34.853-14.961c-.159-.074-.317-.138-.487-.212a1.66,1.66,0,0,1-1.1-1.693q.016-9.9,0-19.818v-21.3a1.624,1.624,0,0,1,1.2-1.809q9.38-4.158,18.749-8.348,7.682-3.428,15.363-6.856a2.291,2.291,0,0,1,1.968-.042q17.633,7.459,35.277,14.908c.116.053.222.106.339.148,1.629.688,1.7.783,1.7,2.529Q681.927,211.764,681.916,221.758Zm-3.143-18.368c-.233.085-.4.138-.561.2-2.91,1.2-5.819,2.412-8.729,3.587a.77.77,0,0,0-.571.846c.021,3.608,0,7.227.021,10.835a.694.694,0,0,1-.518.762q-4.745,1.984-9.48,4c-.624.265-1.259.529-1.936.815v-.8c0-3.968-.011-7.925.011-11.893a.858.858,0,0,0-.624-.921Q639.736,203.8,623.1,196.766a1.008,1.008,0,0,0-.889.011q-4.428,1.984-8.867,3.957c-.138.063-.254.138-.444.243a3.954,3.954,0,0,0,.413.19l30.631,12.887a1.155,1.155,0,0,0,1.005,0q2.571-1.111,5.142-2.19a1.563,1.563,0,1,1,1.227,2.867c-1.6.688-3.2,1.376-4.814,2.032a.7.7,0,0,0-.518.772q.016,18.633.011,37.255c0,.19.021.37.032.624.222-.085.391-.138.54-.2q15.824-6.729,31.647-13.448a.769.769,0,0,0,.561-.846q-.016-18.474-.011-36.938C678.773,203.823,678.773,203.654,678.773,203.389Zm-35.922,52.047c.011-.243.032-.413.032-.582q0-18.649.011-37.308a.707.707,0,0,0-.529-.772Q626.7,210.2,611.056,203.622c-.18-.074-.37-.138-.614-.222v.508q0,18.569-.011,37.149a.674.674,0,0,0,.518.709L641.2,254.749C641.741,254.971,642.27,255.193,642.852,255.437Zm33.393-54.428c-.212-.106-.339-.18-.466-.233q-15.855-6.7-31.732-13.385a1.109,1.109,0,0,0-.783.011c-2.55,1.111-5.079,2.254-7.618,3.386-.148.063-.3.148-.508.265.233.106.381.169.518.233q15.649,6.6,31.3,13.2a1.229,1.229,0,0,0,.825-.011c1.894-.751,3.777-1.545,5.661-2.317C674.351,201.792,675.261,201.421,676.245,201.009ZM660.13,219.673c.19-.063.328-.1.455-.148,1.587-.667,3.174-1.354,4.761-2a.644.644,0,0,0,.455-.7c-.011-2.973-.011-5.957,0-8.93a.606.606,0,0,0-.434-.667q-16.919-7.126-33.827-14.263a1.081,1.081,0,0,0-.73,0c-1.259.529-2.508,1.1-3.767,1.661a4.113,4.113,0,0,0-.392.243c.286.127.487.212.7.3q16.141,6.809,32.272,13.618a.729.729,0,0,1,.518.815c-.011,3.132-.011,6.274-.011,9.406Z" transform="translate(0 0)" fill="#a5bbd4"/>
    <path id="Path_748" data-name="Path 748" d="M811.4,650.715c0,1.389.009,2.778-.009,4.167a1.234,1.234,0,0,1-.985,1.187,1.267,1.267,0,0,1-1.433-.677,1.612,1.612,0,0,1-.141-.677c-.009-2.681-.009-5.354,0-8.035a1.294,1.294,0,0,1,1.283-1.38,1.311,1.311,0,0,1,1.292,1.415c0,1.336,0,2.664-.009,4Z" transform="translate(-180.045 -410.774)" fill="#a5bbd4"/>
    <path id="Path_749" data-name="Path 749" d="M872.335,675.824c0,1.389.018,2.778-.009,4.167a1.2,1.2,0,0,1-1.037,1.178,1.227,1.227,0,0,1-1.415-.765,2.258,2.258,0,0,1-.105-.774c-.009-2.154-.009-4.3-.009-6.452,0-.466-.009-.941,0-1.406a1.291,1.291,0,1,1,2.576.009c.009,1.345,0,2.69,0,4.044Z" transform="translate(-234.481 -430.902)" fill="#a5bbd4"/>
  </g>
</svg>
