<svg xmlns="http://www.w3.org/2000/svg" width="83.972" height="75.331" viewBox="0 0 83.972 75.331">
  <g id="Insurance" transform="translate(-484.77 -102.167)">
    <path id="Path_742" data-name="Path 742" d="M498.491,118.406l-2.581-2.554c.921-.912,1.806-1.806,2.727-2.709.821.839,1.669,1.7,2.554,2.59.31-.274.584-.511.857-.748a51.256,51.256,0,0,1,23.734-11.867,43.808,43.808,0,0,1,10.635-.921,35.834,35.834,0,0,1,19.684,6.175,29.689,29.689,0,0,1,2.481,1.934,3.639,3.639,0,0,1,.228,5.509,3.975,3.975,0,0,1-3.366,1.478,2.6,2.6,0,0,1-.839-.173,4.577,4.577,0,0,0-3.922.082,12.471,12.471,0,0,0-7.37,7.99,21.665,21.665,0,0,0-.338,2.326,3.565,3.565,0,0,1-3.493,3.01,9.526,9.526,0,0,0-5.254,2.071,15.38,15.38,0,0,0-5.5,6.531,8.071,8.071,0,0,0-.629,2.819,3.515,3.515,0,0,1-3.284,3.512,10.6,10.6,0,0,0-6.494,2.946,19.406,19.406,0,0,0-3.238,3.566,10.351,10.351,0,0,0-1.979,5.245,3.636,3.636,0,0,1-3.466,3.43,9.824,9.824,0,0,0-6.011,2.508,11.764,11.764,0,0,0-4.15,6.166,4.344,4.344,0,0,0,.119,2.59,4.187,4.187,0,0,1-3.512,5.582,3.98,3.98,0,0,1-3.357-1.514,33.069,33.069,0,0,1-6.485-12.505,40.664,40.664,0,0,1-1.35-14.065,49.988,49.988,0,0,1,9.331-25.658c1.25-1.751,2.691-3.357,4.05-5.035A1.4,1.4,0,0,1,498.491,118.406Zm38.492,8.465c-.082-.073-.2-.192-.319-.292a33.665,33.665,0,0,0-5.327-3.8,37.651,37.651,0,0,0-16.081-4.926,30.14,30.14,0,0,0-6.722.182,17,17,0,0,0-4.679,1.25,4,4,0,0,0-2.28,2.454,23.937,23.937,0,0,0-1.222,7.553,36.414,36.414,0,0,0,.784,8.136,35.99,35.99,0,0,0,8.118,16.555c.109.128.237.255.383.41.182-.511.328-.949.5-1.386a19.369,19.369,0,0,1,4.8-6.732c2.545-2.435,5.391-4.278,9.021-4.579.265-.018.319-.164.328-.383a10.229,10.229,0,0,1,.812-3.484,19.189,19.189,0,0,1,8.182-9.185A34.607,34.607,0,0,1,536.983,126.871Zm-40.417.182c-.137.2-.237.31-.31.438-.784,1.332-1.614,2.645-2.335,4a45.435,45.435,0,0,0-5.254,18.453,37.663,37.663,0,0,0,.529,9.386,30.867,30.867,0,0,0,5,12.286c.474.675.994,1.323,1.5,1.979.064-.009.119-.027.182-.036a1.5,1.5,0,0,0,.027-.529,7.7,7.7,0,0,1,.018-5.309,16.316,16.316,0,0,1,10.645-10.49c.091-.036.182-.073.3-.119C499.349,148.506,496.083,138.473,496.567,127.053ZM509.583,114c11.383-.556,21.381,2.627,30,10a1.644,1.644,0,0,0,.109-.219,16.433,16.433,0,0,1,8.182-9.523c2.408-1.286,4.953-1.906,7.662-.894.119.046.3-.082.52-.155-.182-.164-.255-.237-.338-.3a28.063,28.063,0,0,0-9.222-5.1,37.658,37.658,0,0,0-18.2-1.25,46.9,46.9,0,0,0-17.823,6.85C510.212,113.572,509.957,113.754,509.583,114Z" transform="translate(0 0)" fill="#a5bbd4"/>
    <path id="Path_743" data-name="Path 743" d="M978.992,585.385c.939-.949,1.815-1.833,2.7-2.718.018.009.055,0,.073.018,1.423,1.432,2.91,2.809,4.26,4.305a6.805,6.805,0,0,1,.246,9.112,24.465,24.465,0,0,1-3.466,3.475,6.889,6.889,0,0,1-9.331-.374l-21.7-20.14c-1.806-1.669-3.6-3.348-5.409-5.017-.109-.1-.219-.21-.365-.347.857-.93,1.715-1.852,2.6-2.8.666.62,1.323,1.222,1.97,1.824q12.683,11.78,25.367,23.551a3.9,3.9,0,0,0,1.879,1.049,3.02,3.02,0,0,0,2.727-.821,33.5,33.5,0,0,0,2.609-2.609,3.158,3.158,0,0,0-.173-4.579c-1.177-1.231-2.4-2.417-3.594-3.612C979.256,585.586,979.12,585.494,978.992,585.385Z" transform="translate(-419.16 -425.978)" fill="#a5bbd4"/>
  </g>
</svg>
