<svg xmlns="http://www.w3.org/2000/svg" width="57.986" height="75.331" viewBox="0 0 57.986 75.331">
  <g id="Security" transform="translate(-574.6 -54)">
    <path id="Path_744" data-name="Path 744" d="M632.586,66.246a1.683,1.683,0,0,0-1.79-1.835c-.248-.008-.5-.023-.752-.03-1.173-.045-2.384-.09-3.565-.218a39.08,39.08,0,0,1-21.716-9.673A1.68,1.68,0,0,0,603.612,54a1.887,1.887,0,0,0-1.181.466c-.331.271-.662.542-.978.812a37.025,37.025,0,0,1-3.046,2.362A39.287,39.287,0,0,1,576.443,64.4a1.664,1.664,0,0,0-1.835,1.835V75.67c0,8.409-.008,17.112-.008,25.664a14.043,14.043,0,0,0,.737,4.363,19.79,19.79,0,0,0,3.994,6.8,45.785,45.785,0,0,0,7.785,6.988,134.231,134.231,0,0,0,15.683,9.643,1.668,1.668,0,0,0,.79.2,1.745,1.745,0,0,0,.782-.2c.354-.181.7-.376,1.038-.564.083-.045.173-.1.256-.143a113.531,113.531,0,0,0,15.608-10,38.888,38.888,0,0,0,7.793-7.823,18.9,18.9,0,0,0,2.58-4.949,16.779,16.779,0,0,0,.865-5.551c-.038-3.738-.03-7.552-.023-11.23,0-1.4.008-2.851.008-4.28h.083V79.657Q632.589,72.966,632.586,66.246Zm-3.3,10.343c-.022,7.913-.037,16.1-.052,24.145a13.081,13.081,0,0,1-2.339,7.281,31.327,31.327,0,0,1-6.574,7.01,94.1,94.1,0,0,1-13.02,8.763c-.684.391-1.384.782-2.068,1.166-.527.293-1.061.594-1.595.9a.165.165,0,0,0-.038.023.128.128,0,0,1-.038-.015,135.574,135.574,0,0,1-12.7-7.68,49.517,49.517,0,0,1-8.688-7.356,17.035,17.035,0,0,1-3.761-6.175,12.627,12.627,0,0,1-.579-3.979c.015-10.057.023-20.286.038-30.178l.008-2.806a44.529,44.529,0,0,0,13.645-2.768A43.461,43.461,0,0,0,603.6,57.889a43.461,43.461,0,0,0,12.073,7.025,44.215,44.215,0,0,0,13.637,2.768C629.3,70.638,629.291,73.617,629.284,76.588Z" fill="#a5bbd4"/>
    <path id="Path_745" data-name="Path 745" d="M782.791,274.457v-1.685c0-1.482.008-3.009-.015-4.521a7.613,7.613,0,0,0-.271-1.978,8.613,8.613,0,0,0-12.388-5.235,8.732,8.732,0,0,0-3.332,3.039,8.364,8.364,0,0,0-1.173,4.393c-.008,1.083-.008,2.174,0,3.234v2.76h-.083a6.166,6.166,0,0,0-6.228,6.288v15.961a6.226,6.226,0,0,0,1.775,4.415,6.156,6.156,0,0,0,4.393,1.805c2.858.008,5.739.015,8.56.015,2.979,0,5.972-.008,8.906-.015a6.176,6.176,0,0,0,4.348-1.76,6.063,6.063,0,0,0,1.8-4.318c.038-5,.038-10.327,0-16.27a6.118,6.118,0,0,0-1.565-4.084,6.24,6.24,0,0,0-3.9-1.978C783.347,274.487,783.077,274.472,782.791,274.457ZM772.11,263.693a5.539,5.539,0,0,1,2.106-.421,5.374,5.374,0,0,1,5.273,4.423,2.083,2.083,0,0,1,.03.278v6.469H768.9c0-.579.008-1.166.008-1.738.015-1.392.022-2.828-.023-4.25A5.2,5.2,0,0,1,772.11,263.693Zm13.72,17.15v15.811a2.9,2.9,0,0,1-3.016,3.031c-3.174,0-6.379.008-9.515.008h-7.725a2.857,2.857,0,0,1-2.986-2.979c-.008-5.423-.008-10.809,0-16a2.832,2.832,0,0,1,2.949-2.964c1.03,0,2.136-.008,3.483-.008h13.712A2.9,2.9,0,0,1,785.83,280.843Z" transform="translate(-170.807 -190.505)" fill="#a5bbd4"/>
    <path id="Path_746" data-name="Path 746" d="M914.918,559.768a3.571,3.571,0,0,0-.73,6.725h0c.173.083.211.135.2.323-.015.466-.015.94-.008,1.4V569.4c0,.474,0,.963.008,1.452a1.3,1.3,0,0,0,.9,1.234,1.352,1.352,0,0,0,.451.075,1.268,1.268,0,0,0,.73-.226,1.487,1.487,0,0,0,.587-1.219c.015-1.392.015-2.565-.007-3.761a.434.434,0,0,1,.3-.5,3.55,3.55,0,0,0,1.738-4.423A3.6,3.6,0,0,0,914.918,559.768Zm1.941,3.483a1.147,1.147,0,1,1-1.166-1.151A1.184,1.184,0,0,1,916.859,563.25Z" transform="translate(-312.134 -467.639)" fill="#a5bbd4"/>
  </g>
</svg>
