<svg xmlns="http://www.w3.org/2000/svg" width="75.358" height="75.331" viewBox="0 0 75.358 75.331">
  <g id="Group_1353" data-name="Group 1353" transform="translate(-1201 -635.4)">
    <path id="Path_782" data-name="Path 782" d="M1238.69,635.4c2.482,2.064,4.938,4.1,7.371,6.142q14.926,12.457,29.877,24.889a.932.932,0,0,1,.418.86v43.415h-6.265v-39.95a1.064,1.064,0,0,0-.393-.934q-15.368-12.789-30.737-25.6c-.074-.074-.172-.123-.295-.221l-3.1,2.58q-13.968,11.646-27.936,23.268a1.006,1.006,0,0,0-.369.884v39.975H1201V667.488a1.409,1.409,0,0,1,.565-1.179q18.464-15.368,36.9-30.737C1238.518,635.523,1238.567,635.5,1238.69,635.4Z" fill="#a5bbd4"/>
    <path id="Path_783" data-name="Path 783" d="M1312.137,816.861H1271.4V776.1h40.737Zm-34.447-6.29h28.182V782.39h-10.712v8.7h-6.806v-8.7H1277.69Z" transform="translate(-53.103 -106.13)" fill="#a5bbd4"/>
  </g>
</svg>
