<svg xmlns="http://www.w3.org/2000/svg" width="91.875" height="75.331" viewBox="0 0 91.875 75.331">
  <g id="Group_1321" data-name="Group 1321" transform="translate(1554 204)">
    <g id="International" transform="translate(-1554 -204)">
      <path id="Path_724" data-name="Path 724" d="M476.381,157.014c.265,1.006.531,2.022.787,3.038a10.432,10.432,0,0,1,.256,1.153,1.324,1.324,0,0,1-1.107,1.574,1.356,1.356,0,0,1-1.528-1.071c-.32-1.235-.641-2.47-.952-3.706-.073-.311-.183-.393-.531-.32a70.818,70.818,0,0,1-12.187,1.372c-.119,0-.238.018-.43.027v4.1a1.356,1.356,0,1,1-2.7,0c-.009-1.189,0-2.379,0-3.568v-.549a70.853,70.853,0,0,1-13.02-1.464,62.976,62.976,0,0,0-2.58,17.064c.229.009.421.037.613.037h6.716a1.34,1.34,0,1,1,.064,2.672c-2.242.009-4.474,0-6.716,0h-.613c0,.686-.018,1.336.009,1.985.027.686.092,1.363.128,2.049a1.341,1.341,0,0,1-1.29,1.555,1.363,1.363,0,0,1-1.418-1.455c-.073-1.354-.146-2.708-.22-4.1H424.4c.037.622.037,1.226.119,1.821.192,1.418.412,2.827.65,4.236a1.4,1.4,0,0,1-.988,1.738,1.371,1.371,0,0,1-1.647-1.189,38.158,38.158,0,0,1-.842-8.344v-.586a.839.839,0,0,0-.229.073,26.5,26.5,0,0,0-5.737,5.2,9.733,9.733,0,0,0-1.281,2.242,2.212,2.212,0,0,0,.942,2.937,9.873,9.873,0,0,0,4.008,1.436,40.463,40.463,0,0,0,9.7.311,124.549,124.549,0,0,0,24.018-4.383,2.368,2.368,0,0,1,.942-.091,1.332,1.332,0,0,1,.082,2.589q-2.621.714-5.252,1.363a129.315,129.315,0,0,1-13.075,2.534,68.66,68.66,0,0,1-13.066.741,21.425,21.425,0,0,1-7.137-1.363,9.759,9.759,0,0,1-1.382-.7,5.058,5.058,0,0,1-2.159-6.771,14.378,14.378,0,0,1,3.431-4.63,38.769,38.769,0,0,1,5.911-4.666,1.3,1.3,0,0,0,.64-1.006,35.264,35.264,0,0,1,3.568-11.629,37.323,37.323,0,0,1,23.02-19.37,33.641,33.641,0,0,1,8.884-1.491,37.223,37.223,0,0,1,29.306,11.876,35.524,35.524,0,0,1,4.95,6.6,1.355,1.355,0,0,1-.366,1.958,1.393,1.393,0,0,1-1.949-.576c-1.052-1.528-2.132-3.038-3.193-4.557-.2-.293-.384-.32-.7-.146a45.138,45.138,0,0,1-8.518,3.212c-.174.046-.348.1-.522.156C476.473,156.941,476.445,156.978,476.381,157.014Zm-52.006,17.631h15.307a66.89,66.89,0,0,1,2.635-17.659c-.156-.055-.256-.092-.357-.119a45.261,45.261,0,0,1-8.948-3.358.37.37,0,0,0-.558.146c-1.043,1.473-2.178,2.9-3.12,4.438a33.811,33.811,0,0,0-4.73,13.834C424.5,172.816,424.448,173.712,424.375,174.646Zm48.4-19.653a2.5,2.5,0,0,0-.046-.256,30.29,30.29,0,0,0-5.288-9.323,12.461,12.461,0,0,0-5.764-4.017c-.311-.091-.631-.146-.952-.22V156.3A59.989,59.989,0,0,0,472.776,154.992Zm-14.813-13.825c-.348.082-.64.137-.933.229a12.367,12.367,0,0,0-5.746,3.962,30.352,30.352,0,0,0-5.38,9.479.719.719,0,0,0,0,.2,66.824,66.824,0,0,0,12.059,1.318Zm10.229,1.016c.851,1.016,1.7,1.931,2.452,2.919a34.417,34.417,0,0,1,4.685,8.884c.1.274.2.421.549.329a47.009,47.009,0,0,0,7.713-2.781c.146-.064.284-.146.467-.247A35.1,35.1,0,0,0,468.192,142.183ZM443.177,154.4c1.7-4.52,3.834-8.72,7.274-12.16A34.489,34.489,0,0,0,434.6,151.3,44.528,44.528,0,0,0,443.177,154.4Z" transform="translate(-411.542 -138.384)" fill="#a5bbd4"/>
      <path id="Path_725" data-name="Path 725" d="M585.893,559.18a46.559,46.559,0,0,1,9.6-3.587c-.229-.851-.448-1.665-.659-2.48a3.959,3.959,0,0,1-.146-.714,1.306,1.306,0,0,1,1.034-1.455,1.336,1.336,0,0,1,1.592.97c.229.823.439,1.647.659,2.47.055.183.119.366.165.5,2.2-.32,4.337-.7,6.5-.933s4.31-.339,6.515-.5c.009-.11.018-.274.018-.439,0-1.372-.009-2.745,0-4.117a1.344,1.344,0,0,1,1.583-1.436,1.3,1.3,0,0,1,1.107,1.354c.009,1.391,0,2.772,0,4.163v.531a71.235,71.235,0,0,1,13.047,1.455c.293-1.125.586-2.214.869-3.294.064-.247.119-.5.183-.75a1.34,1.34,0,0,1,1.647-1.061,1.305,1.305,0,0,1,.97,1.62c-.256,1.153-.576,2.3-.869,3.449-.055.2-.11.412-.174.659a47.05,47.05,0,0,1,9.6,3.6c.119-.137.247-.265.357-.4a34.243,34.243,0,0,0,7.484-16.469c.265-1.665.329-3.358.485-5.041.027-.275.009-.549.037-.823a1.333,1.333,0,0,1,2.663.1,37.391,37.391,0,0,1-9.68,25.207,37.14,37.14,0,0,1-20.861,11.766,36.152,36.152,0,0,1-7.219.7,37.77,37.77,0,0,1-31.987-17.97,1.356,1.356,0,0,1,.814-2.15,1.42,1.42,0,0,1,1.464.7c.952,1.345,1.912,2.672,2.873,4.008C585.655,558.932,585.765,559.042,585.893,559.18Zm27.989,12.151a1.34,1.34,0,0,0,.275,0c.284-.064.567-.128.842-.22a12.529,12.529,0,0,0,5.6-3.953,30.482,30.482,0,0,0,5.334-9.4.848.848,0,0,0,.027-.238,66.019,66.019,0,0,0-12.077-1.308C613.882,561.284,613.882,566.289,613.882,571.33Zm-2.754-15.115a66.135,66.135,0,0,0-12.087,1.318,1.019,1.019,0,0,0,.064.238,32.676,32.676,0,0,0,4.136,7.9,15.742,15.742,0,0,0,5.124,4.73,8.01,8.01,0,0,0,2.763.961Zm10.193,14.09c3.98-.375,13.971-6.121,15.856-9.095a43.968,43.968,0,0,0-8.5-3.065A32.253,32.253,0,0,1,621.32,570.305Zm-17.7,0a33.058,33.058,0,0,1-7.265-12.151,43.793,43.793,0,0,0-8.564,3.1A34.539,34.539,0,0,0,603.616,570.305Z" transform="translate(-564.716 -498.882)" fill="#a5bbd4"/>
      <path id="Path_726" data-name="Path 726" d="M882.3,421.622c-1.748.567-3.367,1.1-4.977,1.629-2.068.677-4.127,1.363-6.2,2.022a2.524,2.524,0,0,1-2.846-3.962,4.248,4.248,0,0,1,.284-.329q-1.153-1.825-2.3-3.632c-.448-.7-.906-1.409-1.345-2.123a2.181,2.181,0,0,1,1.153-3.431,4.24,4.24,0,0,1,4.163.393c1.72,1.116,3.486,2.168,5.224,3.266a.738.738,0,0,0,.8.046c1.446-.677,2.9-1.327,4.355-1.986.146-.064.284-.146.522-.274-.769-.3-1.437-.558-2.1-.823q-2.827-1.1-5.655-2.187a1.37,1.37,0,0,1-.97-1.052,1.3,1.3,0,0,1,.869-1.528c1.052-.384,2.114-.778,3.184-1.1a3.393,3.393,0,0,1,1.18-.037c4.511.357,9.012.732,13.514,1.1.531.046,1.061.119,1.592.137a2,2,0,0,0,.833-.146c2.022-.888,4.017-1.83,6.048-2.681a12.62,12.62,0,0,1,6.112-.659,12.147,12.147,0,0,1,2.37.43,2.435,2.435,0,0,1,1.51,3.733,6.748,6.748,0,0,1-1.9,2.132,24.535,24.535,0,0,1-5.243,3.129c-2.114.961-4.282,1.83-6.414,2.745a2.292,2.292,0,0,0-.714.467c-3.431,3.44-6.844,6.9-10.284,10.339a3.85,3.85,0,0,1-1.125.732c-.778.348-1.574.659-2.379.933a1.679,1.679,0,0,1-2.269-1.263,1.848,1.848,0,0,1,.32-1.382l2.415-4.145C882.1,421.988,882.166,421.86,882.3,421.622Zm24.969-14.42c-.54-.091-.933-.174-1.336-.22a11.271,11.271,0,0,0-6.295.823c-2.049.97-4.117,1.885-6.185,2.818-5.609,2.553-11.217,5.087-16.817,7.658a1.863,1.863,0,0,1-1.967-.128c-2.013-1.29-4.053-2.534-6.085-3.788a1.025,1.025,0,0,0-1.125-.156c.092.156.165.3.256.439,1.226,1.931,2.452,3.852,3.669,5.783a1.371,1.371,0,0,1-.091,1.766c-.037.046-.073.11-.156.229.156-.046.229-.073.293-.091q6.3-2.059,12.608-4.136a.963.963,0,0,0,.485-.43c.521-.924,1.006-1.876,1.528-2.809a1.34,1.34,0,0,1,2.443.21,1.475,1.475,0,0,1-.183,1.263q-2.2,3.87-4.374,7.75c-.082.146-.165.3-.247.448l.156.128a2.994,2.994,0,0,1,.32-.439q4.776-4.817,9.561-9.635a3.062,3.062,0,0,1,.933-.613c2.589-1.144,5.2-2.223,7.768-3.4a15.856,15.856,0,0,0,3.943-2.534A11.339,11.339,0,0,0,907.272,407.2Zm-19.351,2.974c-.009-.037-.009-.073-.018-.119l-9.214-.75c.137.11.165.146.2.165,1.83.7,3.651,1.418,5.481,2.114a.533.533,0,0,0,.393.009C885.826,411.136,886.869,410.651,887.921,410.176Z" transform="translate(-823.036 -379.852)" fill="#a5bbd4"/>
      <path id="Path_727" data-name="Path 727" d="M1309.793,278.256a6.494,6.494,0,0,1-1.025,3.065,20.92,20.92,0,0,1-1.336,1.9,1.346,1.346,0,0,1-1.995.339,1.363,1.363,0,0,1-.1-2.022,15.124,15.124,0,0,0,1.052-1.491,6.7,6.7,0,0,0,.577-1.281,2.191,2.191,0,0,0-.842-2.663,7.909,7.909,0,0,0-3.166-1.345c-.888-.2-1.793-.311-2.69-.467a1.32,1.32,0,0,1-1.125-1.427,1.254,1.254,0,0,1,1.336-1.217,14.749,14.749,0,0,1,6.807,1.976A4.979,4.979,0,0,1,1309.793,278.256Z" transform="translate(-1217.926 -259.452)" fill="#a5bbd4"/>
    </g>
  </g>
</svg>
