<svg xmlns="http://www.w3.org/2000/svg" width="81.173" height="75.331" viewBox="0 0 81.173 75.331">
  <g id="Group_1351" data-name="Group 1351" transform="translate(-1038.373 26.55)">
    <path id="Path_770" data-name="Path 770" d="M1078.964,5.332h-37.627a2.9,2.9,0,0,1-1.652-5.326q18.7-12.944,37.394-25.874a2.931,2.931,0,0,1,3.757,0L1117.334-.6c.317.22.647.44.977.661a2.907,2.907,0,0,1-1.693,5.285Q1097.812,5.325,1078.964,5.332ZM1050.626-.5H1107.3c-.22-.151-.358-.261-.509-.358q-13.708-9.5-27.416-18.993a.581.581,0,0,0-.812,0q-11.065,7.68-22.131,15.332C1054.521-3.2,1052.622-1.88,1050.626-.5Z" fill="#a5bbd4"/>
    <path id="Path_771" data-name="Path 771" d="M1110.936,260.782c1.982,0,3.895-.014,5.808,0a2.89,2.89,0,1,1-.069,5.78h-75.062a2.933,2.933,0,0,1-3.028-2.147,2.9,2.9,0,0,1,2.794-3.647c1.748-.014,3.5,0,5.257,0h.55V229.017a2.9,2.9,0,1,1,5.794-.1c.014,3.771,0,7.542,0,11.313v20.479h52.161V229a2.9,2.9,0,1,1,5.794-.069c.014,3.771,0,7.542,0,11.313v20.534Z" transform="translate(-0.098 -217.781)" fill="#a5bbd4"/>
    <path id="Path_772" data-name="Path 772" d="M1191.656,242.231v12.951a2.9,2.9,0,1,1-5.794.028c-.014-3.785,0-7.57,0-11.354V229.281a2.9,2.9,0,1,1,5.794-.055c.014,3.537,0,7.06,0,10.6Z" transform="translate(-127.184 -218.045)" fill="#a5bbd4"/>
    <path id="Path_773" data-name="Path 773" d="M1270.162,242.046c0-4.335-.014-8.657,0-12.992a2.89,2.89,0,0,1,4.776-2.216,2.857,2.857,0,0,1,1.018,2.326v15.208c0,3.578.014,7.157,0,10.721a2.9,2.9,0,0,1-4.762,2.216,2.86,2.86,0,0,1-1.032-2.312Z" transform="translate(-199.882 -217.886)" fill="#a5bbd4"/>
    <path id="Path_774" data-name="Path 774" d="M1360.156,242.153c0,4.335.014,8.657,0,12.992a2.9,2.9,0,0,1-4.721,2.271,2.873,2.873,0,0,1-1.073-2.381V238.382c0-3.11-.014-6.221,0-9.317a2.893,2.893,0,0,1,5.313-1.555,3.179,3.179,0,0,1,.482,1.762Z" transform="translate(-272.494 -217.966)" fill="#a5bbd4"/>
    <path id="Path_775" data-name="Path 775" d="M1444.356,242.022c0,4.335.014,8.657,0,12.992a2.89,2.89,0,0,1-4.776,2.216,2.857,2.857,0,0,1-1.018-2.326V239.284c0-3.454-.014-6.909,0-10.363a2.892,2.892,0,0,1,5.56-1.087,3.616,3.616,0,0,1,.234,1.321C1444.37,233.448,1444.356,237.728,1444.356,242.022Z" transform="translate(-345.106 -217.836)" fill="#a5bbd4"/>
  </g>
</svg>
