<svg xmlns="http://www.w3.org/2000/svg" width="128.99" height="75.33" viewBox="0 0 128.99 75.33">
  <g id="Group_1325" data-name="Group 1325" transform="translate(249 259)">
    <path id="Path_756" data-name="Path 756" d="M202.311,215.106a2.178,2.178,0,0,0-1.818-1.007H182.017V203.362a2.181,2.181,0,0,0-2.162-2.162H115.36a2.165,2.165,0,0,0-2.162,2.162V209.8h-8.6a2.162,2.162,0,1,0,0,4.324h8.6v19.361H89.562a2.162,2.162,0,1,0,0,4.324H113.2v21.5H93.837a2.162,2.162,0,0,0,0,4.324H113.2v4.3a2.181,2.181,0,0,0,2.162,2.162h8.894a8.558,8.558,0,0,0,16.584,0h47.91a8.557,8.557,0,0,0,16.584,0h8.894a2.181,2.181,0,0,0,2.162-2.162V238.1a2.327,2.327,0,0,0-.319-1.155Zm-69.753,57.05a4.278,4.278,0,1,1,3.047-1.253A4.315,4.315,0,0,1,132.559,272.157Zm0-12.9a8.612,8.612,0,0,0-8.3,6.462h-6.732v-60.2h60.2v60.2H140.863a8.612,8.612,0,0,0-3.047-4.644,8.481,8.481,0,0,0-5.258-1.818Zm64.519,12.9a4.278,4.278,0,1,1,3.047-1.253A4.315,4.315,0,0,1,197.078,272.157Zm15.036-6.437h-6.757a8.557,8.557,0,0,0-16.584,0h-6.757V218.4h17.3l12.8,20.294Z" transform="translate(-336.4 -460.2)" fill="#a5bbd4"/>
    <path id="Path_757" data-name="Path 757" d="M290.862,275.5h18.452l-4.938,4.938h0a2.225,2.225,0,0,0-.663,1.523,2.2,2.2,0,0,0,.639,1.548,2.154,2.154,0,0,0,1.548.639,2.122,2.122,0,0,0,1.523-.663l8.6-8.6a2.2,2.2,0,0,0,.639-1.523,2.1,2.1,0,0,0-.639-1.523l-8.6-8.6a2.155,2.155,0,0,0-3.047,3.047l4.938,4.938H290.862a2.165,2.165,0,0,0-2.162,2.162,2.124,2.124,0,0,0,2.162,2.113Z" transform="translate(-488.242 -506.543)" fill="#a5bbd4"/>
    <path id="Path_758" data-name="Path 758" d="M265.985,350.29l-4.938-4.938H279.5a2.162,2.162,0,0,0,0-4.324H261.046l4.938-4.938h0a2.155,2.155,0,0,0-3.047-3.047l-8.6,8.6a2.2,2.2,0,0,0-.639,1.523,2.1,2.1,0,0,0,.639,1.523l8.6,8.6a2.158,2.158,0,0,0,3.022-.025,2.1,2.1,0,0,0,.025-2.973Z" transform="translate(-461.841 -559.193)" fill="#a5bbd4"/>
    <path id="Path_759" data-name="Path 759" d="M107.162,240.524h2.162a2.162,2.162,0,0,0,0-4.324h-2.162a2.162,2.162,0,0,0,0,4.324Z" transform="translate(-349.676 -486.601)" fill="#a5bbd4"/>
    <path id="Path_760" data-name="Path 760" d="M496.362,376.2h-4.3a2.162,2.162,0,0,0,0,4.324h4.3a2.162,2.162,0,0,0,0-4.324Z" transform="translate(-640.008 -592.203)" fill="#a5bbd4"/>
    <path id="Path_761" data-name="Path 761" d="M499.68,288.8h-7.518A2.165,2.165,0,0,0,490,290.962v12.874A2.181,2.181,0,0,0,492.162,306H507.2a2.187,2.187,0,0,0,1.867-1.081,2.084,2.084,0,0,0,0-2.138l-7.518-12.9A2.136,2.136,0,0,0,499.68,288.8ZM494.3,301.674v-8.6h4.152l5.012,8.6Z" transform="translate(-640.083 -526.277)" fill="#a5bbd4"/>
  </g>
</svg>
