<svg xmlns="http://www.w3.org/2000/svg" width="86.107" height="75.33" viewBox="0 0 86.107 75.33">
  <g id="Partners" transform="translate(-465.6 -92.541)">
    <path id="Path_750" data-name="Path 750" d="M465.626,124.575a1.264,1.264,0,0,0,.093-.185,1.311,1.311,0,0,1,2.222-.463c1.1,1.077,2.18,2.18,3.274,3.266.909.909,1.827,1.818,2.727,2.744a1.061,1.061,0,0,0,.69.3,2.288,2.288,0,0,0,2.071-.85q9.722-9.785,19.495-19.512a1.352,1.352,0,0,0,.4-.951,2.06,2.06,0,0,0-.732-1.785c-4.082-4.04-8.14-8.114-12.205-12.18a1.411,1.411,0,0,1-.513-1.3,1.284,1.284,0,0,1,.884-1.035,1.25,1.25,0,0,1,1.355.311c.783.766,1.549,1.54,2.323,2.315q5.455,5.455,10.917,10.909a1.863,1.863,0,0,1,.623,1.49c-.025.572-.025,1.153,0,1.726a1.951,1.951,0,0,1-.842,1.97h20.438a1.91,1.91,0,0,1-.311-.354,2.9,2.9,0,0,1-.4-1.019,18.551,18.551,0,0,1,0-2.559,1.785,1.785,0,0,1,.429-1.044q6.667-6.717,13.367-13.392a1.325,1.325,0,1,1,1.885,1.86c-.126.135-.253.261-.387.387q-6.187,6.187-12.374,12.365a1.055,1.055,0,0,0-.295.7,2.26,2.26,0,0,0,.833,2.037q9.823,9.747,19.571,19.554a1.28,1.28,0,0,0,.833.362,2.154,2.154,0,0,0,1.928-.8c1.784-1.86,3.636-3.662,5.455-5.488a1.284,1.284,0,0,1,1.372-.4,1.271,1.271,0,0,1,.926.993,1.207,1.207,0,0,1-.345,1.2c-2.247,2.256-4.487,4.512-6.759,6.742a1.57,1.57,0,0,1-.943.379,12.054,12.054,0,0,1-2.643-.017,1.367,1.367,0,0,0-1.364.564c-.791.816-1.591,1.616-2.407,2.407a.939.939,0,0,0-.311.774c.017.631.025,1.263-.008,1.894a.943.943,0,0,1-.236.572q-2.424,2.449-4.874,4.882c-.118.118-.261.21-.438.354a4.932,4.932,0,0,1,1.288,4.924,5.453,5.453,0,0,1-3.594,3.636,4.7,4.7,0,0,1,.084,6.061,5.085,5.085,0,0,1-5.774,1.987,5.371,5.371,0,0,1-3.232,3.864,4.634,4.634,0,0,1-4.933-.724c-.067.143-.118.253-.16.362a5.281,5.281,0,0,1-4.714,3.451,4.8,4.8,0,0,1-3.384-1.254c-.194-.152-.32-.2-.539-.025a4.7,4.7,0,0,1-5.278.816,5.258,5.258,0,0,1-3.19-4.672c-.008-.059-.017-.109-.025-.185-3.241-.337-5.051-2.121-5.412-5.379-3.216-.345-5.025-2.13-5.387-5.412a5.339,5.339,0,0,1-4.806-3.1,4.8,4.8,0,0,1,.96-5.64c-.412-.421-.808-.833-1.221-1.221a.783.783,0,0,1-.269-.657c.017-1.077,0-2.155.008-3.241a.9.9,0,0,0-.278-.7q-2.1-2.071-4.158-4.167a.706.706,0,0,0-.682-.21,13.6,13.6,0,0,1-1.759.059c-1.97,0-1.6.143-3-1.237-1.843-1.843-3.7-3.678-5.522-5.539a9.3,9.3,0,0,1-.766-1.027A3.224,3.224,0,0,0,465.626,124.575Zm13.266,6.372a4.226,4.226,0,0,1,.438.328c1.616,1.608,3.232,3.232,4.857,4.84a.819.819,0,0,1,.269.657c-.017,1.077,0,2.155-.008,3.241a.881.881,0,0,0,.286.7q11.7,11.692,23.409,23.392a5.522,5.522,0,0,0,.884.707,2.436,2.436,0,0,0,3.317-3.333,5.261,5.261,0,0,0-.6-.758q-4.609-4.634-9.234-9.259c-.5-.5-1-.985-1.482-1.49a1.253,1.253,0,0,1-.311-1.355,1.273,1.273,0,0,1,1.035-.884,1.4,1.4,0,0,1,1.3.513q6.54,6.54,13.089,13.081a9.714,9.714,0,0,0,1.077.867,1.809,1.809,0,0,0,1.608.227,2.46,2.46,0,0,0,1.347-4,11.941,11.941,0,0,0-.943-1.01q-6.3-6.313-12.6-12.609a3.992,3.992,0,0,1-.32-.337,1.311,1.311,0,0,1,.665-2.071,1.392,1.392,0,0,1,1.473.463q7.2,7.2,14.394,14.385a9.756,9.756,0,0,0,.96.808,2.023,2.023,0,0,0,2.365.076A2.376,2.376,0,0,0,527,154.5a8.357,8.357,0,0,0-.724-.816L512.031,139.44a3.017,3.017,0,0,1-.32-.337,1.311,1.311,0,0,1,.657-2.1,1.383,1.383,0,0,1,1.465.48q5.707,5.72,11.423,11.423c.286.286.581.572.892.833a2.4,2.4,0,0,0,3.838-.892,1.968,1.968,0,0,0-.118-2.146,7.9,7.9,0,0,0-.825-1q-8.649-8.662-17.306-17.306a1.034,1.034,0,0,1-.345-.8c.017-2.113.008-4.234.008-6.347v-.48c-.623,0-1.2-.025-1.768.008a1.049,1.049,0,0,0-.648.269c-1.978,1.953-3.931,3.923-5.9,5.875a10.391,10.391,0,0,1-1.2.993,4.608,4.608,0,0,1-4.663.513,5.281,5.281,0,0,1-3.241-5.64,5.839,5.839,0,0,1,1.759-3.047c1.768-1.785,3.544-3.552,5.32-5.328.1-.1.194-.21.345-.379-1.818,0-3.527.008-5.236-.008a.887.887,0,0,0-.69.295q-8.106,8.131-16.2,16.221C479.178,130.644,479.085,130.745,478.892,130.947Zm39.924.589c3.6,3.611,7.205,7.205,10.816,10.825,1.473-1.473,2.988-2.98,4.495-4.512a.634.634,0,0,0,.126-.412c.017-.69-.008-1.372.017-2.062a.906.906,0,0,1,.244-.572c1.187-1.212,2.391-2.407,3.586-3.6.1-.1.2-.219.3-.328a1.988,1.988,0,0,0-.143-.168q-8.232-8.232-16.473-16.465a.858.858,0,0,0-.556-.194q-7.841-.013-15.682,0a.924.924,0,0,0-.606.261q-3.662,3.624-7.29,7.281a7.971,7.971,0,0,0-.774.985,1.846,1.846,0,0,0-.219,1.65c.412,1.473,2.3,2.551,3.611,1.574a8.386,8.386,0,0,0,.943-.774c2.231-2.214,4.436-4.436,6.667-6.65a.987.987,0,0,1,.606-.261c1.734-.017,3.476-.008,5.21-.008.109,0,.219.017.354.025v.48c0,2.66-.008,5.328.008,7.988a1,1,0,0,0,.253.614c.455.5.934.968,1.423,1.431a.812.812,0,0,0,.505.219c1.094.017,2.189.017,3.283.008a2.671,2.671,0,0,0,2.508-1.894c.076-.253.109-.513.168-.791h2.593a5.191,5.191,0,0,1-1.2,3.384A5.508,5.508,0,0,1,518.816,131.536ZM488.521,148.4c-1.145-1.145-2.273-2.281-3.4-3.417a2.417,2.417,0,0,0,3.4,3.417Zm5.4,5.354c-1.136-1.128-2.273-2.264-3.409-3.392a2.409,2.409,0,0,0,3.409,3.392Zm1.995,1.961a2.249,2.249,0,0,0,.168,3.4,2.2,2.2,0,0,0,3.224-.008ZM501.3,161.1a2.249,2.249,0,0,0,.168,3.4,2.211,2.211,0,0,0,3.232-.008C503.572,163.362,502.452,162.243,501.3,161.1Z" fill="#a5bbd4"/>
    <path id="Path_751" data-name="Path 751" d="M531.369,395.3a3.786,3.786,0,0,1,.892.488c.918.867,1.8,1.759,2.677,2.66a1.325,1.325,0,1,1-1.886,1.86c-.892-.875-1.768-1.751-2.643-2.643a1.3,1.3,0,0,1-.286-1.507A1.6,1.6,0,0,1,531.369,395.3Z" transform="translate(-58.976 -277.274)" fill="#a5bbd4"/>
    <path id="Path_752" data-name="Path 752" d="M1366.626,397.613a3.931,3.931,0,0,1-.5.884q-1.3,1.364-2.668,2.677a1.325,1.325,0,1,1-1.86-1.885q1.326-1.351,2.668-2.668a1.256,1.256,0,0,1,1.473-.278A1.567,1.567,0,0,1,1366.626,397.613Z" transform="translate(-820.2 -278.114)" fill="#a5bbd4"/>
  </g>
</svg>
