<svg xmlns="http://www.w3.org/2000/svg" width="30.795" height="27.694" viewBox="0 0 30.795 27.694">
  <g id="Dimensions" transform="translate(-472.9 -87.8)">
    <path id="Path_401" data-name="Path 401" d="M476.061,113.244l2.459.784c-.155.49-.307.97-.465,1.467-1.716-.512-3.427-1.024-5.156-1.539.55-1.745,1.1-3.474,1.65-5.228.493.155.974.31,1.467.465-.294.923-.582,1.833-.879,2.772.07-.028.114-.044.158-.066,1.2-.6,2.406-1.2,3.613-1.8a.241.241,0,0,0,.152-.253q0-4.77-.006-9.537a.28.28,0,0,1,.18-.3q4.064-2.02,8.124-4.053a.27.27,0,0,0,.177-.284c-.006-1.574,0-3.148,0-4.719v-.164l-.044-.019c-.566.578-1.129,1.157-1.682,1.726-.386-.379-.746-.733-1.087-1.072,1.185-1.214,2.377-2.428,3.547-3.619l3.638,3.572c-.367.373-.718.733-1.075,1.1-.578-.572-1.16-1.144-1.764-1.742v.193c0,1.59,0,3.18,0,4.767a.241.241,0,0,0,.158.25q4.073,2.029,8.14,4.062a.282.282,0,0,1,.183.3q-.01,4.761-.006,9.521a.271.271,0,0,0,.177.285c1.192.588,2.38,1.185,3.569,1.78.051.025.1.051.19.095-.3-.942-.588-1.852-.885-2.785l1.467-.468c.547,1.745,1.091,3.474,1.641,5.228-1.716.515-3.42,1.024-5.146,1.539-.158-.493-.31-.974-.468-1.467.816-.259,1.622-.515,2.459-.784-.07-.038-.111-.063-.155-.085q-1.783-.891-3.566-1.786a.282.282,0,0,0-.291,0q-4.035,2.025-8.077,4.046a.314.314,0,0,1-.316,0q-4.04-2.025-8.08-4.043a.236.236,0,0,0-.247-.019c-1.208.61-2.415,1.211-3.623,1.814Zm4.536-11.516v.152q0,3.945,0,7.893a.217.217,0,0,0,.145.224q3.272,1.631,6.543,3.269c.073.038.149.073.25.123V113.2q0-3.917,0-7.83a.239.239,0,0,0-.155-.25q-3.3-1.645-6.6-3.3C480.727,101.791,480.676,101.766,480.6,101.728Zm8.469,11.658c.082-.041.133-.063.183-.089q3.3-1.65,6.613-3.3a.217.217,0,0,0,.139-.228q0-3.94,0-7.877c0-.044,0-.092-.006-.155-.066.032-.117.054-.168.079q-3.3,1.65-6.6,3.294a.249.249,0,0,0-.161.262q0,3.907,0,7.814Zm-7.416-12.862c.076.041.126.07.183.1q3.158,1.579,6.313,3.158a.306.306,0,0,0,.3,0q3.163-1.588,6.328-3.167c.051-.025.1-.054.161-.092-.054-.028-.089-.051-.123-.066q-3.2-1.6-6.4-3.205a.244.244,0,0,0-.25.009q-2.845,1.427-5.693,2.848C482.206,100.242,481.941,100.378,481.65,100.523Z" transform="translate(0 0)" fill="#a1b7cf"/>
  </g>
</svg>
