<?xml version="1.0" encoding="utf-8"?>
<!-- Generator: Adobe Illustrator 26.3.1, SVG Export Plug-In . SVG Version: 6.00 Build 0)  -->
<svg version="1.1" id="Wort-_x2F_Bildmarke" xmlns="http://www.w3.org/2000/svg" xmlns:xlink="http://www.w3.org/1999/xlink"
	 x="0px" y="0px" viewBox="0 0 591.5 219.4" style="enable-background:new 0 0 591.5 219.4;" xml:space="preserve">
<style type="text/css">
	.st0{fill:#A5BBD4;}
	.st1{fill:#C3D0E0;}
	.st2{fill:#D3DCEA;}
	.st3{fill:#6B7273;}
</style>
<g>
	<polygon class="st0" points="0.1,165.3 95.5,219.4 191.1,165.5 95.5,111.1 	"/>
	<polygon class="st1" points="104.7,0 104.7,95.5 191.1,144.4 191.1,48.9 	"/>
	<polygon class="st2" points="0,48.9 0,144.4 86.2,95.5 86.2,0 	"/>
</g>
<path class="st3" d="M273.9,153c-0.3,0.7-0.3,0.8-0.7,1.8l-0.7,1.7l-0.5,1.2c-0.2,0.5-0.3,0.8-0.4,0.9c0,0,0,0.1-0.1,0.2
	c-0.6,0.1-1,0.2-2.8,0.2c-1.3,0-2.5,0-3.7-0.1l-1.5-0.1c-0.6,0-1.3,0-2.2,0h-1.5c-1,0-1.4,0-2.6,0.1l0.4-1.4h0.2
	c0.7,0,1.2-0.1,1.5-0.5c0.2-0.2,0.3-0.4,0.3-0.8c0.1-0.7,0.2-2.1,0.2-2.9l0.3-12.7c0-0.1,0-0.3,0-0.4c0-0.8,0-0.9-0.5-0.9h-0.1
	l-1.2,0.1h-0.9h-0.3l0.6-1.5c0.1,0,0.3,0,0.4,0c0.3,0,1.3-0.1,1.9-0.1h1.8h1.8c0.7,0,1.4-0.1,2.1-0.1c1-0.1,1.4-0.1,2.2-0.2
	l-0.6,1.6c-0.3,0-0.4,0-0.5,0c-0.5,0-0.9,0.1-1.2,0.3c-0.3,0.1-0.5,0.4-0.6,0.6c-0.1,0.3-0.2,0.6-0.2,1.6l-0.3,14.2l0,0
	c0,0.1,0,0.3,0.1,0.4c0.1,0.1,0.2,0.1,0.3,0.1c0.5,0.1,1.8,0.1,2.7,0.1c1.9,0,2.8-0.2,3.5-0.7c0.6-0.5,1-1.3,1.3-2.6h1.5V153z"/>
<path class="st3" d="M290.7,158.8h-0.1H290h-1.3c-0.6,0-1.3,0-2,0c-0.9,0-1.9,0-2.8,0.1c-1.2,0-1.6,0.1-2.7,0.2l0.4-1.5h0.2
	c1.5,0,2.1-0.5,2.1-1.9v-1.6l0.3-14.1c0-0.4-0.1-0.4-0.7-0.4c-0.5,0-0.8,0-1.9,0.1h-0.4l0.5-1.5c0.2,0,0.4,0,0.5-0.1
	c0.2,0,0.6,0,1.2,0h1.8h1.4c0.3,0,0.8,0,1.7,0c1.6,0,1.9-0.1,3.3-0.3l-0.5,1.5h-0.5c-0.8,0-1,0-1.3,0.2c-0.5,0.3-0.6,0.9-0.6,2.8
	l-0.3,14.6v0.2c0,0.4,0,0.5,0.6,0.5c0.8,0,1.5-0.1,2.4-0.2L290.7,158.8z"/>
<path class="st3" d="M317.8,153.6c-0.1,0.2-0.1,0.3-0.2,0.4c-0.2,0.4-0.6,1.3-1.2,2.6l-1,2.2c-0.8,0.1-1.5,0.2-2.5,0.2
	c-0.5,0-2.1-0.1-3.9-0.1l-3.1-0.1c-0.3,0-0.8,0-1.3,0h-0.7c-2.3,0-2.7,0-4.2,0.2l0.5-1.4c1,0,1.3-0.1,1.5-0.3
	c0.5-0.3,0.7-0.9,0.8-2.1l0.3-14.8v-0.8c0-0.3-0.1-0.3-0.5-0.3h-1.2c-0.8,0-1.5,0.1-1.9,0.3l0.6-1.4c0.4-0.1,0.6-0.1,1.1-0.2
	c0.9-0.1,2.1-0.1,3.7-0.1l8-0.1c1.5,0,2.6-0.1,3.1-0.3c0.1,0,0.3-0.1,0.3-0.3h0.2c-0.1,0.5-0.1,0.8-0.2,1.4
	c-0.1,1.3-0.1,2.7-0.1,3.4v0.7h-1.3c0.1-0.4,0.1-0.5,0.1-0.8c0-0.6-0.1-1-0.4-1.2s-0.8-0.3-1.4-0.4c-1-0.1-2.8-0.2-4.2-0.2h-1.5
	l-0.1,6.7h1.4c1,0,1.8,0,2.6-0.1c1.5-0.1,2-0.1,2.3-0.2c0.4-0.1,0.6-0.6,0.6-1.2c0,0,0-0.1,0-0.2h1.3c-0.1,0.6-0.1,0.9-0.1,1.4
	c0,0.6-0.1,1.4-0.1,2.3c0,0.8,0,1.4,0,1.8c0,0.2,0,0.5,0,0.8h-1.3c0.1-0.4,0.1-0.6,0.1-1c0-0.5-0.1-0.8-0.3-0.9
	c-0.4-0.4-1.9-0.6-4.4-0.6h-0.4h-1.7l-0.1,6.5l0,0c0,0.2,0.1,0.4,0.3,0.4c0.1,0.1,0.3,0.1,0.5,0.1c0.8,0.1,2.3,0.1,3.5,0.1
	c2,0,3.2-0.1,3.8-0.5c0.6-0.4,1-0.9,1.4-2.2h1.3V153.6z"/>
<path class="st3" d="M344.9,151.7l-0.3,0.6c-0.6,1.2-1,2.3-1.6,3.9l-0.8,2c-1.5,0.6-4.1,1.1-6.6,1.1c-3.6,0-6.1-0.8-8.1-2.4
	c-2.1-1.8-3.3-4.5-3.3-7.6c0-3.2,1.2-6.3,3.4-8.4c2.2-2.2,5.1-3.2,9.3-3.2c0.8,0,1.7,0.1,3.1,0.1l1.3,0.1h0.8c0.9,0,1.4-0.1,1.5-0.5
	h0.2c-0.1,0.7-0.2,0.9-0.3,1.7c-0.1,1.3-0.3,3-0.3,3.9c0,0.3,0,0.6,0,1.1h-1.4c0.1-0.3,0.1-0.4,0.1-0.8c0-0.8-0.2-1.2-0.7-1.7
	c-1-0.9-3.1-1.5-5.3-1.5c-4.2,0-7,3.2-7,8.2c0,4.8,3.1,8.4,7.2,8.4c3.7,0,6.3-1.8,6.9-4.8h1.9V151.7z"/>
<path class="st3" d="M376.9,158.8h-0.7c-1.9-0.1-2.4-0.1-3.5-0.1c-2.2,0-4.1,0.1-5.5,0.3l0.5-1.5h0.5c1.3,0,1.8-0.6,1.8-2.4l0.1-5.9
	h-11L359,157c0,0.2,0,0.3,0.1,0.3c0.1,0.1,0.2,0.1,0.8,0.1c0.6,0,1.3,0,2.2-0.1l-0.5,1.6c-1.3-0.1-1.7-0.1-3.3-0.1
	c-3.1,0-4.8,0.1-6.4,0.3l0.5-1.6c0.2,0,0.3,0,0.4,0c0.7,0,1-0.1,1.2-0.3s0.4-0.6,0.5-0.9c0.1-0.5,0.1-0.9,0.1-2l0.3-14.6l0,0
	c0-0.3-0.1-0.4-0.6-0.4h-0.6c-0.6,0-1.1,0-1.3,0.1c-0.1,0-0.2,0-0.4,0.1l0.6-1.6h0.9h0.8h3.8c1,0,2.1,0,3.1-0.1c0.6,0,0.7,0,1.2-0.1
	l-0.5,1.5h-0.5c-1.5,0-1.9,0.4-1.9,2l-0.1,5.7h11l0.1-7.1c0-0.3-0.1-0.4-0.6-0.4h-0.5h-1.3l-0.6,0.1l0.6-1.5h0.3h1.1h1.2h1.7
	c0.8,0,1.4,0,3.2-0.1c1.2-0.1,1.4-0.1,2.3-0.2l-0.5,1.6c-0.4,0-0.5,0-0.7,0c-0.6,0-1,0.1-1.2,0.3c-0.4,0.4-0.5,0.7-0.5,3l-0.3,14.5
	c0,0.4,0.1,0.5,0.9,0.5h0.4c0.8,0,1,0,1.7-0.1L376.9,158.8z"/>
<path class="st3" d="M400.5,158.8h-0.4h-0.6l-1.4-0.1h-1.8c-0.8,0-1.6,0-2.7,0c-1.7,0.1-2.2,0.1-3.7,0.2l0.5-1.4
	c1.2,0,1.7-0.1,2-0.5c0.2-0.2,0.3-0.5,0.4-0.9c0-0.2,0.1-0.4,0.1-0.6c0-0.3,0-0.8,0-1.5l0.2-13.8H391c-2.2,0-3,0.1-3.5,0.5
	c-0.4,0.3-0.6,1.1-0.6,2.1c0,0.3,0,0.4,0,0.8h-1.5c0.2-1.8,0.4-3.4,0.4-5.7V137h0.2v0.1c0.1,0.2,0.3,0.3,0.5,0.4
	c0.3,0.1,0.6,0.1,1.1,0.2c0.5,0.1,1,0.1,1.4,0.1h1h12.6c0.7,0,1.7-0.1,2.1-0.3c0.2,0,0.4-0.2,0.5-0.4h0.2c-0.1,0.6-0.1,0.8-0.2,1.5
	c-0.1,1.5-0.2,3.1-0.2,4c0,0.3,0,0.5,0,1h-1.4c0.1-0.5,0.1-0.8,0.1-1c0-1.1-0.2-1.6-0.7-1.9c-0.3-0.1-0.6-0.3-1-0.3
	c-0.4,0-0.8-0.1-1.3-0.1c-0.7,0-1.2-0.1-1.4-0.1h-1.7l-0.3,16.5c0,0.2,0,0.4,0.1,0.4c0.1,0.1,0.2,0.2,1,0.2c1.1,0,1.5,0,2.6-0.1
	L400.5,158.8z"/>
<path class="st3" d="M431.3,153.6c-0.1,0.2-0.1,0.3-0.2,0.4c-0.2,0.4-0.6,1.3-1.2,2.6l-1,2.2c-0.8,0.1-1.5,0.2-2.5,0.2
	c-0.5,0-2.1-0.1-3.9-0.1l-3.1-0.1c-0.3,0-0.8,0-1.3,0h-0.7c-2.3,0-2.7,0-4.2,0.2l0.5-1.4c1,0,1.3-0.1,1.5-0.3
	c0.5-0.3,0.7-0.9,0.8-2.1l0.3-14.8v-0.8c0-0.3-0.1-0.3-0.5-0.3h-1.2c-0.8,0-1.5,0.1-1.9,0.3l0.6-1.4c0.4-0.1,0.6-0.1,1.1-0.2
	c0.9-0.1,2.1-0.1,3.7-0.1l8-0.1c1.5,0,2.6-0.1,3.1-0.3c0.1,0,0.3-0.1,0.3-0.3h0.2c-0.1,0.5-0.1,0.8-0.2,1.4
	c-0.1,1.3-0.1,2.7-0.1,3.4v0.7h-1.3c0.1-0.4,0.1-0.5,0.1-0.8c0-0.6-0.1-1-0.4-1.2s-0.8-0.3-1.4-0.4c-1-0.1-2.8-0.2-4.2-0.2h-1.5
	l-0.1,6.7h1.4c1,0,1.8,0,2.6-0.1c1.5-0.1,2-0.1,2.3-0.2c0.4-0.1,0.6-0.6,0.6-1.2c0,0,0-0.1,0-0.2h1.3c-0.1,0.6-0.1,0.9-0.1,1.4
	c0,0.6-0.1,1.4-0.1,2.3c0,0.8,0,1.4,0,1.8c0,0.2,0,0.5,0,0.8h-1.3c0.1-0.4,0.1-0.6,0.1-1c0-0.5-0.1-0.8-0.3-0.9
	c-0.4-0.4-1.9-0.6-4.4-0.6h-0.4h-1.7l-0.1,6.5l0,0c0,0.2,0.1,0.4,0.3,0.4c0.1,0.1,0.3,0.1,0.5,0.1c0.8,0.1,2.3,0.1,3.5,0.1
	c2,0,3.2-0.1,3.8-0.5c0.6-0.4,1-0.9,1.4-2.2h1.3V153.6z"/>
<path class="st3" d="M464.3,139.1H464c-0.6,0-1.3,0.2-1.5,0.4c-0.1,0.1-0.3,0.5-0.4,0.8c0,0.4-0.1,1.3-0.1,2l-0.3,10.8v0.5v1.1
	c0,2.5,0,2.7,0.1,3.9c0.1,0.6,0.2,1,0.4,1.2H462h-0.5h-1c-0.3-0.4-0.4-0.5-0.9-1l-1.4-1.4l-1.9-1.9l-3-3.1l-3.3-3.5l-2.3-2.5
	c-1.1-1.2-1.7-1.9-1.8-2c-0.2-0.2-0.4-0.5-1-1.4h-0.1c0.1,0.3,0.1,0.4,0.1,0.9c0,0.3,0.1,0.5,0.1,0.6c0.1,0.6,0.1,2.5,0.1,3.9v8.1
	c0,0.6,0.2,0.8,0.7,0.8h0.1h1.5c0.7,0,1,0,1.8-0.1l-0.7,1.7c-0.3,0-0.5-0.1-0.6-0.1c-0.3,0-0.9,0-1.8,0h-2.5h-0.4
	c-1.9,0-2.3,0-3.7,0.2l0.5-1.4h0.4c0.5,0,0.9-0.1,1.3-0.4c0.3-0.2,0.4-0.4,0.5-0.8c0.1-0.4,0.1-1,0.1-1.5l0.3-14.3
	c-0.1-0.1-0.2-0.2-0.3-0.3c-0.4-0.4-0.6-0.5-0.9-0.6c-0.4-0.2-0.9-0.3-1.4-0.3c-0.4,0-0.8,0-1.3,0.1l0.6-1.5c0.3,0,0.4-0.1,0.5-0.1
	c0.3,0,0.6-0.1,1.2-0.1c0.6,0,0.9,0,1.1,0l1.3-0.1c1.1-0.1,1.4,0,2.2-0.2c0.6,0.8,0.8,1,1.9,2.2c0.5,0.5,1.2,1.3,2.1,2.2
	c1.4,1.5,2.4,2.6,3.1,3.3l3,3.2c1.6,1.7,1.7,1.8,2.3,2.6c0.2,0.3,0.4,0.5,0.6,0.7c0.3,0.4,0.4,0.6,0.7,1.1h0.1
	c-0.1-0.6-0.1-0.8-0.2-1.3c0-0.3-0.1-0.9-0.1-1.7c0-1,0-1.7-0.1-1.9l-0.1-8.2c0-0.4-0.1-0.5-0.8-0.5c-0.6,0-1.3,0-2.9,0.2l0.5-1.7
	h1.6h3c2.6,0,2.9-0.1,4.2-0.2L464.3,139.1z"/>
<path class="st3" d="M483.9,143.7c0.1-0.4,0.1-0.5,0.1-0.9c0-0.6-0.1-1-0.3-1.4c-0.6-0.9-2.1-1.6-3.7-1.6c-2,0-3.2,0.9-3.2,2.4
	c0,1.1,0.6,1.8,2.2,2.6l1.2,0.6c0.6,0.3,1.1,0.5,1.4,0.7c1.2,0.6,2.1,1.3,2.7,2c0.9,1.1,1.5,2.4,1.5,3.9c0,1.7-0.7,3.2-2,4.6
	c-1.7,1.8-3.7,2.6-6.8,2.6c-1.9,0-3.5-0.3-5.2-0.8c0.1-1.1,0.1-3,0.1-4c0-0.6,0-1-0.1-2h1.5c0,0.4-0.1,0.5-0.1,0.8
	c0,1.9,2.2,3.3,5.1,3.3c2.1,0,3.4-1.2,3.4-2.9c0-0.6-0.2-1.2-0.6-1.7c-0.2-0.3-0.5-0.5-0.8-0.8c-0.5-0.4-0.8-0.6-1.9-1.2l-1.1-0.6
	c-2.1-1.1-2.2-1.3-3-1.9c-1-1-1.5-2.3-1.5-3.9c0-3.6,3.1-6.2,7.7-6.2h1.6h1.5h0.2c1,0,1.3-0.1,1.5-0.4h0.3c-0.2,1.4-0.4,3.4-0.4,5.3
	c0,0.4,0,0.7,0.1,1.4L483.9,143.7L483.9,143.7z"/>
<path class="st3" d="M509,158.8h-0.4H508l-1.4-0.1h-1.8c-0.8,0-1.6,0-2.7,0c-1.7,0.1-2.2,0.1-3.7,0.2l0.5-1.4c1.2,0,1.7-0.1,2-0.5
	c0.2-0.2,0.3-0.5,0.4-0.9c0-0.2,0.1-0.4,0.1-0.6c0-0.3,0-0.8,0-1.5l0.2-13.8h-2.1c-2.2,0-3,0.1-3.5,0.5c-0.4,0.3-0.6,1.1-0.6,2.1
	c0,0.3,0,0.4,0,0.8h-1.5c0.2-1.8,0.4-3.4,0.4-5.7V137h0.2v0.1c0.1,0.2,0.3,0.3,0.5,0.4c0.3,0.1,0.6,0.1,1.1,0.2
	c0.5,0.1,1,0.1,1.4,0.1h1h12.6c0.7,0,1.7-0.1,2.1-0.3c0.2,0,0.4-0.2,0.5-0.4h0.2c-0.1,0.6-0.1,0.8-0.2,1.5c-0.1,1.5-0.2,3.1-0.2,4
	c0,0.3,0,0.5,0,1h-1.4c0.1-0.5,0.1-0.8,0.1-1c0-1.1-0.2-1.6-0.7-1.9c-0.3-0.1-0.6-0.3-1-0.3s-0.8-0.1-1.3-0.1
	c-0.7,0-1.2-0.1-1.4-0.1h-1.7l-0.3,16.5c0,0.2,0,0.4,0.1,0.4c0.1,0.1,0.2,0.2,1,0.2c1.1,0,1.5,0,2.6-0.1L509,158.8z"/>
<path class="st3" d="M539.8,153.6c-0.1,0.2-0.1,0.3-0.2,0.4c-0.2,0.4-0.6,1.3-1.2,2.6l-1,2.2c-0.8,0.1-1.5,0.2-2.5,0.2
	c-0.5,0-2.1-0.1-3.9-0.1l-3.1-0.1c-0.3,0-0.8,0-1.3,0h-0.7c-2.3,0-2.7,0-4.2,0.2l0.5-1.4c1,0,1.3-0.1,1.5-0.3
	c0.5-0.3,0.7-0.9,0.8-2.1l0.3-14.8v-0.8c0-0.3-0.1-0.3-0.5-0.3h-1.2c-0.8,0-1.5,0.1-1.9,0.3l0.6-1.4c0.4-0.1,0.6-0.1,1.1-0.2
	c0.9-0.1,2.1-0.1,3.7-0.1l8-0.1c1.5,0,2.6-0.1,3.1-0.3c0.1,0,0.3-0.1,0.3-0.3h0.2c-0.1,0.5-0.1,0.8-0.2,1.4
	c-0.1,1.3-0.1,2.7-0.1,3.4v0.7h-1.3c0.1-0.4,0.1-0.5,0.1-0.8c0-0.6-0.1-1-0.4-1.2s-0.8-0.3-1.4-0.4c-1-0.1-2.8-0.2-4.2-0.2h-1.5
	l-0.1,6.7h1.4c1,0,1.8,0,2.6-0.1c1.5-0.1,2-0.1,2.3-0.2c0.4-0.1,0.6-0.6,0.6-1.2c0,0,0-0.1,0-0.2h1.3c-0.1,0.6-0.1,0.9-0.1,1.4
	c0,0.6-0.1,1.4-0.1,2.3c0,0.8,0,1.4,0,1.8c0,0.2,0,0.5,0,0.8h-1.3c0.1-0.4,0.1-0.6,0.1-1c0-0.5-0.1-0.8-0.3-0.9
	c-0.4-0.4-1.9-0.6-4.4-0.6h-0.4h-1.7l-0.1,6.5l0,0c0,0.2,0.1,0.4,0.3,0.4c0.1,0.1,0.3,0.1,0.5,0.1c0.8,0.1,2.3,0.1,3.5,0.1
	c2,0,3.2-0.1,3.8-0.5s1-0.9,1.4-2.2h1.3V153.6z"/>
<path class="st3" d="M557.7,158.8L557.7,158.8H557h-1.3c-0.6,0-1.3,0-2,0c-0.9,0-1.9,0-2.8,0.1c-1.2,0-1.6,0.1-2.7,0.2l0.4-1.5h0.2
	c1.5,0,2.1-0.5,2.1-1.9v-1.6l0.3-14.1c0-0.4-0.1-0.4-0.7-0.4c-0.5,0-0.8,0-1.9,0.1h-0.4l0.5-1.5c0.2,0,0.4,0,0.5-0.1
	c0.2,0,0.6,0,1.2,0h1.8h1.4c0.3,0,0.8,0,1.7,0c1.6,0,1.9-0.1,3.3-0.3l-0.5,1.5h-0.5c-0.8,0-1,0-1.3,0.2c-0.5,0.3-0.6,0.9-0.6,2.8
	l-0.3,14.6v0.2c0,0.4,0,0.5,0.6,0.5c0.8,0,1.5-0.1,2.4-0.2L557.7,158.8z"/>
<path class="st3" d="M591.3,139.1H591c-0.6,0-1.3,0.2-1.5,0.4c-0.1,0.1-0.3,0.5-0.4,0.8c0,0.4-0.1,1.3-0.1,2l-0.3,10.8v0.5v1.1
	c0,2.5,0,2.7,0.1,3.9c0.1,0.6,0.2,1,0.4,1.2H589h-0.5h-1c-0.3-0.4-0.4-0.5-0.9-1l-1.4-1.4l-1.9-1.9l-3-3.1l-3.3-3.5l-2.3-2.5
	c-1.1-1.2-1.7-1.9-1.8-2c-0.2-0.2-0.4-0.5-1-1.4h-0.1c0.1,0.3,0.1,0.4,0.1,0.9c0,0.3,0.1,0.5,0.1,0.6c0.1,0.6,0.1,2.5,0.1,3.9v8.1
	c0,0.6,0.2,0.8,0.7,0.8h0.1h1.5c0.7,0,1,0,1.8-0.1l-0.7,1.7c-0.3,0-0.5-0.1-0.6-0.1c-0.3,0-0.9,0-1.8,0h-2.5h-0.4
	c-1.9,0-2.3,0-3.7,0.2l0.5-1.4h0.4c0.5,0,0.9-0.1,1.3-0.4c0.3-0.2,0.4-0.4,0.5-0.8c0.1-0.4,0.1-1,0.1-1.5l0.3-14.3
	c-0.1-0.1-0.2-0.2-0.3-0.3c-0.4-0.4-0.6-0.5-0.9-0.6c-0.4-0.2-0.9-0.3-1.4-0.3c-0.4,0-0.8,0-1.3,0.1l0.6-1.5c0.3,0,0.4-0.1,0.5-0.1
	c0.3,0,0.6-0.1,1.2-0.1s0.9,0,1.1,0l1.3-0.1c1.1-0.1,1.4,0,2.2-0.2c0.6,0.8,0.8,1,1.9,2.2c0.5,0.5,1.2,1.3,2.1,2.2
	c1.4,1.5,2.4,2.6,3.1,3.3l3,3.2c1.6,1.7,1.7,1.8,2.3,2.6c0.2,0.3,0.4,0.5,0.6,0.7c0.3,0.4,0.4,0.6,0.7,1.1h0.1
	c-0.1-0.6-0.1-0.8-0.2-1.3c0-0.3-0.1-0.9-0.1-1.7c0-1,0-1.7-0.1-1.9l-0.1-8.2c0-0.4-0.1-0.5-0.8-0.5c-0.6,0-1.3,0-2.9,0.2l0.5-1.7
	h1.6h3c2.6,0,2.9-0.1,4.2-0.2L591.3,139.1z"/>
<path class="st3" d="M289.9,56.4c-10.8,0-18.7,9.8-18.7,23.3c0,15.5,8.8,27.4,20.3,27.4c10.8,0,18.8-10.1,18.8-23.7
	C310.3,68.6,301,56.4,289.9,56.4 M289.4,114.9c-19.6,0-33-12.8-33-31.3c0-20.1,15.4-35.2,36-35.2c18.5,0,32.5,13.6,32.5,31.5
	C325,99.6,309.5,114.9,289.4,114.9"/>
<path class="st3" d="M420.5,93.6l-0.6,1.3c-1.7,4.1-2.1,6.1-4,12.2c-0.9,3.1-1.1,3.6-1.8,6.2c-1.7,0.3-2,0.4-5,0.5
	c-4.1,0.2-7.5,0.3-10.6,0.3h-3.6l-26.4-0.6h-6l-5.7,0.1c1-1,1.4-1.4,2.1-2.1c0.4-0.6,1-1.1,1.5-1.8c2.5-3.2,5.2-6.8,13.2-18.5
	l8-11.7l7.9-11.7l3.4-5c1.8-2.5,3.1-4.3,3.7-5.1c0.1-0.2,0.4-0.6,1.1-1.2l-0.1-0.1c-0.3,0.1-0.7,0.2-0.9,0.2
	c-0.3,0.1-0.9,0.1-1.5,0.2c-1,0.1-1.8,0.1-2.3,0.1h-6.8l-7.8,0.1c-1.7,0-4.3,0.2-5.5,0.3c-1.7,0.2-2.8,0.6-3.7,1.2
	c-2.1,1.2-3.3,3.6-3.3,6.4c0,0.4,0,1.1,0.1,2h-4.3c0.1-0.6,0.1-1,0.2-1.1c0-0.6,0.1-1.9,0.2-4.2l0.3-6c0.1-1.3,0.1-2.8,0.1-4.4
	c0-1.1,0-2-0.1-4.2h1c0.6,1.3,2,1.8,6.5,1.9l6.5,0.2h17h9.4c10.4,0,11.7-0.1,16-0.9c-0.5,0.8-1,1.3-1.3,1.7c-1.7,2-3.6,4.6-6.1,8.3
	l-23.9,35.4l-4.1,5.5c-2.3,3.2-3.6,5.1-4,5.5c-0.2,0.2-0.6,0.6-1.2,1.3c1.2-0.2,2-0.3,2.5-0.4c1.7-0.2,4.7-0.3,7.3-0.3h0.8l9.6,0.1
	h0.7c10.4,0,14.5-3.2,16-12h5.5V93.6z"/>
<path class="st3" d="M511.5,96.2c-0.8,2.2-0.9,2.4-2.1,5.5l-2.1,5.2l-1.5,3.7c-0.7,1.5-1,2.4-1.2,2.9c0,0.1-0.1,0.2-0.3,0.6
	c-1.8,0.4-3.1,0.6-8.5,0.6c-4,0-7.7,0-11.4-0.2l-4.5-0.2c-1.9-0.1-4.1-0.1-6.6-0.1h-4.5c-3,0-4.3,0.1-7.8,0.3l1.3-4.3h0.7
	c2.2,0,3.6-0.4,4.6-1.5c0.6-0.7,0.8-1.2,0.9-2.4c0.2-2.2,0.6-6.4,0.6-8.8l0.8-39c0.1-0.4,0.1-0.9,0.1-1.3c0-2.5-0.1-2.8-1.5-2.8
	h-0.3l-3.5,0.3l-2.8,0.1l-1,0.1l1.8-4.7c0.4-0.1,0.8-0.1,1.1-0.1c1-0.1,3.9-0.2,6-0.2l5.4-0.1h5.4c2.1,0,4.2-0.2,6.3-0.3
	c3.2-0.2,4.2-0.2,6.7-0.7l-1.8,4.8c-0.9,0-1.2-0.1-1.7-0.1c-1.7,0-2.8,0.2-3.7,0.8c-1,0.4-1.7,1.1-2,2c-0.4,1-0.6,2-0.7,4.8
	l-0.9,43.5v0.1c0,0.4,0.1,0.9,0.3,1.1c0.2,0.2,0.6,0.3,0.9,0.3c1.5,0.2,5.5,0.4,8.3,0.4c6,0,8.6-0.6,10.7-2.2c1.9-1.5,3.1-4.1,3.9-8
	h4.6V96.2z"/>
</svg>
