<svg id="Layer_1" data-name="Layer 1" xmlns="http://www.w3.org/2000/svg" viewBox="0 0 420.13 460.13">
  <title>map-europe</title>
  <path d="M219.21,351.45s-1,.07-1,.74.14,1-.6,1.28-1.62.07-1.82.74.54,1-.67,1.61-2.56.34-2.89.94-.47,1.21-1.82.61-1.88-2.09-2.15-1.41.34,1.35-.34,1.88-1.28.47-.74,1.21-.07.81.54,1.48,1.21,0,1.55,1.21-.34,1.28.47,2.09,1.41,1.21,1.08,1.88a6.62,6.62,0,0,0-.2,2.49c0,.4-1.28.81-.87,1.55s0,2.09.74,1.68,1.28-.87,1.08,0,.2,1.55-.4,1.88-1.21-.47-.94.61,1.35,1.55.54,2.09-1.55.13-1.08,1,.81,1,.47,1.55-1.21.74-.67,1.68,1.08.94.88,1.68-.4.87.2,1.08,1.14-.07,1.21.88-.4,1.55.4,1.61,1-1.28,1.88-.67,2,1.14,2.22.27a12.15,12.15,0,0,0,.94-2.89c.07-1.08-.54-1.68.81-1.41s1.41-.87,2.69.47,1.68,2.08,2.09,1.14-.27-1.35.54-2.69,1.14-1.75.67-3.3.2-4.24.47-5,1.14-1.41.27-2.69-1.48-1.68-1.21-2.83,1.55-.07,1.75-2.29-.27-2.49-.4-3.7.4-2.56-1-3-1.35-1.08-.67-1.55,1.68-1,.47-1.08-1.62.27-1.55-.67.61-.94-.47-1S219.75,351,219.21,351.45ZM220.62,326c-.19.15-.61-.54-.4.81s.87,2.49.27,2.83-2-.14-2.29.47,0,.4-1.21.81-1.75.14-2.15,1.08-.13.81-1,1-1.08.07-.87.74.54.87-.13,1.28-.34.34-.07.94-1.21.81-.54,1.75,1.82,1.55,1.41,2.35-1.61,1.28-.81,1.61,2.15.07,1.82.94-1.35.4-.67,1.21,1.82,1.28,1.48,1.62-1.62.4-.87,1.21,3.1.74,3.16,1.82.13,2,.81,1.68a5.67,5.67,0,0,0,2.15-3.63,3.81,3.81,0,0,1,.2-2.15,1.9,1.9,0,0,0,.27-1.82c-.27-1-1.14-.94-.2-1.61s1.75-.67,1.68-2.09-.74-1.82-.2-2.89.81-1.21.34-2-1.55-1.88-1.35-2.69.88-1.14.61-2S221.36,325.41,220.62,326Zm68,66.47c-1,.63-.94.2-1.48.81s-1.28.88-2.83.61-2-1.08-2.76,0-.2,1.68-1.61,2-6.19-.34-7.06.47-.87,2-2.22,1.48-1.61-2.22-2.89-2.22-1.14-2.22-2.35-1.55-1.35.27-2,1.48-.61,1.82-1.62,1.61-2.22-2.62-2.69-1.82a3.58,3.58,0,0,1-2.56,2c-1.35.2-.54.87-.47,2.35s-.47,2,.54,2.35-.07.4,1.41,1,2-.67,3.43.47.34,1.35,2.22,1.48,2.36.07,3.1,1.41a2.81,2.81,0,0,0,2.76,1.55c.67-.14.54,0,2.22.87s.94.07,3.23.74,4.17.88,4.57,2.29.47,2.09,1.48,2.29a29.45,29.45,0,0,0,3.3.4,10.92,10.92,0,0,1,2.29.4c.94.2,1.21.94,1.14-.13s-.74-2.22.07-2.62,2.49-.87,2-2-1.55-1.08-1.21-2,1-2-.2-2.22-2.83-1.28-1.82-3,1.61-1.75,1.35-2.69-.67-1.55.6-2.62,1.48-1.35,1.48-2.22a2.77,2.77,0,0,1,.47-1.75C290.93,393,290.72,391.14,288.64,392.49Zm-211-253c.27-.81.67-.13.27-.81s-1.08-.87.07-1.08,1.14,0,1.34-.74.88-.94,1.62-.74.94-.07,1.35.27.74-.94,1.21-.54.87.07,1.35.87.94,2.29,1,1.21-.87-1.68.07-1.75,1.28.81,1.48.07-.27-1.61.6-.94,1.48,1.08,1.62,1.55.2,1-.4,1.14-1.48,1.48-.74,1.28,1-1.28,1.88-.74.94.61,1.82.27,2.15-.74,2.49-.34a2,2,0,0,0,1.28.54c.4.07,1,.54.87,1s.4.87.47,1.35-.47.2.07.94,1.08.54.94,1.14-.54.67.07,1.35.94,1.14.47,1.41-2.49,0-2,.67,1.28.34,1.88.87,1.75,2.29,1.08,3.43-.4,1.68-1.21,2-1.14-.34-2.09.4-.4,1.21-1.62,1.61a6.87,6.87,0,0,1-1.82.4c-1.08.2-2-.67-2,.2s.61,1.28.4,2S90.44,160,91,161s1.41,1.61,1,2-.87.2-.81,1,.34,3.7-.14,4.58.27,1.82-.54,2.35-1.75,1.14-1.82,1.88a5.76,5.76,0,0,1-.74,2.22c-.4.74.61,1.48-.47,1.88s-1.08,1.48-1.41,1.35-1.68.13-1,.81,1.08,1.75.61,1.75-2.89.34-3.16-.6-.81-1.55-1.08-.87-.27,1-.67.67.13.2-1.21.07-4.37-1.41-4.71-.74.94,1.61-.47,1.82-2.42-.67-2.69-.2.61,1.08-1,1.28-1.82.88-2,.2-.6-1.68-.87-1.35.6.81-.27,1.21-.34,1.28-1.35,1.14-1.08.07-1.21.54-.67.2-1.21.07a1.68,1.68,0,0,0-1.28,0c-.67.2-2-.07-3.3.14s-1.41.88-1.82.07.74-.94-.87-.94-2.29.74-2.42.07-.4-.74.54-1,.74-.4,1.14-.74.4-.14.88-.27,1.68-.81.6-.81-.4.47-2,.27-3,.54-3.16.07-.2-.27.81-.74.34-.54,1.28-.54,2.35,0,1.88-.47-1.35-.6-3-.54-1.75.34-1.68-.34-1.08-.81-.54-1.55.81-1.35,1.41-1.35,1.88.34,2.08-.2,2,0,1-.54-2.42-.47-2.76-.81,0-.4-1.08-.4-1.48.74-1.08-.27.88-2.22,2-1.82.81,1.08,1.55,1,.47-.13,1.21.27.94.88,1.21.14-.2-1.21.27-1.82.61-.2,1.41-.81-.54-1,.87-1.08,2,.47,1.41-.07-3.16,0-2.76-.67.74-.14,1.68-1.08,1.48-.54,2-1.41.54-.47.74-1.21.07-.74,1.14-1.68.94-1.14,1.88-.94,1.48.94,1.68,0,1.08-1.68.14-1.68-1.21.07-2.49,0-2.15.13-2-.34-.54-.67-.27-1.08-.13-1.61-.54-1.14-1.41,1.35-1.41.54.61-1.62-.07-1.55-1.75.2-1.62-.4.88-.27.61-1-.81-1.08-.07-1.08,1.41-1,1.68-.54.67,1.14.81.47-1-2-.07-2.09,1.88.4,2.09.14a1.05,1.05,0,0,0-.34-1.68c-1-.61-2.22-.47-1.68-.81s1.61,0,1.08-.94-1.35-1.28-.47-2.22,1.68.07,1.88-.67,1.08-1.68,1.55-1.14,2.42.27,2.56,1.14.47,2.35,1.21,1.82,1-1.55,2-.87,1.88,1.55,2.35,1-.87-1.21-.07-1.28.54-1.28,2-1.08,2.49.2,2.49-.34-.81-1.21-.81-1.21-1.82-.27-1.82-.74-1.28.07-1.28-.61-.34-1.41.61-1.41,1.88.67,1.88.07.6-1.28.87-1.21S77.59,139.53,77.59,139.53ZM129.49,96.2s-1.08-1.17-1.7-.81-.27.81-1.17.63-.63-.54-2-.27-.9.45-2.33.36-1.52-.63-2.24-.36-.63,1-1.08.27.18-.81-.45-.72-1.17-.36-1.7-.54a3.49,3.49,0,0,1-1.17-1s.18-1.17-.54-.27S114.51,94.77,114,95s-.81-.27-.54.27.63.54.18,1.35-.09,1.17-.18,1.52-.72.27-1.08.18-1-.9-1,0,.36,1.88,0,2.06-.9-.54-.9.27.81,1,.81,1.7-.45,1.17-.81,1.17a2,2,0,0,1-1-.09c-.63-.18-.54-1.08-1.08-.45s-1.35-.54-1.62.9a6.21,6.21,0,0,1-.54,2.15c-.27.45-.18.09.36,1.08s-.45.09-.81.9-1.17,2.15-.63,2.24,1.43-.18,1.26.36-.81.18-.54,1.08.72,1.35.18,1.7-1.17.09-1.17.72-.54.72-1.08,1.26-1.08-.45-.63,1.08.9,1.88.09,1.88-2.15-.72-2.51-.36-1.17.45-1.08,1,.09.54-.18,1.35-.09.54.45,1.17c0,0,1.17.72.63.9s-.09.09-.54.54-1.79-.18-1.43.63,1.17.72,2.42.81,1.88.54,2.24.18,1.17-.72.9-1.43-.45-.72.45-1.17,1.52-.63,1.88-1.26,1.71-1.35,1.71-1.08-1.08.45-1.26,1.17-.63,1-.63,1.43.72.09-.36.9-1.34.45-1.43,1.43.36,1.17-.09,1.52-.54-.09-.63,1.08.63,1-.18,1.61-1.53.54-1.44,1.26.27,1.62,0,1.79-.9-.18-.27.18-1.26,2.24-1.17,2.78-.45,1.52-.45,2.24.36,2.15.72,1.88.09-.81.81-1.79.45-.72.81-2.15.54-1.88,1.17-2,1.26-2.51,1.79-1.08.36,2.42.9,2,1.88-1.26,1.61-.36-1.26.45-.54,1.61,1.79,1.7,1.35,2.51-1.7.72-1.7,1.79.09,1.17-.72,1.88-1.53-.09-1.61,1.08.09,1.88-.72,2-1.79-.54-1.26.54.09,2.78,1.17,2.69,1.35-2.42,2.06-1.08,1.26,2.51,2.15,2.42.45-2.33,1.26-1.79.81,2,2.06,1.7,2,.54,2.69-.36,1.79.09,2.33-.9,2.78-2,2.33-.81-1.88.9-1.88,2.06-1,1.62-1.26,2.78.45,1.61.18,2.42-.72,1.26-.27,2.06,1.17.36,1.08,1.52-.36,2.33.45,2.15,2.15-2.15,2.15-1.08a5.78,5.78,0,0,0,.09,2.24c.27.63.72.9-.09,1s-2-.36-1.88.72,1,1.79.63,2.24-1.35,1.43-1,2.15-.63.9-1,2.06-.45,2.87-1,2.15-1.44-2.06-2.24-1.52-2.15,1.17-2.42.54,0-1.17-.81-.72a2.88,2.88,0,0,1-2,.45c-.63-.09-1.35-.45-1.61.54s.18,1-1.17,1.7-3,1.26-3,1.79.36.63,1.35.45,3.14-.27,2.87.45.18.72.36,1.52.36.72-.18,1.26-.36.27-.27.9,1.52.72.45,1.35-1.43.81-1.26,1.52.72.09-.63,1-.54,1.79-2.33,1.7-2.33-.63-2.78,0-.45,1.26-1.53,1.35-1.79-.45-2.33.09-1.61,0-1.7.9,1.61,1.26,1.26,1.7-1.61,1.08-.72,1.43,1.88.09,1.79.54-.63,1.08.54.9,2.87-2.15,3.77-1.17.27,1.61,1.43,1.61,2.33.54,1.17.72-2.51.18-1.7.54.9,1.52,1.61,1.17,1.71-1.61,2.06-.72.18,1.88,1.26,2.24,1.08.09,1.79.81.72,1.35,1.71.72.9-1.35,1.7-1.26a4.34,4.34,0,0,0,2.6-.09c1-.45,2-1.43,1.44-.54s-2.87,1.35-2.87,1.88-1.88,1.17-1.7,2,0,1.08-1.26,1-2.78-1.52-3.59-1.17-1.17-.72-2.6-.36-2-.63-2.69.81-.54,1.79-1.52,1.7-1.71-1.17-2.06-.09-.18,2.33-.72,2.87-.18.9-1.43,1.26-1.79,0-1.88.63,0,.18-.81.72-1-.18-1.17.9.09,1.53-.9,1.79-2.24-.36-2.51.27-1.88-.09-2.06.72.54.63,1,1.17.27.81.9,1.26,2.06,1.7,2.33.45-.27-2.06.63-1.79,1.88,1,2.33,0,.45-2,1.53-1.44,2.06,1.35,3.14.54,1.35-1.44,1.88-.27,1.7,2.42,2.87,2.42,1.17.45,1.71-.54.63-.36,1.08-2,.45-2.6,1.08-2.33,4.57-1.8,5.38-.72,1.88,3.95,2.87,3.32.27-1.52,1.43-.9,3.14,1.79,3.23.81-.81-1.26.45-1.26,4.93.36,5.74-.18.45-1.08,1.43-.45a6.55,6.55,0,0,0,3.05,1.17c.63-.09,4.84.45,5.65.09a1.93,1.93,0,0,1,2.51.18c1.08.9,1.52,1.43,2.51,1s2.78-.36,3.41-1,.63-.63,1.08-.63,1.7.09,2-.81,2.15-.18,2.87-.9,1.35-.72,1-2.06.18-2.51-1.25-2.33-3.32.45-3.95.18-1.43,0-1.35-1,.72-.63,1.35-1.26,1.17-1,1-2.06-.81-1.88.45-1.88,1.35,1,2.15.45.45-.63.45-1.44a1,1,0,0,1,1.08-1.17c.63,0,3-.54,3-2s-.18-1.53.45-2.6,1.26-2,1.08-2.6.45-3.77-.81-4.49-2.51-2.06-4.13-2.06-2.78-1.26-3.77-1-1.08,1.61-2.24,1.88-2.51-.36-1.79-1.79,1.79-1.52,1.88-2.69a5.37,5.37,0,0,0-.63-3.23c-.63-1.26-1.52-1-1.7-2.42s-2.69-1.79-1.44-2.15,2.24,1.17,1.62-.9-1.79-2.06-1.35-3.68,1.08-1.88.63-2.69-1.52-1.61-1.52-2.78.27-1.62-.63-2.06-1.35-.63-2.6-1.35-2.33-.45-2.33-1.44a28.12,28.12,0,0,0-.72-5c-.36-1.35-.72-.63-.54-2.15s.9-1.43.09-3-1.26-1.17-1-2.69,1.08-1.35,0-2.15-2.24-1.26-2.42-2.87-.9-2.15-1.26-2.24-2.87-2.6-3.59-2.24-.45,1.71-1.79,1.26-3.5.09-2.51-1.08,1.26-1.88,2.78-1.88,2.33,1.08,2.51-.36-1.08-.72-.63-2.06.45-2.33,1.7-2.6,1.61,0,1.88-1.7-.09-1.53,1.08-2.06,1.88-.54,2.24-2.33a6,6,0,0,1,2.06-3.77c1.08-.9,1.62-.72,1.62-2s-.09-2.6-1.08-3-.45.18-2.51-.36-3.23-1.17-4.22-1-.36,1.08-1.71.09-1.08-1.43-2.06-1a3.4,3.4,0,0,1-2.51.54,8.4,8.4,0,0,0-3.32.63c-.72.18-.9.45.45-1s2.51-1.71,1.79-2.15-1.7.09-1-1.17.09-.54,1.44-1.53,1.61-.54,2.87-1.61.45-.27,2.06-1.35,3.14-1.35,2.6-2.42S130,96.92,129.49,96.2ZM420.1,368.9l-.12,0c-.94.27-.81.63-1.71.76a4.7,4.7,0,0,1-1.52,0s-.76-.4-.81.27-.31.76-.54.13.22-2.06-.27-2.11-1.79-1.21-2.06-1.39-1.7-.67-1.61.18.63,1.35.76,2.06,0,1.12.54,1.08,1.39-.72,1.17,0-.36,1.57-.76,1.61-.94-.72-1.21.13-.67,1,0,1.17.81-.58,1.35-.13.09.54.81.63,1.21-.13,1.39.31.36,1,.58.4-.09-1.66.45-1.61,1.17-.63,1.48.31.54,1.75.94,1.52a5.72,5.72,0,0,1,1.16-.42m0-33.27a1.63,1.63,0,0,1-.45.05c-1.3,0-1.57.58-2.65-.22s-.81-1.48-1.84-1.21-1.3-.09-1.79.54,1,1.08-.58,1.21-1.84-.54-2.47.4a8.43,8.43,0,0,0-.94,1.61c-.31.67-.13.4-.94,1.26s-1.26,1-1.26,1.61.54,1-.27,1.61-1.88.31-1.79,1.3a16.79,16.79,0,0,0,.72,3c.27.94.36,1.21,0,1.93s-.81,1.12-.31,1.75.31.76,1.3.63a5.46,5.46,0,0,0,2.87-1.26,4.08,4.08,0,0,1,1.75-1,14.7,14.7,0,0,1,2-.94c.63-.13,1.66-1.17,1.48,0s.22,2-.76,2.65-2.24,1-1.79,1.66,1,.18,1.3.76-.22.9.67,1,1.66-.18,1.48.54-1.26,1.12-.27,1.75.9.76,1.52.67a2.18,2.18,0,0,1,1,0,1.12,1.12,0,0,1-.4.85c-.4.27-.63-.49-.4.27l.22.76s.13-.09-.54.27-1.17.22-1.3.72-.63,1,.14,1.53.54.13,1.17.54.9,1,1.26,1.3.4.31,1.08.09a3.71,3.71,0,0,1,.89-.17m0-31.58c-.35,0-.58.1-.42.58a1,1,0,0,0,.42.54M318.25,0a1.33,1.33,0,0,0,.42.31c1.26.63,1.71,1.08,1.26,1.43s1,1.53.18,1.71-3-.63-3.14.18-.9,2-1.17,3.14-1.17.54-1.17,1.88-.63,1.79-.63,2.69-1.52,2.42-1.52,3.5a2.66,2.66,0,0,1-1.35,2.51c-.81.27-1,.9-1,1.79a2.05,2.05,0,0,1-1.44,2.06c-1.08.45-1,.9-.9,1.7s-1,0-1.34,1,.09,1.26-.81,2.06-1.62,1.26-1.17,2,1.26,1.88.18,2.06-1.7-.09-1.88.45-.45,1.17-1,.54-1-1.53-1-.63a9,9,0,0,0,.45,2.78c.27.72-.18.63-.63,1.43a2.51,2.51,0,0,0-.54,1.62c-.09,1-1.26.9-1.17,2.06s-.54,1.7.18,2.51-.45,1.88.72,2.42,1.61.9,1.79,2.06-.54,4.48.18,4.48,2,.54,2,1.7-.36,2.15.27,2.6,1.26,1.26,1,1.7a1.94,1.94,0,0,0-.09,2.24c.63,1.08,1,1.35.27,2.06s-1,1.08-.72,1.88a6.86,6.86,0,0,1,.36,2.42c0,1-.36,1,.36,2.15s.45,1.17.72,2.24-.9,1.08.27,1.08a10.6,10.6,0,0,1,3.32.27c1.26.36,1.17-.54,2,.81s.9,2.24,1.43,1.7,2.36-.56,2.29.11-2,1.82-1.35,2.42,1.21,1.34,2.15.94,1.68-.74,2.49-.14,1.28,1.08,2,.54.74-.67,1.68-.67,1.41.67,2-.4,1-1.48,2-1.48,2.49.27,2.69-.67-.4-1.48,1.08-1.61,1.62.2,2.22-.74.74-2.29,2-2.29,1.48.67,2.15-.07,2.09-1,2-1.41-.94-1.28.61-1.41,2.56-.2,2.69-.87,3.16-.27,3.57-1.75.27-1.82,1.48-1.48.74,1.14,1.75.34,2.15-.54,2.89-1.41.34-.81,1.55-.87.81-2.42,2-1.88,1.55.87,1.21,1.88-.4,1.68.94,1.82,1.28.2,2,.94-.2,1.34,1.41.87,1.88-1.55,2.89-1.14,2.42-1,2.89.13.54,1.61,1.14,1.48,1.55-.74,1.75-.13.2,2.09-1.21,2.09-6.79-.61-6.79.07,0,3.7-1.14,3.63-2.76-1-2.83,0,.81,2.69-.27,2.15-2.29-2.35-2.08-.4,2.22,3.77.47,4.24-3.83,1.88-5.58,1.61-2.56-1-4-.81-1.68.88-3.5.61-1.82-.47-2.15.07-1.21-.87-1.28-.27-1.28-.2-1.14.74S338,78.91,337,79s-1.41-.34-1.82.34-.4,1.08-1.41.61-1.75-.27-2.09.27-.47,1-1.08,1-.81-.27-1.35.47-.27,1.14-1.08,1.28-.6.27-.74.74-.34.47-.94.61-.67.34-1.08.81-.67.34-1,.67-.27.07-.2,1-1,1.41-.2,1.88,1.82.34,1.14,1.21-.67,1.08-.27,1.41,3.36.13,2.35.61-1.68-.14-1.48,1.21.67,1.14.67,1.88-.61.81.74,1.35,1,.67,1.62,1.41,1.48,1.28,2,.87,1.08-.2,1.48-1.14.67-2,1.41-.81.34,1.75.34,2.56-.74,2-.34,3.16a5.28,5.28,0,0,1,.6,2.36c-.07.81-.47,1,.07,1.82a7.58,7.58,0,0,1,1.28,3.1c0,.81,1.21,2,.67,2.62S334,114.1,333.92,115s-.47,2.15-1.48,2-2-1.08-2.69-.81-1.48,1.08-1.75-.2-1.55-3.57-2.35-3.63a4.05,4.05,0,0,1-2.69-2c-.74-1.21-1.08-3-2-2.49s-1.28,1.41-2.56,1.88-2.83.4-3.1,1.61a8.59,8.59,0,0,1-1.28,3.36,1.85,1.85,0,0,0-.4,2.42c.54,1.28.74,3,0,3.57s-1.82,1-1.61,2.15.6,2.42.27,3.09a5.9,5.9,0,0,0,0,3.9,6.07,6.07,0,0,1,.81,2.76c-.07.74-.34,3.36.61,4s1.61,1.55,1.55,2.22-.81,1.21.13,1.82.34.6,1.08,2,1.61,2.89.87,3.16-.87,1.28-.54,2.22,1.08,2-.74,1.88-3.5-.74-4-.47-3-.47-3.43.54-1,2.22-.67,2.69,2.49.81,2,1.61-2.56,3.09-2.56,3.09l-2.22,2s-.47,1.75-1.48.94-1.41-1.14-2-.81-1.55,1.35-2.22.88-2.42-.81-2.56-2-.47-2.42-.94-2.42.07-1.75-1-1.82-3.3-.54-4.44.2a14.66,14.66,0,0,1-4.57,1.88c-.81,0-1.48.74-2,1.35s-3.57,1.82-4.57,2-1.55,2.62-1.55,2.62-4.84,3.23-6.32,3.43-2.42-.07-3.23.81a7.47,7.47,0,0,1-3.1,1.88c-.61.07-1.61,2.42-3,1.41a29.4,29.4,0,0,1-3-2c-.94-.87-.54-1.61-1.48-1s-1.55,1.61-2.42.74a6.42,6.42,0,0,1-1-1.14l-2-1.48s-.13-1.48-1.14-1.41-.81-.27-2.29-.07-1.08-.4-1.68-.27-.47.13-1.08,1.08-.34,2.09-1.62,2.29-1.68-.2-2.29.47a2.65,2.65,0,0,1-1.82,1,1.67,1.67,0,0,0-1.41,1.14c-.2.61-.27,2.62-1.61,1.88s-.54-1-2.09-.94-3.23.61-2.36-.4,3-2.49,2.83-3.36-.81-.87-.6-1.35-1.21-.67-1.75-.2-1.21,1.14-1.75.47-.87-1.08-1.41-1-1-.74-1.61-.27-.14-1-1.21-1-1.08.07-1.08-1.21.14-2.42-.4-2.69-2.56.2-2.49-.87,1.21-.4.61-1.55-3-2-2-2.62,1.68,0,1.55-1.41-1.41-1.82-.67-2.89,1.41-1.35,1.21-2.15-1.41-1.35-.27-1.41,2.15.94,2.36-.2-1-1.35-.27-2,1.61,1.35,2-.2,0-4.1.2-4.51.87-1.55,1.35-.6,1.14,1.61,1.62.87,1.35-.74,1.88-1.88,1.35-2.83.27-3.23-2.15.07-3,0-.67-.74-1.14-1,1-2.42-.07-2.76-.94-2.76-.67-2.83.67-.74.67-1.48,1.28-1.35,1.28-2,.54-1.75.07-2.69-1.48-.67-.67-2.08.4-2.15-.47-1.75A26.13,26.13,0,0,1,225.6,119c-.87.2-2,2.56-2.22,3.43s-.67,1.88-1.41,2-.27.87-1.82.67-1.75-.61-2.56,0-.94.27-2.09.61-2.49.94-2.56,2.08-.87,1.68-.34,2.42,0,2,1.08,1.08.81-1.55,1.41-2,0-1.14,1.35-1.61,1.88-1.55,2.83-.87.4.81.54,1.75-.47,1.14-.4,1.82-1-.87-1.35-.27a9.77,9.77,0,0,0-1.28,2.15c-.54,1.35.34,3-.81,2.42s-1.14-1-2-1.14-1.62-2.08-2.09-1.35-.4,3-.54,3.63a10.58,10.58,0,0,0,.07,2.89c.13.81.4,1.48.13,1.82s1.55,1.08,1.08,1.68-1.14.34-1,1.88-.74,1-.13,2.42,1.14,1.21,1.35,2,1.28-.07,1.68,1.35a14.66,14.66,0,0,1,.67,4.84,4.45,4.45,0,0,0,0,2.49c.27,1.28,1.28,2.09,1.21,2.89s.13,1.68.61,1.88,1.14,1.41.54,1.75-2.89-.14-2.76.81.27,1.55,1.14,1.55.4.4.54,1.08,2,1,1.35,1.55-1.68.94-.81,2,2.56,1.88,1.14,1.82-3.09-1.41-3.5-.87a4.53,4.53,0,0,0-1,3.23c.27,1.28,1.35,2.35.27,1.75s-2.15-2.09-2.22-1.14,1.55,2.56.47,2.49-2.69-.67-2-1.14,1.35-.2.54-.87-1.14-.81-1.14-1.55,1.21-1-.61-.87-4.17-.34-4.84.34-1.68-.07-1.88,1.08-.2.27-.4,1.61-.67,2,0,2.22,2.35.94,1.14,1.08-1.82.47-2.29-.4.67-2.22-1.28-2.22a6.44,6.44,0,0,0-3.23.47c-.67.34-1.35.94-2.42.34s-1.68-1.14-2.76-.2-3.36,1.68-3.63,2.69a1.5,1.5,0,0,0-.22.87c0,.58.4.54-.09.81s-.72.4-.27.85.76.67.54,1.21-.45.72-.13,1,1.79.54,1.61,1,.31,1.61-.13,1.84-.85,1.12-1.35.36-.76-.4-1.26-1.17-1,0-1-.9-.18-1.88-.45-1.88.45-1.17-.76-.72-1.26.72-1.57.31-.94-.9-1.12,0,.09,1.48-.31,2a1.54,1.54,0,0,0-.4,1.57,3.42,3.42,0,0,1-.54,2.74c-.63.67-.72.36-.76,1.17s.67.58-.4,1.35-.72.81-1.57,1.39-1.17.76-1.12,1.35.18.81-.4.9-1.08.09-1,.49.49,1.21,0,1.52-1.35,0-1.35.54,1.08,1,.45,1.21-1.21-1.12-1.84-.27,0,.9-.4,1.39-.09.58-1,.81-2,.09-1.71.94,1.26,1.21-.09,1.48a9.05,9.05,0,0,0-2.78,1,13.07,13.07,0,0,1-4.08,1.84c-1.88.36-1.93,1.08-3.14,1.17a24.51,24.51,0,0,1-2.56.22c-1.21,0-2.74.09-3.27.72s-1.57.81-1.57,2a5.57,5.57,0,0,1-.31,2.38c-.31.94-.58.81-.31,1.75s.36.85,0,1.39-.31.36-.09,1,0,1.3.13,1.66,1.26.13.18.36-2.11-.27-2.2.54a2.24,2.24,0,0,1-1.44,1.7,14.06,14.06,0,0,1-4.13,1.26,5.82,5.82,0,0,0-2.47.45c-.58.22-1.75.45-2.6.81s-1.66.76-1.7,1.26-.9,1.61-.45,1.93,1.62.94,1.17,1.12-1.52,1.61-2.42,1.48-1.57.72-2.83-.13a6.22,6.22,0,0,0-3.54-1.3c-1.57-.13-1-.36-1.88-.76s-.72-.31-1.62-.18-.94.45-.94-.23-1.3-1.43-.67-2.2,1-.18.81-1.21.09-1.66-.94-1.44-1.35.81-2.11.67-.76,0-1.39-.58-1.75-1.35-1.88-.85.81,1.3.54,1.7a1.3,1.3,0,0,0-.13,1.52c.36.72-.09,1.66.4,2.06s.9.54.81,1.21.13.9.31,1.52a4.15,4.15,0,0,1,0,2.33,3.81,3.81,0,0,0-.27,2c.13.58-.67.9-.27,1.79s1.75,1.39,1.12,1.57a3.29,3.29,0,0,1-2.2.18c-.81-.31-.85.54-1.52-.31s-.63-1.35-1.12-1.08,0,1-.81.76-1.26.63-1.75,0,.18-1.35-.81-1.26-2,.13-2.42.63-.27,1.61-.9,1.12-.94-.49-1.21-1.43,0-1-.63-1.39-.49.4-.76-.54-.27-1.84-.63-1.61.36-.45-.58-.49-2.11.76-2.69.22-1.12-.72-1.48-.18-.27,2-.72,1.66-1.39-1.21-2-.85-1.12,1-1.21.45.22-1.26-.58-1.08a13,13,0,0,1-3.68.49,3.52,3.52,0,0,0-2.38.63c-.4.27-1.35.27-1.44.85s-1,1.52-.22,1.88,1.66.27,2.33.54.72.49.13.81-.85.85-.31,1.08,1.79.4,1.66.85.13,1.39-.76,1.21-3.41-.67-3.14,0,1.61.45,2,1.39-.09,1.88.58,2.42,1.21,1.17,1.57.45.81-1.35,1.12-.81,1,.76,1.88,1.35,2.6.49,3.05,1.44.54,1.39.94,1,0-.54.85.13.49.22,1.08,1.35.45,1.53,1.3,1.12,1.26-.45,1.43.27.13,1.08.94,1.08,2.87,0,2.6.54-1.08.72-.58,1.48,1.17,1.21.54,1.35.4.63.9.76,1.88.13,1.61.63a2.81,2.81,0,0,1-.81,1c-.18.09.22.63.81.9s.9,1.35.45,1.7-.81-.13-.94.67-.58,1.39.27,2a4.58,4.58,0,0,1,1.84,2.42,2.81,2.81,0,0,0,.76,2c.63.63,1.35,1,1.57,1.3a2.26,2.26,0,0,0,1.08,1.17c.94.58,1.61.94,1.61,1.3s.67-.58.9-.13-.27,1.08-.13,1.52a6.37,6.37,0,0,1,.49,2.47c-.18.58-.4,1-.58,1.52s.31.81-.18.94-.13-1.17-.72-.9-.31,1.53-.49,1.75-1.21.54-.36,1.17,1.66.58,2,1.35,1.62,1.21,1.79,2,.63,2.65.22,2.47-.81-1-1.35-1.79-1-1.88-1.44-1.61a3.66,3.66,0,0,0-.94,1.61c-.27.67-.09,3.18-.72,3.81a3.25,3.25,0,0,0-1,2.2c0,.76.45,1.39-.09,2.29s-.31,1.39.13,1.52,1.35,1.12.4,1.21-2.06.23-1.75,1.39a5.37,5.37,0,0,1-.54,3.45,4.1,4.1,0,0,0-.81,1.84c-.13.81,0,1.44-.49,2a4.32,4.32,0,0,0-.9,2c-.09.67-.09,1.39-.49,1.7s-.58,1.75-1.57,2.47-1.57.94-1.71,1.3-2.06-.14-2.24.36-3.5.81-4.22.36a16.76,16.76,0,0,0-2.24-1.48c-.22,0-.09.9-1.08-.22a3.12,3.12,0,0,0-3.27-.9c-.72.31-1.12.81-2,.27s-2.69-1.53-3-1.39-.13-1.08-1.43-1.12-2,.45-2.24.09a1.18,1.18,0,0,0-1.43-.31,3.32,3.32,0,0,1-3,.27c-1.66-.54-4.08-.63-4.93-1.26s-3.95-.94-4.31-1.57-.72-1.48-1.66-1.39,0,.23-1.35-.22-1.21.31-2.15-.94-.36-2-1.3-1.7-1.12.9-2.15.63-3.05-.27-4.44-.58a27.08,27.08,0,0,0-3.14-.81c-.49,0-2.78-.94-2.83-.67s-1.3.45-1.88-.63-.94-2.6-1.57-2.6-2-.94-2.38-.58-.94.72-1.52.36.31-.94-.67-.9-2.15,1.17-3.14,1.26-2.6.27-2.15.9,1.3.85.94,1.17.67,1.3-.31,1.17-2.24-.63-2.65-.45-.18.49-1.3.22-2.29-1.08-2.69-.81.22.9-.76.94-3.23-.09-3.23.67-1.44,1-1.08,1.84.94.45.76,1.7-.45,2,.45,2.11,2.15.27,1.12.67-1.66,1.3-1.21,1.84,1.44-.22,1.66.09,0,1.35-.13,1.66-1.17,0-1.17.58,1.75.9,1.61,1.21-2,1.44-1.52,1.66,1.17.45.63.85-2.33,2.83-1.84,3.41-.9,1.35-.63,2.33a10.88,10.88,0,0,1-.22,4.17,7.45,7.45,0,0,0,0,3.14c.18.76-.31,2.47-.18,3.23a5.37,5.37,0,0,1-.81,2.51c-.27.58-.9,1.52-.63,2s-.13.81-.4,1a10,10,0,0,0-1.7,2.65c-.13.63-1.7,2-1.7,2.6s.72.94-.13,1.79-1.21,2.65-2.24,3.72a17,17,0,0,0-2.69,3.54c-.18.58-1.08.67-1.17,1.17s-1.17.27-1.21.54-1.08.27-1.17,1.48.09,1.39-.63,2.15-.9,1-.85,1.57-.94,1.84-1.26,2.11-1.12,1.3-.31,1.7,2.11.76,2,1.66-1.21,2.15-.31,2.56,3.86-.63,3.9.31.81,3-.18,4.35-2,2.82-1.48,3.59a1.88,1.88,0,0,1,.27,1.57s-.94.94-.63,1.48,0,.9-.36,1.43a3.19,3.19,0,0,0-.27,2,3.49,3.49,0,0,1-1.17,2,8.54,8.54,0,0,0-1,1.39c-.36.54-2.2,2.2-1.3,2.6s3.9-.49,4.66.18,2.65.76,3.77,1.48,1.39,1.57,2.82,2.11a2.66,2.66,0,0,0,2.56-.45s3.14-1.52,3.68-1,1.79.09,2.74.4,1.66.85,2.65.67.81-.45,1.35.67,2.56,1.52,2.83,2.38.09,1.26.54,2.06.67,1.88.9,1.93,1,.13.13.45-2.65,0-1.57,1.17,2.56,2.24,2.2,2.65-1,0-.63.76a9.19,9.19,0,0,1,1.21,2.69c.13.94-.18,1.66.72,1.93s1.62.31,1.88,1.08.9,1.88,1.7,2.11,1.39.9,2.33.18,1.08-1.88,1.52-1.57.63.27,1.17-.67a4.76,4.76,0,0,1,3.27-2.42c1.44-.09,1.66-.94,2.92-.36s1.12,1.26,1.88.49,1.43-.31,2-1a5.17,5.17,0,0,1,3.41-1.08c1,.09,1.66-.09,2.2,0s.27.63,1.12.58,1.79-.85,2.24-.36a5.4,5.4,0,0,0,2.69,1.17,4.83,4.83,0,0,1,1.66.36c.18.09.4,0,1.75,0s.76-.22,1.75.27,2,1.17,2.51,1,1.3.67,1.93.36,1.57-1.71,2.15-1.53,2.78-.31,3,.72.4,1.7.85,1.57,1.75-.27,1.84-.72-.31-1.25,1.21-1.43,1.3-.27,1.3-.9,1.17-2.2,1.26-3a3.19,3.19,0,0,1,1.66-2c.58-.23,2-.18,2.29-.81s2.2-2.33,2.78-1.93.81.9,1.53.49,1.17-.63,1.62-.27a2.41,2.41,0,0,0,1.66.4c.36-.09,1.93,0,1.79-.67s-1.66-1.17-1.21-1.7,1.3-.76,1.21-1.26.76-1,1-1.93.23-.22.4-1.12.81-1.75,1.48-1.61.94.4.85-.54,1-2.65,1.66-2.56,1.93-.49,2-1.08,1.26-1.12,2.24-1.12,2.24-.63,2.24-1.17,1.71-.67.27-1.52-2.74-1.17-2.69-2.11,0-1.17-.45-1.57-.63-1.61-.63-2.65-1.26-1.84-.54-3.32,2.15-3,2.15-3.54,3.14-3.68,3.81-4.89,1.7-3,2.51-3.14,2.56-3.23,3.1-3.27,1.26.22,1.93-.4,1.84-1,1.43-1.79-.63-2.47,0-2.69,4.08-2.65,4.89-2.29,3.14.36,3.77-.22,2-.58,3.18-.67a22.21,22.21,0,0,0,3.18-.63s0,.36.27-.22,3.41-3.14,4.22-3.23.23.9,1.79-.27,3.32-.63,4.13-1.93,2.11-1.52,2.15-2.6-1.12-2.47-.72-3.32,2.06-.54,1.79-1.48-1.17-1.12-1.08-2.24-1.43-.49-1.17-2.47,1.08-1.84.49-2.87-1.08-1.35-.18-2.56a6.57,6.57,0,0,1,2.87-2.65,8.25,8.25,0,0,0,2.42-1.43c1.08-.81,2.6-1.66,3.05-1.53s2.33-2.6,3.14-1.79.45,1.35,1.35,1.43,2-1.08,2.29,0a2.22,2.22,0,0,0,2,1.75c.94,0,3-.76,3.77,0s2.89-.47,3.7,1.14,1.35,2,2.62,2.08,2.29,1.41,3.5,1.68a4.82,4.82,0,0,0,3.23,0c1.48-.47,2.56.47,3.36-.67s1.35-1.14,1.68-2.22a6.45,6.45,0,0,1,2.22-2.82c1.14-1,1.75-2.49,3.3-2.42s.81.61,2.29-.4,3.16-.87,4.71-1.68,2.08-.2,2.49-1.28a6.34,6.34,0,0,1,1.14-2.09c.67-.94,1.55-.13,2-1.28s0-1.68,1.14-2.15,1.68-2,2.89-1.28,1.68.47,3,1.28,2-.13,2.56.94a4.1,4.1,0,0,0,2.89,2.42c1.55.27,2.15-.6,3.36.47a5.8,5.8,0,0,1,2.22,3.57c.27,1.55-.47,1.82.88,3.9s2.62,2.15,2.56,3.77-1.35,3-.27,4,3.16.81,3.1,1.82.13,1,1.14,2,2.69,1.48,2.89,2.62-1.48,1.28-.54,1.88.94-.4,2.49.2,3.1.61,3.7,2.35.2,2,1.14,2.36,4.17,1.41,4.37,2.62.07,2,.88,2.29,3.3,2.09,3.5,2.83.47.74,1.41.94a8.85,8.85,0,0,1,3.57,2.56c.34.67.67.34,1.41-.07s1.55-1.28,2.89-.54,1.48.94,2,.6.94-1.08,1.82,0a21.13,21.13,0,0,1,2.69,3.5c.54,1.14.27,1.75,1.14,1.82s1.82-.67,2.56.2a4.27,4.27,0,0,1,.94,2.22c.14.61.27.74,1.08.54s3-1.41,3.43-.74,2.22,2.49,2.09,3.43-.81,1.28.13,2,2.42,1.35,3.36,2.22.61,1.55,1.68.81,1.08-1.68,2.15-.74,1.75.88,2,2.89.74,3,1.21,3.36a6.22,6.22,0,0,1,1.75,2.62c.67,1.61,0,1.08.81,3s1,1.75,1.61,3.16,1.14,3,.34,3.36-3-.54-2.76,1.14.81,1.68.27,2.83-.2,2.15-1.14,2.89-2,0-1.61,1.14.67,1.75.47,2.22-.54,1,.54,1.28,2.56.94,3.57.27,1.35-.94,1.35-2-.4-.34.74-1.88,1.28-2.62,2.29-2.56,1.75,0,1.55-1.21-1.82-3.9-.74-5.11.47-2.35,2.15-2.35,2.83.87,3.43-.14,1-1.08.4-2.56-.07-1.68-.47-2.49,0-2.62-1-2.69-1.14-.94-2.35-1.08-.94-1.35-2.42-1.28-2.69,0-2.15-2,1.41-1.75,1.14-2.83-.94-2.15.2-2.83,1.35-2.08,1.55-3.23,2.69-3.43,3.77-2.36.54,1.62,2,2,2-.27,3.83.13,2.89.67,3,1.68.27.61.74,1.28-.47,1.61.67,2.29,2.49,1.55,3.3,1.08.67-.74.94-2,1.68-2,.6-2.89-1.68-3-3.36-3.43-1.28.07-1.88-1.41-.07-1.82-1.41-1.88-2.35-1.75-3.5-1.55-1.55.27-3.09-1.08a9.38,9.38,0,0,0-5.11-2.62,16.71,16.71,0,0,1-6.05-1.61c-1.28-.81-4.64-1.21-5.11-2.08s-2.22-1.14-.74-1.75,3-2.22,2.62-3.57-.67-2.29-2-1.88a13.11,13.11,0,0,1-4.24.81,6.16,6.16,0,0,0-3,.2c-.94.4-1,.94-2.22.27s-1.61-2.22-2.83-2.08-2,.34-2.09-.67-2.09-.94-4.31-3.36-4.24-4.91-4.91-7.67-.54-3-1.75-5.38-.67-3.63-1.88-3.7a6,6,0,0,1-4.71-2.29c-1.88-2.09-3.36-3.16-4-3.1s-3.09-.61-3.77-2.09-1.35-1.75-1.35-4.17-1.88-4.78-.2-4.91,1.68.07,1.82-.54.88-.13.4-1.61-1-1.21-1.55-2-1.82-1.35-1.35-2.35.34-3,1.55-3.16,1.41.07,2.15-.54,2-.67,2.49-1.48,2,0,2.22-.81-.2-2.15,1.08-1.88.87,1.68,2.15,1,1.88-1.61,2.56-.94,1.55,1.88.61,2.35-1.82.27-1.88,1.08-.87,1.88-.07,2.42.81,2,1.21,2.56-.81.34.13,1.35,1.61,1.21,1.88,2.49.27,1.88,1.08,1.48a2.35,2.35,0,0,0,1.21-2.15c0-.87,1.41-.34,1.41-1.28a2.51,2.51,0,0,1,.2-1.41,11,11,0,0,0,.6-2.22c.07-.74.67-2.22,1.35-1.35s1.55,1.35,1.28,2.09.14,1.14.88,1.28,2.83.14,2.89,1-.94,1-.34,2.69,1.08,1.88,1.28,2.89.74,1.35,1.82,1.88,1.88,1.08,1.75,1.61-.94.81-.74,1.68-.74,1.21.81,2.22,2.76,1.88,3,2.42a1.92,1.92,0,0,0,1.68,1.14c.87.07,2.62.67,2.62,1.21s-.13,2.56,1,2.69a3.13,3.13,0,0,0,2.49-.4c.87-.54,1.75-1.08,2.69-.47s.87,1.68,1.88,1.55a3.3,3.3,0,0,1,2.69.4c.67.61,1.55,1.75,2.08,1.88a8.34,8.34,0,0,1,2.36,1.35c.07.2,2.69,1.28,2.62,2a1.31,1.31,0,0,0,.94,1.48c.74.27,3,.34,3.23.94s1.08.94,2.49,1.48a6.15,6.15,0,0,1,2.56,1.35,2.81,2.81,0,0,0,1.88,1.14c.74,0,1.61-.14,1.82.67s-.27,1.08.87,1.21,1.68.2,2.29,1.28,2.29,1.82,2.49,2.49,1.35.81,2.22,1.14,2.69.34,2.69,1,1.55,2.35.67,2.56-1.08.34-1,1.08-.67,1.41-.2,2.15,1.35.14,1,1.61-.47,1.21-.2,2.22.88,1.48.54,2.42-.87.61-.74,1.68.54,1.68.27,2.42a1,1,0,0,0,.34,1.35c.4.4,1.08,2.29.74,2.56s-2,.34-.67,1.41,3.16,1.14,4.1,2.22,2.62,1.55,2.76,2.36-.4,1.21.61,2.29,2.49.47,2.42,1.68-.34,2.56,1,3,2.49.47,2.89,1.41.07,1,1.28,1.28,1.21.07,1.68,1.08.88,1.75,1.14,1.21-.74-1.75.27-1.48,1.21.87,1.88.74,2.15-1.14,2.29-.27.81,2-.27,1.82-1.08-.67-1.82-.4-1.68-.47-1.75.14-.4,1-.27,1.48-.6.74.27,1,.88-.67,1.55.27,1,.88,1.48,1.82a14.38,14.38,0,0,0,.94,1.82c.4.61.4,1.61,1.14,1.61s1.61-.2,1.75-.87.88-1.48,1.35-.67-.07,1,1.08,1.14,1.35.34,2.15-.47,1.41-1.08,1.68-1,1.14.74,1.62.07a1.51,1.51,0,0,1,1.82-.81c.94.2,1.08.74,1.82.2s.54-1.61,1.41-1,.94,1.41,1.68,1.21,2.22-1.28,2.83-.54,2.76.67,3.7,1.08,1.55,1.21.67,1.41-3.1.07-2.83.74.88,1.35.27,1.41-4.84-1.82-5.85-1.55a4.58,4.58,0,0,1-3.36-.2c-1.48-.61-3.9-1.41-4.24-.61s.61,2-.94,2.29-3.09-.81-3.23.34.14,1.28-.47,1.82a5.9,5.9,0,0,0-1.48,1.75c0,.27-1.35.47-.67,1s1.68.27,2.15,1.21a2.59,2.59,0,0,0,1.88,1.68,4.15,4.15,0,0,1,2.22,1.14c.54.54,1.68,1.21,1.68,1.82a3.36,3.36,0,0,1-.34,2.29c-.61,1.08-1.14,1.48-.27,2.09s1.21.74,1.21,1.48.34.81.61,1.21-.61.94.4,1,1.08.67,1.75.4.47-1.21.34-1.88,0-2.09,1.08-1.88.87.74,1.41,1.14,2.42.67,2.42,1.48-.27,1.48.27,1.82.47.07.67,1.14,1,1.82,1.21,1.48,0-1.21.2-1.82.74-1.62.54-2.22-.47-1.08.61-1.08,2.62-.6,2.62.47,0,1.41.61,1.41.87.27,1.14.87.61.81,1,.74,1.08.94,1.48.47-.07-1.68-.54-1.75-.94.07-.94-.67.4-.54,0-.74-.47-1.1-.16-1.23.31-.81.13-.94-1.08-2.06-1.48-2.11-.58-.85-.94-1.17-1.25-3.36-1.84-3.36-1-.13-1.26-1.08-1.3-2.29-.54-2.15,1,.76,1.57.49,2-.63,2.11-.22,1.21-.22,1,.72-.31,2,.36,2,.76-1.66,1.75-1.93,3-.54,2.6-.94-1.39-.13-1.61-1.12a9.08,9.08,0,0,0-.54-1.66s-.94-.23-.85.85.36,1.48-.13,1.08-1.12-1.3-1.3-1.26-.45.63-.36-.4.22-1.08-.09-1.08,0-1.3-.4-1.3-2.06.54-2-.09,1.44-.85,1.66-1.08.81-1.43,1.43-1.26,1.48-1.12,1.61-.76a1.17,1.17,0,0,0,1.3.67c.58-.18,1.66-.49,1.79.13a1.15,1.15,0,0,0,1,1.08c.67.13,1.61-.31,1.84.58s.94,1.39,1.35,1.26A1.34,1.34,0,0,0,389,385c-.45-.81-.81-.81-1.17-1.61a4.68,4.68,0,0,1-.63-2.33c.09-.76.76-1.75.31-1.93s-.81-1.12-1.93-1.08-2.2.63-2.6,0-.54-1.79-1.57-1.79-1.88-.27-2.33,0-1.08.67-1.08-.45.31-1.84-.54-1.79-.63.14-1.39.45-.67.85-.94.13,0-1.3-.67-1.21-1.35.27-1.7,0a2.75,2.75,0,0,0-1.7-.49c-.67.09-1.52.58-1.88.13s-1.17-1.52.27-1.26,2,.63,2.51,0,1.61-2.06,1.48-2.47-.49-1.39-1.3-1.57-1.7.4-1.21-.63.31-2,.81-1.75,1.57-.9,2.2,0,.49,1.21,1.17,1.44,1.26,1,1.35,0,0-2.38-1.12-2.74-1.66-1.35-2.06-1.39-2,0-2.06-.63-.49-2.42-.81-2.42-1.79-2.24-2.2-2.24-1.88-.49-1.88-1.3-.13-1.93-.49-1.93-.49-.72-.27-1.62.76-1.21.09-1.93-1.39-.54-.58-1.12.76-2.11,2.06-2.06,2.15-.09,1.52.63-1.43.85-.45,1.43.85.09,1.57.85.63.85,1.53.85,1.25-.18,1.66.36.81-.63,1.08.67-.31,1.48.9,2.15,1,1.43,2.2,1.08,1.57-.27,1.3-.81,0-.58-1.35-.81-1.61.22-1.88-.54-.58,0-.67-1.35-1.79-1.7.22-1.48,2.24-.09,2.6.49.81.49,1.39,1.61a3.18,3.18,0,0,0,1.12,1.39l1.53.49s1,.45.85-.67.14-.85-.36-1.39-.22-.76-1-.85a9.09,9.09,0,0,1-1.52-.31l-.9-.36-.72-.72,0-.81.81-.72a2.48,2.48,0,0,1,1.84.18c1,.49,1.21-.36,2.2.49s1.12,1.79,1.88,1.66,1.57.18,1-.63-.45-1.35-1.57-1.84-1.61-1.35-2.38-1.12-.63.58-1.57.36-1.48-.4-1.57-1.12,0-1.26-.58-1.48-1.79-.9-1-1.48a4.07,4.07,0,0,1,2.33-.63c.85-.09,1.66.4,2-.27s1.61-.54,1.61-1.48-.67-1.79.45-1.88,1.08-.81,2.15-.09,1.88,1.21,2.47.45a7.46,7.46,0,0,1,2.06-2.2c.81-.4,1.12-1.26,1.61-.63s.72.72,1.79.58,5.2-.49,5.38-.22,2.29-1.12,2.51.36.49,2.06,1.17,2.2,1.12.63,2.15,0,2.24-.67,3-1.26,1.93-1.57,2-.67.36,1.39-.72,1.93-1.7.27-2,1.43-1.88,1.61-2,2.15.31.27.27,1.44-.63,1.39-.22,1.75.63,1.3,1.12.22,0-1.26.72-2.06.76,0,1.3-1.43.94-3.14,1.93-3.32.94-.09,2-1.08,1.79-2.51,2.6-3.14.9,0,1-1.48,0-2.2.54-2.87-.49-1.39,1.21-1.17,1.52.72,2.6.09a1.54,1.54,0,0,0,.23-.16M240.55,0a3,3,0,0,0,0,.31c0,1.35-1.7,3.23-1.43,4.13s-1.26,2.78-.81,3.59.36.9-.45,1.52-2.15.45-2.24,1.35-1.26,1.53-1.43,2.69-1.08,2-1.08,2.69-1.88,1.52-2.24,3-1.61,1.17-1.88,2.69-1.79,2.42-2,3.68.36,2.24-1.61,3-2.87,1.43-2.51,2.33a1.71,1.71,0,0,1-1.17,2.33c-1.17.36-3.05-1.43-4.67-.54s-3,1.88-3,3.14,1.35,1.61-.72,2.33-3.05.54-3.23,1.26S209.86,41,208.33,41s-3.95,1.17-3.95,2.33.63,1.88-.63,2.33-2.78.9-3,1.52.36.9-.81,1.43-1.35,1.79-2.6,2.69-3.77,1.44-3.86,2.6a6.84,6.84,0,0,1-.81,2.6c-.36.81.09,2-.63,2.87s-1.52,1.08-.9,2.51.9,1.71.63,2.6a5.07,5.07,0,0,0-.45,2.78,4.72,4.72,0,0,1-.09,3.32c-.54,1.08-.81,1.26-.54,2.51s1.17,1.61.9,2.69.54,1.88.36,3.05-.45,1.35.18,2.6,1,1.71.54,2.6-1,1.26-.9,1.88a9.49,9.49,0,0,1,0,3.23c-.27,1.35-.54,1.35-.27,2.33s1.26.72.63,1.62-1.08,1.26-.18,1.26,3.05.27,3.68-.81,1.17-2.15,1.35-1.26.18,1.35.36,2.06-.54.9-.54,1.88-1.17.45-.72,1.53-2.15.63-2.15,1.08-1.71,1.26-1.08,3,1.35,3.68,2.6,4.22,1.79.18,2.15,1.26.36,1.52,1.44,1.7,1.88-.36,1.79.36-.63,1.62.18,1.88,1.17.09,2.15.36a6.93,6.93,0,0,0,2.33.63c1.08,0,2,.45,2.78.09s1.7,0,2.42-.63,4.4-1.17,4.57-2.24.81-3,1.52-3.32,2.06-.09,2.15-1a2.31,2.31,0,0,1,1-1.7c.45-.36.9-.18,1.17-1.26s-.09-2.15.63-2.15,1.61-.18,1.61-.9.72-1.52,1.08-1,1.26,1.25,1.71.54.36-1.88,1.26-1.88.45.9.9,0,.54-4.22,1.25-3.68.45.27.09-.63-.54-2.69.18-2.24.9-2.24,1-1-.18,2.87.18,3.59-.36,2,.72,2.06,1.62.45,1.62.81,1.26.18,1.17,1.08-.72,1.52-.18,2.24.9.9.9,1.7-.36,1,0,1.79.9,1.52.63,2.33-.72,1.79-.27,2.24.45.27,1.08.72a2.1,2.1,0,0,1,1,1.61c.09.72,1.26.72,1.61,2.24s-.18,2.78.36,3.86.72.9.63,2,1.17,1.88,1,2.6-.54,2.06.36,2.15,1.53-.18,1.62,1.44.45,2.87,1.08,3.32.36.72,1.44,1.88,2.15,1,2.15,2,1.7,1.17,1.35,2.24-2.6.27-2.06,1.53,1.88,2.51,1,2.6-2.24-.72-1.52.9,1.7,2.33,1.88,3.14,1.62,1.88,1.62,2.33-.72,2.69-.27,3-1.17,1.61-.45,2.06,2.6,1.7,3.59,1.35,2.87-1.52,3.41-1.17,1.61-.45,2.06-.09,2.69.18,2.69-.9-.9-2.51-1-3.68.81-4.22,2-4.4,1.79-.9,1.79-1.52,1.7-.72,2.51-.72,1.08-.9,1.79-.27,1.08-.45,2.24-.36.27,1.17,1.44,1.26,1.35-.54,1.61-1.62.81-2.87,1.26-4.22a21.82,21.82,0,0,1,1-3.14,8.07,8.07,0,0,0,.45-3.95c-.18-.54,1.35-.72.72-1.71s-1.61-2.24-.9-3.14,1.88-3.14,1.26-3.68-1.26-.27-.81-1.08,1-2.06.36-2.69-1.08-.54-.45-1.17,1-2.69,1-3.95.54-1-.09-2-2.06-1.26-.72-1.79,1.7-1,1.52-1.52,0-3.41,1.17-3.59,2,.36,2-.9.27-1.88,1-1.88,1.44,1,1.79.36a15,15,0,0,1,2-2.78c1-1.08,2.06-.45,1.62-1.43a6,6,0,0,1-.54-3.41c.27-.72.81-1,.9-1.7s.81-.45,1.44-1.44,2.51-1.44,2-2.15-1.62-1.26-1.62-2.87-.18-2.42-1.08-2.42-2.24-.09-2.24-.72-.72-1.88-1.35-1.88A2.33,2.33,0,0,1,283,74.4c-.54-1.17-.09-2.33-1.08-2.06s-1.53,1.43-2.33.54-.36-1.08-1.43-1.17-2.42-.63-1.79-1.08.09-2.6-.27-3.14a27.62,27.62,0,0,1-.9-3.68c-.27-.9-.45-.54-.18-1.53s.54-.81,0-1.88-1-2.06-.27-2.42,1.79-.18,1.61-1.17-1.35-1.08-.9-2.15.9-1.61.54-2.6.63-.63.9-1.7.63-1.26.09-1.79a2.44,2.44,0,0,1,0-2.69c.54-.45.9.18,1-1.44s1.26-.9,1.08-2.06,1.17-2.24,1.17-2.78.45-.36,1-1.61,1.35-4.4,2.06-4.13,1.08.63,1.35-.63.72-2.51,1.35-2.51,1.71.27,2.24-.9,2.15-3.41,2.87-3.23,2.06-1.26,2-2,.72.27,1.17-.81-.27-3.68,1-4.93,3.14-3.59,2.78-4.3-.27-2.6-1.26-2.6-2.06.54-1.7-.63,1.08-1.17.27-1.61-1.35,0-.81-1.17,1.79-2.42,1.79-3.41-.9-1.61.36-2.33S297,.13,297,.13a1.23,1.23,0,0,1,0-.13" fill="none" stroke="#4f5850" stroke-linecap="round" stroke-linejoin="round" stroke-width="0.6"/>
  <circle cx="219.48" cy="291.24" r="1.28" fill="none" stroke="#4f5850" stroke-linecap="round" stroke-linejoin="round" stroke-width="0.75"/>
  <circle cx="241.79" cy="252.58" r="1.28" fill="none" stroke="#4f5850" stroke-linecap="round" stroke-linejoin="round" stroke-width="0.75"/>
  <circle cx="206.44" cy="264.4" r="1.28" fill="none" stroke="#4f5850" stroke-linecap="round" stroke-linejoin="round" stroke-width="0.75"/>
  <path d="M220.88,284.26c0,2.17-.71,2.44-1.86,2.44h-.3v-4.88h.37c1.08,0,1.79.21,1.79,2.44m.81,0c0-2.8-1.12-3.15-2.73-3.15h-1.05v6.3h1c1.62,0,2.82-.38,2.82-3.15m-7,3.15v-6.3h-.81v3.1c0,.69.13,2,.13,2a13.32,13.32,0,0,0-.72-1.76l-1.59-3.29h-.8v6.3h.81v-3.23c0-.68-.13-1.89-.13-1.89s.32.86.72,1.69l1.67,3.43ZM207,285.3h-1.76l.56-2.29c.15-.61.32-1.39.32-1.39s.18.79.32,1.39Zm1.37,2.1-1.74-6.3h-1l-1.74,6.3h.88l.33-1.4h2.07l.33,1.4Zm-6.3-.75h-1.89v-5.54h-.81v6.3H202Zm-5.94-5.54h-.83v6.3h.83Zm-4.72,4.19h-1.76l.56-2.29c.15-.61.32-1.39.32-1.39s.18.79.32,1.39Zm1.37,2.1-1.74-6.3h-1l-1.74,6.3h.88l.33-1.4h2.07l.33,1.4Zm-7,0-.22-6.3h-.66l-1.74,3.82-1.73-3.82h-.66l-.22,6.3h.8l.06-3.29c0-.85,0-1.62,0-1.62s.27.75.6,1.44l1.16,2.42,1.15-2.42c.31-.67.61-1.45.61-1.45s0,.79,0,1.63l.06,3.29Z" fill="#4f5850"/>
  <path d="M208.28,259.77v-6.3h-.81V256h-2.25v-2.52h-.81v6.3h.81v-3.08h2.25v3.08Zm-6.48-.09V259a4.84,4.84,0,0,1-1.1.19c-.67,0-1.24-.47-1.24-2.53,0-2.24.7-2.55,1.33-2.55a3.78,3.78,0,0,1,1,.18v-.68a2.85,2.85,0,0,0-1-.19c-.8,0-2.16.32-2.16,3.24s1.17,3.24,2.05,3.24a4.14,4.14,0,0,0,1.1-.18m-6.12-6.21h-.83v6.3h.83Zm-4.43,1.77c0,.93-.51,1.21-2,1.26v-2.3h.36c1,0,1.62,0,1.62,1m.9,4.53-.69-1.81a2.39,2.39,0,0,0-.63-1,1.6,1.6,0,0,0,1.23-1.69c0-1.55-1-1.77-2.28-1.77h-1.32v6.3h.81v-2.61c.27,0,.53,0,.79-.06a2.9,2.9,0,0,1,.66,1.24l.46,1.43Zm-6.88-1.71v-4.59h-.81v4.73c0,.71-.38,1-1,1s-1-.27-1-1v-4.73h-.81v4.59c0,1.27.55,1.8,1.83,1.8a1.59,1.59,0,0,0,1.83-1.8m-2.32-5.49a.53.53,0,1,0-.53.54.53.53,0,0,0,.53-.54m2.06,0a.53.53,0,1,0-.53.54.53.53,0,0,0,.53-.54m-6.09,7.2V259h-2.27l2.27-4.91v-.64h-3.15v.76H178l-2.27,4.91v.64Z" fill="#4f5850"/>
  <path d="M284.37,248.86v-6.3h-.81v3.1c0,.69.14,2,.14,2a13.26,13.26,0,0,0-.72-1.76l-1.58-3.29h-.8v6.3h.81v-3.23c0-.68-.13-1.89-.13-1.89s.32.86.72,1.69l1.67,3.43Zm-6.48,0v-.75h-2.25v-2.32h2.07v-.7h-2.07v-1.76h2.25v-.76h-3.06v6.3Zm-6.3,0v-6.3h-.81v2.52h-2.25v-2.52h-.81v6.3h.81v-3.08h2.25v3.08Zm-6.48-.09V248a4.84,4.84,0,0,1-1.1.19c-.67,0-1.24-.47-1.24-2.53,0-2.24.7-2.55,1.33-2.55a3.78,3.78,0,0,1,1,.18v-.68a2.85,2.85,0,0,0-1-.19c-.8,0-2.16.32-2.16,3.24s1.17,3.24,2.05,3.24a4.13,4.13,0,0,0,1.1-.18m-6.12.09v-6.3h-.81v3.1c0,.69.14,2,.14,2a13.32,13.32,0,0,0-.72-1.76L256,242.56h-.8v6.3H256v-3.23c0-.68-.13-1.89-.13-1.89s.31.86.72,1.69l1.67,3.43Zm-7-1.71v-4.59h-.81v4.73c0,.71-.38,1-1,1s-1-.27-1-1v-4.73h-.81v4.59c0,1.27.55,1.8,1.83,1.8a1.59,1.59,0,0,0,1.83-1.8m-2.32-5.49a.53.53,0,1,0-.53.54.53.53,0,0,0,.53-.54m2.06,0a.53.53,0,1,0-.53.54.53.53,0,0,0,.53-.54m-6.54,7.2-.22-6.3h-.66l-1.74,3.82-1.73-3.82h-.66l-.22,6.3h.8l.06-3.29c0-.85,0-1.62,0-1.62s.27.75.6,1.44l1.16,2.42,1.15-2.42c.31-.67.61-1.45.61-1.45s0,.79,0,1.63l.06,3.29Z" fill="#4f5850"/>
  <path d="M223.11,272.34A5.29,5.29,0,1,1,228.4,267,5.3,5.3,0,0,1,223.11,272.34Zm0-10A4.69,4.69,0,1,0,227.8,267,4.7,4.7,0,0,0,223.11,262.36Z" fill="#ebbc00"/>
  <path d="M166.49,345.83a.67.67,0,0,0-.67.62l-.28,3.47-2.22,6.94-4.21,7a.69.69,0,0,0-.08.22l-.69,3.71-2.35,4a.69.69,0,0,0-.08.22L154.62,379a.65.65,0,0,0,0,.2l.71,6.38a.67.67,0,0,0,.07.23l2.69,5.39a.72.72,0,0,0,.09.13l2.15,2.56,2.78,15.68L161.66,414l-10,6.68a.67.67,0,0,0-.29.44l-.28,1.56a.67.67,0,0,0,0,.34l1,2.84a.67.67,0,0,0,.86.41l.08,0,.44-.22v.47a.67.67,0,0,0,.2.48l.85.85a.67.67,0,0,0,1.06-.15l1.15-2.07,1.6.53a.67.67,0,0,0,.85-.43.66.66,0,0,0,0-.21v-.23l3.07-.24a.67.67,0,0,0,.59-.46l.32-1,5-1.63,3.47,2.73.39,3a.67.67,0,0,0,.75.58h.07l5.82-1.42.08,0,4.54-1.7a.67.67,0,0,0,.26-.18l1.21-1.34,2-1.22a.67.67,0,0,0,.29-.36l.71-2.13a.67.67,0,0,0,0-.54l-.72-1.31.19-.64,1.59.11a.67.67,0,0,0,.59-.28l1-1.35,2.31-.51a.67.67,0,0,0,.52-.61l.43-5.67a.67.67,0,0,0-.16-.48l-1.4-1.66v-.32a.67.67,0,0,0-.37-.6l-1.38-.69.55-1.1a.67.67,0,0,0,.07-.3V402.1l1.65-1.65a.65.65,0,0,0,.11-.14l.57-1a.67.67,0,0,0-.21-.89l-2.25-1.5v-1.63a.67.67,0,0,0-.06-.27l-.43-1,.67-1.12a.67.67,0,0,0,0-.63l-1-2.13a.67.67,0,0,0-.89-.33l-.12.08-1.61,1.24-1.71-.3-.88-3a.67.67,0,0,0-.13-.25l-1.7-2-.12-.11-4-2.84a.67.67,0,0,0-.87.07l-.6.6-1.25-.25L178,381.3a.68.68,0,0,0,.2-.5l-.13-4.45,1.29-1.8a.67.67,0,0,0,.1-.2l1-3.26a.67.67,0,0,0-.17-.67l-1.63-1.63-1.8-3.32a.68.68,0,0,0-.47-.34l-1.31-.24-1-1.22a.67.67,0,0,0-.53-.25h-.93l3.2-5.22a.67.67,0,0,0,0-.67l-2.13-4a.68.68,0,0,0-.23-.25l-4.16-2.68-.23-1.14a.68.68,0,0,0-.09-.23l-2-3.12A.67.67,0,0,0,166.49,345.83Z" fill="#fff"/>
  <path d="M166.49,345.83a.67.67,0,0,0-.67.62l-.28,3.47-2.22,6.94-4.21,7a.69.69,0,0,0-.08.22l-.69,3.71-2.35,4a.69.69,0,0,0-.08.22L154.62,379a.65.65,0,0,0,0,.2l.71,6.38a.67.67,0,0,0,.07.23l2.69,5.39a.72.72,0,0,0,.09.13l2.15,2.56,2.78,15.68L161.66,414l-10,6.68a.67.67,0,0,0-.29.44l-.28,1.56a.67.67,0,0,0,0,.34l1,2.84a.67.67,0,0,0,.86.41l.08,0,.44-.22v.47a.67.67,0,0,0,.2.48l.85.85a.67.67,0,0,0,1.06-.15l1.15-2.07,1.6.53a.67.67,0,0,0,.85-.43.66.66,0,0,0,0-.21v-.23l3.07-.24a.67.67,0,0,0,.59-.46l.32-1,5-1.63,3.47,2.73.39,3a.67.67,0,0,0,.75.58h.07l5.82-1.42.08,0,4.54-1.7a.67.67,0,0,0,.26-.18l1.21-1.34,2-1.22a.67.67,0,0,0,.29-.36l.71-2.13a.67.67,0,0,0,0-.54l-.72-1.31.19-.64,1.59.11a.67.67,0,0,0,.59-.28l1-1.35,2.31-.51a.67.67,0,0,0,.52-.61l.43-5.67a.67.67,0,0,0-.16-.48l-1.4-1.66v-.32a.67.67,0,0,0-.37-.6l-1.38-.69.55-1.1a.67.67,0,0,0,.07-.3V402.1l1.65-1.65a.65.65,0,0,0,.11-.14l.57-1a.67.67,0,0,0-.21-.89l-2.25-1.5v-1.63a.67.67,0,0,0-.06-.27l-.43-1,.67-1.12a.67.67,0,0,0,0-.63l-1-2.13a.67.67,0,0,0-.89-.33l-.12.08-1.61,1.24-1.71-.3-.88-3a.67.67,0,0,0-.13-.25l-1.7-2-.12-.11-4-2.84a.67.67,0,0,0-.87.07l-.6.6-1.25-.25L178,381.3a.68.68,0,0,0,.2-.5l-.13-4.45,1.29-1.8a.67.67,0,0,0,.1-.2l1-3.26a.67.67,0,0,0-.17-.67l-1.63-1.63-1.8-3.32a.68.68,0,0,0-.47-.34l-1.31-.24-1-1.22a.67.67,0,0,0-.53-.25h-.93l3.2-5.22a.67.67,0,0,0,0-.67l-2.13-4a.68.68,0,0,0-.23-.25l-4.16-2.68-.23-1.14a.68.68,0,0,0-.09-.23l-2-3.12A.67.67,0,0,0,166.49,345.83Z" fill="none" stroke="#ebbc00" stroke-miterlimit="10" stroke-width="0.6"/>
  <line x1="166.83" y1="338.89" x2="166.83" y2="278.7" fill="none" stroke="#4f5850" stroke-linecap="round" stroke-linejoin="round" stroke-width="0.75" stroke-dasharray="2.28 1.53"/>
  <line x1="169.43" y1="276.8" x2="220.87" y2="276.8" fill="none" stroke="#4f5850" stroke-linecap="round" stroke-linejoin="round" stroke-width="0.75" stroke-dasharray="2.24 1.49"/>
  <path d="M221.61,276.8h1.12v-2m-55.9,3.1V276.8h1.12m-1.12,64.76v-1.14" fill="none" stroke="#4f5850" stroke-linecap="round" stroke-linejoin="round" stroke-width="0.75"/>
  <g>
    <path d="M227.66,265a5,5,0,0,0-.36-.66L223.83,272a4.92,4.92,0,0,0,.74-.17Z" fill="#ebbc00"/>
    <path d="M219.08,270l3.59-7.87a5,5,0,0,0-.71.1l-3.26,7.15A5,5,0,0,0,219.08,270Z" fill="#ebbc00"/>
    <path d="M225.55,262.72a4.92,4.92,0,0,0-.53-.28l-4.13,9.06a4.92,4.92,0,0,0,.55.24Z" fill="#ebbc00"/>
  </g>
  <g>
    <path d="M169.35,422.91,185,388.49l-.18-.62a.69.69,0,0,0-.11-.2l-15.88,34.85Z" fill="#ebbc00"/>
    <path d="M166.34,422.6l16.79-36.84-.1-.12-.12-.11-.25-.18-17.09,37.5Z" fill="#ebbc00"/>
    <path d="M172.81,428.3h.07l.38-.09,17.07-37.45-.26-.55a.65.65,0,0,0-.09-.12l-17.42,38.22A.67.67,0,0,0,172.81,428.3Z" fill="#ebbc00"/>
    <path d="M176.81,427.32l14-30.78v-1.25a.68.68,0,0,0,0-.13l-14.74,32.35Z" fill="#ebbc00"/>
    <path d="M180.48,426.2l10.5-23V402.1l.89-.89,1.25-2.75,0,0-.47-.31L179.69,426.5Z" fill="#ebbc00"/>
    <path d="M160.32,393.89l0,.24,13.83-30.34-.09-.11a.67.67,0,0,0-.41-.23L160,393.5Z" fill="#ebbc00"/>
    <path d="M183.58,425l1.21-1.34,0,0,2.39-5.25-.16-.29.19-.64.38,0,4.67-10.26-.19-.22v-.32a.66.66,0,0,0-.09-.3L183.53,425Z" fill="#ebbc00"/>
    <path d="M158.33,426.14h.07l19.82-43.5a.66.66,0,0,0-.16.11l-.6.6-.21,0L157.82,426Z" fill="#ebbc00"/>
    <path d="M161.25,399.12l15.43-33.85a.66.66,0,0,0-.29-.13l-.29-.05-15,33Z" fill="#ebbc00"/>
    <path d="M163,409.1l17.45-38.29a.65.65,0,0,0-.18-.38l-.21-.21-17.25,37.85Z" fill="#ebbc00"/>
    <polygon points="156.33 387.69 156.67 388.37 172.84 352.88 172.34 352.56 156.33 387.69" fill="#ebbc00"/>
    <path d="M152.16,426l3.69-8.1-.95.63-3,6.69.23.67A.64.64,0,0,0,152.16,426Z" fill="#ebbc00"/>
    <polygon points="155.09 383.48 155.22 384.64 170.41 351.31 169.9 350.98 155.09 383.48" fill="#ebbc00"/>
    <path d="M155.06,376.61l-.44,2.4s0,0,0,0l13.92-30.54-.38-.6Z" fill="#ebbc00"/>
    <polygon points="190.88 415.79 191.62 415.63 193.5 411.51 193.63 409.77 190.88 415.79" fill="#ebbc00"/>
    <path d="M158,391l.1.21a.75.75,0,0,0,.09.13l.2.24,16.42-36-.36-.66Z" fill="#ebbc00"/>
    <polygon points="160.39 414.86 159.44 415.49 154.04 427.34 154.5 427.8 160.39 414.86" fill="#ebbc00"/>
    <polygon points="161.95 403.06 162.13 404.11 178.42 368.36 178.07 367.7 161.95 403.06" fill="#ebbc00"/>
    <polygon points="171.19 424.35 171.67 424.73 171.67 424.75 187.01 391.1 186.4 390.99 171.19 424.35" fill="#ebbc00"/>
    <polygon points="161.38 425.11 162.06 425.06 180.77 384 180.27 383.65 161.38 425.11" fill="#ebbc00"/>
  </g>
</svg>
