<svg xmlns="http://www.w3.org/2000/svg" width="26.592" height="30" viewBox="0 0 26.592 30">
  <g id="_9919578" data-name="9919578" transform="translate(-516.797 -40)">
    <path id="Path_398" data-name="Path 398" d="M524.708,51.908V49.329c-.123,0-.237,0-.348,0a8.1,8.1,0,0,1-2.216-.2,6.955,6.955,0,0,1-4.357-3.236,6.841,6.841,0,0,1-.99-3.641c0-.306,0-.609,0-.915A1.326,1.326,0,0,1,518.159,40h23.811a1.344,1.344,0,0,1,1.385,1.068.483.483,0,0,1,.015.087,9.163,9.163,0,0,1-.387,3.671,6.744,6.744,0,0,1-5.122,4.387,9.758,9.758,0,0,1-2.09.123h-.3v2.582c.063,0,.126,0,.189,0a14.153,14.153,0,0,1,1.556.06,3.446,3.446,0,0,1,2.858,2.816c.393,2.318.795,4.636,1.191,6.954.237,1.388.48,2.774.7,4.165a3.575,3.575,0,0,1-2.9,4.024,3.887,3.887,0,0,1-.672.06q-8.322,0-16.644,0a3.588,3.588,0,0,1-3.572-3.176,5.465,5.465,0,0,1,.126-1.592q.445-2.591.888-5.182c.285-1.664.579-3.326.852-4.99a3.756,3.756,0,0,1,.786-1.865,3.441,3.441,0,0,1,2.684-1.278C523.913,51.9,524.3,51.908,524.708,51.908Zm5.371,16.646h.825q3.747,0,7.5,0a2.138,2.138,0,0,0,2.141-2.456c-.258-1.592-.54-3.179-.81-4.771q-.477-2.775-.951-5.551a7.861,7.861,0,0,0-.216-1.056,2.012,2.012,0,0,0-1.964-1.367c-1.493,0-2.99,0-4.483,0h-8.532a2.027,2.027,0,0,0-2.063,1.691c-.312,1.76-.606,3.524-.909,5.284q-.459,2.681-.921,5.359a3.007,3.007,0,0,0-.06,1.086,2.148,2.148,0,0,0,2.156,1.778Q525.933,68.556,530.079,68.555Zm11.836-27.109H518.249a8.3,8.3,0,0,0,.141,2.183,5.56,5.56,0,0,0,5.221,4.255c4.333.024,8.667.018,13,.006a5.184,5.184,0,0,0,4.013-1.844A5.808,5.808,0,0,0,541.916,41.445ZM526.163,51.9h7.848V49.341h-7.848Z" transform="translate(0)" fill="#a1b7cf"/>
    <path id="Path_399" data-name="Path 399" d="M778.759,551.79A5.78,5.78,0,1,1,772.986,546,5.777,5.777,0,0,1,778.759,551.79Zm-5.059,4.246a4.283,4.283,0,0,0,3.533-3.533c-.12,0-.24.006-.36,0a.719.719,0,1,1,.036-1.437c.108,0,.216,0,.324,0a4.256,4.256,0,0,0-3.533-3.527c0,.111,0,.219,0,.33a.72.72,0,0,1-1.439,0c0-.114,0-.225,0-.342a4.261,4.261,0,0,0-3.527,3.524,3.537,3.537,0,0,1,.507.03.707.707,0,0,1,.549.741.721.721,0,0,1-.714.675c-.117.006-.234,0-.351,0a4.324,4.324,0,0,0,3.536,3.536c0-.12,0-.24,0-.36a.718.718,0,0,1,1.436,0C773.7,555.794,773.7,555.914,773.7,556.037Z" transform="translate(-242.892 -490.826)" fill="#a1b7cf"/>
    <path id="Path_400" data-name="Path 400" d="M937.112,675.872a.72.72,0,0,1,.465,1.157c-.372.432-.753.858-1.143,1.268a.715.715,0,0,1-1.065-.948c.372-.438.762-.861,1.152-1.284A.7.7,0,0,1,937.112,675.872Z" transform="translate(-405.872 -616.802)" fill="#a1b7cf"/>
  </g>
</svg>
