<svg xmlns="http://www.w3.org/2000/svg" xmlns:xlink="http://www.w3.org/1999/xlink" viewBox="0 0 520 640">
  <defs>
    <clipPath id="clip-path">
      <rect x="161" y="49" width="25.93" height="547" fill="none"/>
    </clipPath>
    <clipPath id="clip-path-2">
      <circle cx="290" cy="199.63" r="10.37" fill="none" stroke="#ebbb00" stroke-miterlimit="10" stroke-width="1.5"/>
    </clipPath>
  </defs>
  <title>map</title>
  <g id="vektoren">
    <g clip-path="url(#clip-path)">
      <g>
        <path d="M142,597c10.83,0,10.83,12,21.66,12s10.83-12,21.67-12,10.83,12,21.67,12" fill="none" stroke="#4f5750" stroke-miterlimit="10"/>
        <path d="M142,592.46c10.83,0,10.83,12,21.66,12s10.83-12,21.67-12,10.83,12,21.67,12" fill="none" stroke="#4f5750" stroke-miterlimit="10"/>
        <path d="M142,588c10.83,0,10.83,12,21.66,12s10.83-12,21.67-12,10.83,12,21.67,12" fill="none" stroke="#4f5750" stroke-miterlimit="10"/>
        <path d="M142,583.49c10.83,0,10.83,12,21.66,12s10.83-12,21.67-12,10.83,12,21.67,12" fill="none" stroke="#4f5750" stroke-miterlimit="10"/>
        <path d="M142,579c10.83,0,10.83,12,21.66,12s10.83-12,21.67-12,10.83,12,21.67,12" fill="none" stroke="#4f5750" stroke-miterlimit="10"/>
        <path d="M142,574.51c10.83,0,10.83,12,21.66,12s10.83-12,21.67-12,10.83,12,21.67,12" fill="none" stroke="#4f5750" stroke-miterlimit="10"/>
        <path d="M142,570c10.83,0,10.83,12,21.66,12s10.83-12,21.67-12,10.83,12,21.67,12" fill="none" stroke="#4f5750" stroke-miterlimit="10"/>
        <path d="M142,565.54c10.83,0,10.83,12,21.66,12s10.83-12,21.67-12,10.83,12,21.67,12" fill="none" stroke="#4f5750" stroke-miterlimit="10"/>
        <path d="M142,561.05c10.83,0,10.83,12,21.66,12s10.83-12,21.67-12,10.83,12,21.67,12" fill="none" stroke="#4f5750" stroke-miterlimit="10"/>
        <path d="M142,556.56c10.83,0,10.83,12,21.66,12s10.83-12,21.67-12,10.83,12,21.67,12" fill="none" stroke="#4f5750" stroke-miterlimit="10"/>
        <path d="M142,552.08c10.83,0,10.83,12,21.66,12s10.83-12,21.67-12,10.83,12,21.67,12" fill="none" stroke="#4f5750" stroke-miterlimit="10"/>
        <path d="M142,547.59c10.83,0,10.83,12,21.66,12s10.83-12,21.67-12,10.83,12,21.67,12" fill="none" stroke="#4f5750" stroke-miterlimit="10"/>
        <path d="M142,543.1c10.83,0,10.83,12,21.66,12s10.83-12,21.67-12,10.83,12,21.67,12" fill="none" stroke="#4f5750" stroke-miterlimit="10"/>
        <path d="M142,538.61c10.83,0,10.83,12,21.66,12s10.83-12,21.67-12,10.83,12,21.67,12" fill="none" stroke="#4f5750" stroke-miterlimit="10"/>
        <path d="M142,534.12c10.83,0,10.83,12,21.66,12s10.83-12,21.67-12,10.83,12,21.67,12" fill="none" stroke="#4f5750" stroke-miterlimit="10"/>
        <path d="M142,529.64c10.83,0,10.83,12,21.66,12s10.83-12,21.67-12,10.83,12,21.67,12" fill="none" stroke="#4f5750" stroke-miterlimit="10"/>
        <path d="M142,525.15c10.83,0,10.83,12,21.66,12s10.83-12,21.67-12,10.83,12,21.67,12" fill="none" stroke="#4f5750" stroke-miterlimit="10"/>
        <path d="M142,520.66c10.83,0,10.83,12,21.66,12s10.83-12,21.67-12,10.83,12,21.67,12" fill="none" stroke="#4f5750" stroke-miterlimit="10"/>
        <path d="M142,516.17c10.83,0,10.83,12,21.66,12s10.83-12,21.67-12,10.83,12,21.67,12" fill="none" stroke="#4f5750" stroke-miterlimit="10"/>
        <path d="M142,511.69c10.83,0,10.83,12,21.66,12s10.83-12,21.67-12,10.83,12,21.67,12" fill="none" stroke="#4f5750" stroke-miterlimit="10"/>
        <path d="M142,507.2c10.83,0,10.83,12,21.66,12s10.83-12,21.67-12,10.83,12,21.67,12" fill="none" stroke="#4f5750" stroke-miterlimit="10"/>
        <path d="M142,502.71c10.83,0,10.83,12,21.66,12s10.83-12,21.67-12,10.83,12,21.67,12" fill="none" stroke="#4f5750" stroke-miterlimit="10"/>
        <path d="M142,498.22c10.83,0,10.83,12,21.66,12s10.83-12,21.67-12,10.83,12,21.67,12" fill="none" stroke="#4f5750" stroke-miterlimit="10"/>
        <path d="M142,493.74c10.83,0,10.83,12,21.66,12s10.83-12,21.67-12,10.83,12,21.67,12" fill="none" stroke="#4f5750" stroke-miterlimit="10"/>
        <path d="M142,489.25c10.83,0,10.83,12,21.66,12s10.83-12,21.67-12,10.83,12,21.67,12" fill="none" stroke="#4f5750" stroke-miterlimit="10"/>
        <path d="M142,484.76c10.83,0,10.83,12,21.66,12s10.83-12,21.67-12,10.83,12,21.67,12" fill="none" stroke="#4f5750" stroke-miterlimit="10"/>
        <path d="M142,480.27c10.83,0,10.83,12,21.66,12s10.83-12,21.67-12,10.83,12,21.67,12" fill="none" stroke="#4f5750" stroke-miterlimit="10"/>
        <path d="M142,475.79c10.83,0,10.83,12,21.66,12s10.83-12,21.67-12,10.83,12,21.67,12" fill="none" stroke="#4f5750" stroke-miterlimit="10"/>
        <path d="M142,471.3c10.83,0,10.83,12,21.66,12s10.83-12,21.67-12,10.83,12,21.67,12" fill="none" stroke="#4f5750" stroke-miterlimit="10"/>
        <path d="M142,466.81c10.83,0,10.83,12,21.66,12s10.83-12,21.67-12,10.83,12,21.67,12" fill="none" stroke="#4f5750" stroke-miterlimit="10"/>
        <path d="M142,462.32c10.83,0,10.83,12,21.66,12s10.83-12,21.67-12,10.83,12,21.67,12" fill="none" stroke="#4f5750" stroke-miterlimit="10"/>
        <path d="M142,457.84c10.83,0,10.83,12,21.66,12s10.83-12,21.67-12,10.83,12,21.67,12" fill="none" stroke="#4f5750" stroke-miterlimit="10"/>
        <path d="M142,453.35c10.83,0,10.83,12,21.66,12s10.83-12,21.67-12,10.83,12,21.67,12" fill="none" stroke="#4f5750" stroke-miterlimit="10"/>
        <path d="M142,448.86c10.83,0,10.83,12,21.66,12s10.83-12,21.67-12,10.83,12,21.67,12" fill="none" stroke="#4f5750" stroke-miterlimit="10"/>
        <path d="M142,444.37c10.83,0,10.83,12,21.66,12s10.83-12,21.67-12,10.83,12,21.67,12" fill="none" stroke="#4f5750" stroke-miterlimit="10"/>
        <path d="M142,439.88c10.83,0,10.83,12,21.66,12s10.83-12,21.67-12,10.83,12,21.67,12" fill="none" stroke="#4f5750" stroke-miterlimit="10"/>
        <path d="M142,435.4c10.83,0,10.83,12,21.66,12s10.83-12,21.67-12,10.83,12,21.67,12" fill="none" stroke="#4f5750" stroke-miterlimit="10"/>
        <path d="M142,430.91c10.83,0,10.83,12,21.66,12s10.83-12,21.67-12,10.83,12,21.67,12" fill="none" stroke="#4f5750" stroke-miterlimit="10"/>
        <path d="M142,426.42c10.83,0,10.83,12,21.66,12s10.83-12,21.67-12,10.83,12,21.67,12" fill="none" stroke="#4f5750" stroke-miterlimit="10"/>
        <path d="M142,421.93c10.83,0,10.83,12,21.66,12s10.83-12,21.67-12,10.83,12,21.67,12" fill="none" stroke="#4f5750" stroke-miterlimit="10"/>
        <path d="M142,417.45c10.83,0,10.83,12,21.66,12s10.83-12,21.67-12,10.83,12,21.67,12" fill="none" stroke="#4f5750" stroke-miterlimit="10"/>
        <path d="M142,413c10.83,0,10.83,12,21.66,12s10.83-12,21.67-12,10.83,12,21.67,12" fill="none" stroke="#4f5750" stroke-miterlimit="10"/>
        <path d="M142,408.47c10.83,0,10.83,12,21.66,12s10.83-12,21.67-12,10.83,12,21.67,12" fill="none" stroke="#4f5750" stroke-miterlimit="10"/>
        <path d="M142,404c10.83,0,10.83,12,21.66,12s10.83-12,21.67-12,10.83,12,21.67,12" fill="none" stroke="#4f5750" stroke-miterlimit="10"/>
        <path d="M142,399.5c10.83,0,10.83,12,21.66,12s10.83-12,21.67-12,10.83,12,21.67,12" fill="none" stroke="#4f5750" stroke-miterlimit="10"/>
        <path d="M142,395c10.83,0,10.83,12,21.66,12s10.83-12,21.67-12,10.83,12,21.67,12" fill="none" stroke="#4f5750" stroke-miterlimit="10"/>
        <path d="M142,390.52c10.83,0,10.83,12,21.66,12s10.83-12,21.67-12,10.83,12,21.67,12" fill="none" stroke="#4f5750" stroke-miterlimit="10"/>
        <path d="M142,386c10.83,0,10.83,12,21.66,12s10.83-12,21.67-12,10.83,12,21.67,12" fill="none" stroke="#4f5750" stroke-miterlimit="10"/>
        <path d="M142,381.55c10.83,0,10.83,12,21.66,12s10.83-12,21.67-12,10.83,12,21.67,12" fill="none" stroke="#4f5750" stroke-miterlimit="10"/>
        <path d="M142,377.06c10.83,0,10.83,12,21.66,12s10.83-12,21.67-12,10.83,12,21.67,12" fill="none" stroke="#4f5750" stroke-miterlimit="10"/>
        <path d="M142,372.57c10.83,0,10.83,12,21.66,12s10.83-12,21.67-12,10.83,12,21.67,12" fill="none" stroke="#4f5750" stroke-miterlimit="10"/>
        <path d="M142,368.08c10.83,0,10.83,12,21.66,12s10.83-12,21.67-12,10.83,12,21.67,12" fill="none" stroke="#4f5750" stroke-miterlimit="10"/>
        <path d="M142,363.6c10.83,0,10.83,12,21.66,12s10.83-12,21.67-12,10.83,12,21.67,12" fill="none" stroke="#4f5750" stroke-miterlimit="10"/>
        <path d="M142,359.11c10.83,0,10.83,12,21.66,12s10.83-12,21.67-12,10.83,12,21.67,12" fill="none" stroke="#4f5750" stroke-miterlimit="10"/>
        <path d="M142,354.62c10.83,0,10.83,12,21.66,12s10.83-12,21.67-12,10.83,12,21.67,12" fill="none" stroke="#4f5750" stroke-miterlimit="10"/>
        <path d="M142,350.13c10.83,0,10.83,12,21.66,12s10.83-12,21.67-12,10.83,12,21.67,12" fill="none" stroke="#4f5750" stroke-miterlimit="10"/>
        <path d="M142,345.65c10.83,0,10.83,12,21.66,12s10.83-12,21.67-12,10.83,12,21.67,12" fill="none" stroke="#4f5750" stroke-miterlimit="10"/>
        <path d="M142,341.16c10.83,0,10.83,12,21.66,12s10.83-12,21.67-12,10.83,12,21.67,12" fill="none" stroke="#4f5750" stroke-miterlimit="10"/>
        <path d="M142,336.67c10.83,0,10.83,12,21.66,12s10.83-12,21.67-12,10.83,12,21.67,12" fill="none" stroke="#4f5750" stroke-miterlimit="10"/>
        <path d="M142,332.18c10.83,0,10.83,12,21.66,12s10.83-12,21.67-12,10.83,12,21.67,12" fill="none" stroke="#4f5750" stroke-miterlimit="10"/>
        <path d="M142,327.69c10.83,0,10.83,12,21.66,12s10.83-12,21.67-12,10.83,12,21.67,12" fill="none" stroke="#4f5750" stroke-miterlimit="10"/>
        <path d="M142,323.21c10.83,0,10.83,12,21.66,12s10.83-12,21.67-12,10.83,12,21.67,12" fill="none" stroke="#4f5750" stroke-miterlimit="10"/>
        <path d="M142,318.72c10.83,0,10.83,12,21.66,12s10.83-12,21.67-12,10.83,12,21.67,12" fill="none" stroke="#4f5750" stroke-miterlimit="10"/>
        <path d="M142,314.23c10.83,0,10.83,12,21.66,12s10.83-12,21.67-12,10.83,12,21.67,12" fill="none" stroke="#4f5750" stroke-miterlimit="10"/>
        <path d="M142,309.74c10.83,0,10.83,12,21.66,12s10.83-12,21.67-12,10.83,12,21.67,12" fill="none" stroke="#4f5750" stroke-miterlimit="10"/>
        <path d="M142,305.26c10.83,0,10.83,12,21.66,12s10.83-12,21.67-12,10.83,12,21.67,12" fill="none" stroke="#4f5750" stroke-miterlimit="10"/>
        <path d="M142,300.77c10.83,0,10.83,12,21.66,12s10.83-12,21.67-12,10.83,12,21.67,12" fill="none" stroke="#4f5750" stroke-miterlimit="10"/>
        <path d="M142,296.28c10.83,0,10.83,12,21.66,12s10.83-12,21.67-12,10.83,12,21.67,12" fill="none" stroke="#4f5750" stroke-miterlimit="10"/>
        <path d="M142,291.79c10.83,0,10.83,12,21.66,12s10.83-12,21.67-12,10.83,12,21.67,12" fill="none" stroke="#4f5750" stroke-miterlimit="10"/>
        <path d="M142,287.31c10.83,0,10.83,12,21.66,12s10.83-12,21.67-12,10.83,12,21.67,12" fill="none" stroke="#4f5750" stroke-miterlimit="10"/>
        <path d="M142,282.82c10.83,0,10.83,12,21.66,12s10.83-12,21.67-12,10.83,12,21.67,12" fill="none" stroke="#4f5750" stroke-miterlimit="10"/>
        <path d="M142,278.33c10.83,0,10.83,12,21.66,12s10.83-12,21.67-12,10.83,12,21.67,12" fill="none" stroke="#4f5750" stroke-miterlimit="10"/>
        <path d="M142,273.84c10.83,0,10.83,12,21.66,12s10.83-12,21.67-12,10.83,12,21.67,12" fill="none" stroke="#4f5750" stroke-miterlimit="10"/>
        <path d="M142,269.36c10.83,0,10.83,12,21.66,12s10.83-12,21.67-12,10.83,12,21.67,12" fill="none" stroke="#4f5750" stroke-miterlimit="10"/>
        <path d="M142,264.87c10.83,0,10.83,12,21.66,12s10.83-12,21.67-12,10.83,12,21.67,12" fill="none" stroke="#4f5750" stroke-miterlimit="10"/>
        <path d="M142,260.38c10.83,0,10.83,12,21.66,12s10.83-12,21.67-12,10.83,12,21.67,12" fill="none" stroke="#4f5750" stroke-miterlimit="10"/>
        <path d="M142,255.89c10.83,0,10.83,12,21.66,12s10.83-12,21.67-12,10.83,12,21.67,12" fill="none" stroke="#4f5750" stroke-miterlimit="10"/>
        <path d="M142,251.41c10.83,0,10.83,12,21.66,12s10.83-12,21.67-12,10.83,12,21.67,12" fill="none" stroke="#4f5750" stroke-miterlimit="10"/>
        <path d="M142,246.92c10.83,0,10.83,12,21.66,12s10.83-12,21.67-12,10.83,12,21.67,12" fill="none" stroke="#4f5750" stroke-miterlimit="10"/>
        <path d="M142,242.43c10.83,0,10.83,12,21.66,12s10.83-12,21.67-12,10.83,12,21.67,12" fill="none" stroke="#4f5750" stroke-miterlimit="10"/>
        <path d="M142,237.94c10.83,0,10.83,12,21.66,12s10.83-12,21.67-12,10.83,12,21.67,12" fill="none" stroke="#4f5750" stroke-miterlimit="10"/>
        <path d="M142,233.45c10.83,0,10.83,12,21.66,12s10.83-12,21.67-12,10.83,12,21.67,12" fill="none" stroke="#4f5750" stroke-miterlimit="10"/>
        <path d="M142,229c10.83,0,10.83,12,21.66,12s10.83-12,21.67-12,10.83,12,21.67,12" fill="none" stroke="#4f5750" stroke-miterlimit="10"/>
        <path d="M142,224.48c10.83,0,10.83,12,21.66,12s10.83-12,21.67-12,10.83,12,21.67,12" fill="none" stroke="#4f5750" stroke-miterlimit="10"/>
        <path d="M142,220c10.83,0,10.83,12,21.66,12s10.83-12,21.67-12,10.83,12,21.67,12" fill="none" stroke="#4f5750" stroke-miterlimit="10"/>
        <path d="M142,215.5c10.83,0,10.83,12,21.66,12s10.83-12,21.67-12,10.83,12,21.67,12" fill="none" stroke="#4f5750" stroke-miterlimit="10"/>
        <path d="M142,211c10.83,0,10.83,12,21.66,12s10.83-12,21.67-12,10.83,12,21.67,12" fill="none" stroke="#4f5750" stroke-miterlimit="10"/>
        <path d="M142,206.53c10.83,0,10.83,12,21.66,12s10.83-12,21.67-12,10.83,12,21.67,12" fill="none" stroke="#4f5750" stroke-miterlimit="10"/>
        <path d="M142,202c10.83,0,10.83,12,21.66,12s10.83-12,21.67-12,10.83,12,21.67,12" fill="none" stroke="#4f5750" stroke-miterlimit="10"/>
        <path d="M142,197.55c10.83,0,10.83,12,21.66,12s10.83-12,21.67-12,10.83,12,21.67,12" fill="none" stroke="#4f5750" stroke-miterlimit="10"/>
        <path d="M142,193.07c10.83,0,10.83,12,21.66,12s10.83-12,21.67-12,10.83,12,21.67,12" fill="none" stroke="#4f5750" stroke-miterlimit="10"/>
        <path d="M142,188.58c10.83,0,10.83,12,21.66,12s10.83-12,21.67-12,10.83,12,21.67,12" fill="none" stroke="#4f5750" stroke-miterlimit="10"/>
        <path d="M142,184.09c10.83,0,10.83,12,21.66,12s10.83-12,21.67-12,10.83,12,21.67,12" fill="none" stroke="#4f5750" stroke-miterlimit="10"/>
        <path d="M142,179.6c10.83,0,10.83,12,21.66,12s10.83-12,21.67-12,10.83,12,21.67,12" fill="none" stroke="#4f5750" stroke-miterlimit="10"/>
        <path d="M142,175.12c10.83,0,10.83,12,21.66,12s10.83-12,21.67-12,10.83,12,21.67,12" fill="none" stroke="#4f5750" stroke-miterlimit="10"/>
        <path d="M142,170.63c10.83,0,10.83,12,21.66,12s10.83-12,21.67-12,10.83,12,21.67,12" fill="none" stroke="#4f5750" stroke-miterlimit="10"/>
        <path d="M142,166.14c10.83,0,10.83,12,21.66,12s10.83-12,21.67-12,10.83,12,21.67,12" fill="none" stroke="#4f5750" stroke-miterlimit="10"/>
        <path d="M142,161.65c10.83,0,10.83,12,21.66,12s10.83-12,21.67-12,10.83,12,21.67,12" fill="none" stroke="#4f5750" stroke-miterlimit="10"/>
        <path d="M142,157.17c10.83,0,10.83,12,21.66,12s10.83-12,21.67-12,10.83,12,21.67,12" fill="none" stroke="#4f5750" stroke-miterlimit="10"/>
        <path d="M142,152.68c10.83,0,10.83,12,21.66,12s10.83-12,21.67-12,10.83,12,21.67,12" fill="none" stroke="#4f5750" stroke-miterlimit="10"/>
        <path d="M142,148.19c10.83,0,10.83,12,21.66,12s10.83-12,21.67-12,10.83,12,21.67,12" fill="none" stroke="#4f5750" stroke-miterlimit="10"/>
        <path d="M142,143.7c10.83,0,10.83,12,21.66,12s10.83-12,21.67-12,10.83,12,21.67,12" fill="none" stroke="#4f5750" stroke-miterlimit="10"/>
        <path d="M142,139.22c10.83,0,10.83,12,21.66,12s10.83-12,21.67-12,10.83,12,21.67,12" fill="none" stroke="#4f5750" stroke-miterlimit="10"/>
        <path d="M142,134.73c10.83,0,10.83,12,21.66,12s10.83-12,21.67-12,10.83,12,21.67,12" fill="none" stroke="#4f5750" stroke-miterlimit="10"/>
        <path d="M142,130.24c10.83,0,10.83,12,21.66,12s10.83-12,21.67-12,10.83,12,21.67,12" fill="none" stroke="#4f5750" stroke-miterlimit="10"/>
        <path d="M142,125.75c10.83,0,10.83,12,21.66,12s10.83-12,21.67-12,10.83,12,21.67,12" fill="none" stroke="#4f5750" stroke-miterlimit="10"/>
        <path d="M142,121.26c10.83,0,10.83,12,21.66,12s10.83-12,21.67-12,10.83,12,21.67,12" fill="none" stroke="#4f5750" stroke-miterlimit="10"/>
        <path d="M142,116.78c10.83,0,10.83,12,21.66,12s10.83-12,21.67-12,10.83,12,21.67,12" fill="none" stroke="#4f5750" stroke-miterlimit="10"/>
        <path d="M142,112.29c10.83,0,10.83,12,21.66,12s10.83-12,21.67-12,10.83,12,21.67,12" fill="none" stroke="#4f5750" stroke-miterlimit="10"/>
        <path d="M142,107.8c10.83,0,10.83,12,21.66,12s10.83-12,21.67-12,10.83,12,21.67,12" fill="none" stroke="#4f5750" stroke-miterlimit="10"/>
        <path d="M142,103.31c10.83,0,10.83,12,21.66,12s10.83-12,21.67-12,10.83,12,21.67,12" fill="none" stroke="#4f5750" stroke-miterlimit="10"/>
        <path d="M142,98.83c10.83,0,10.83,12,21.66,12s10.83-12,21.67-12,10.83,12,21.67,12" fill="none" stroke="#4f5750" stroke-miterlimit="10"/>
        <path d="M142,94.34c10.83,0,10.83,12,21.66,12s10.83-12,21.67-12,10.83,12,21.67,12" fill="none" stroke="#4f5750" stroke-miterlimit="10"/>
        <path d="M142,89.85c10.83,0,10.83,12,21.66,12s10.83-12,21.67-12,10.83,12,21.67,12" fill="none" stroke="#4f5750" stroke-miterlimit="10"/>
        <path d="M142,85.36c10.83,0,10.83,12,21.66,12s10.83-12,21.67-12,10.83,12,21.67,12" fill="none" stroke="#4f5750" stroke-miterlimit="10"/>
        <path d="M142,80.88c10.83,0,10.83,12,21.66,12s10.83-12,21.67-12,10.83,12,21.67,12" fill="none" stroke="#4f5750" stroke-miterlimit="10"/>
        <path d="M142,76.39c10.83,0,10.83,12,21.66,12s10.83-12,21.67-12,10.83,12,21.67,12" fill="none" stroke="#4f5750" stroke-miterlimit="10"/>
        <path d="M142,71.9c10.83,0,10.83,12,21.66,12s10.83-12,21.67-12,10.83,12,21.67,12" fill="none" stroke="#4f5750" stroke-miterlimit="10"/>
        <path d="M142,67.41c10.83,0,10.83,12,21.66,12s10.83-12,21.67-12,10.83,12,21.67,12" fill="none" stroke="#4f5750" stroke-miterlimit="10"/>
        <path d="M142,62.93c10.83,0,10.83,12,21.66,12s10.83-12,21.67-12,10.83,12,21.67,12" fill="none" stroke="#4f5750" stroke-miterlimit="10"/>
        <path d="M142,58.44c10.83,0,10.83,12,21.66,12s10.83-12,21.67-12,10.83,12,21.67,12" fill="none" stroke="#4f5750" stroke-miterlimit="10"/>
        <path d="M142,54c10.83,0,10.83,12,21.66,12s10.83-12,21.67-12S196.17,66,207,66" fill="none" stroke="#4f5750" stroke-miterlimit="10"/>
        <path d="M142,49.46c10.83,0,10.83,12,21.66,12s10.83-12,21.67-12,10.83,12,21.67,12" fill="none" stroke="#4f5750" stroke-miterlimit="10"/>
        <path d="M142,45c10.83,0,10.83,12,21.66,12s10.83-12,21.67-12S196.17,57,207,57" fill="none" stroke="#4f5750" stroke-miterlimit="10"/>
        <path d="M142,40.49c10.83,0,10.83,12,21.66,12s10.83-12,21.67-12,10.83,12,21.67,12" fill="none" stroke="#4f5750" stroke-miterlimit="10"/>
        <path d="M142,36c10.83,0,10.83,12,21.66,12s10.83-12,21.67-12S196.17,48,207,48" fill="none" stroke="#4f5750" stroke-miterlimit="10"/>
      </g>
    </g>
    <path d="M207,108v97a8,8,0,0,0,8,8h5a8,8,0,0,1,8,8v14a8,8,0,0,0,8,8H478" fill="none" stroke="#4f5750" stroke-miterlimit="10" stroke-width="2"/>
    <polyline points="267.65 596 267.65 560.87 300.89 594.11" fill="none" stroke="#4f5750" stroke-miterlimit="10" stroke-width="2"/>
    <path d="M478,79H244a8,8,0,0,0-8,8v13a8,8,0,0,1-8,8H32" fill="none" stroke="#4f5750" stroke-miterlimit="10" stroke-width="2"/>
    <path d="M331,534H276a8,8,0,0,0-8,8v12a8,8,0,0,1-8,8H32" fill="none" stroke="#4f5750" stroke-miterlimit="10" stroke-width="2"/>
    <circle cx="267.65" cy="560.87" r="12" fill="#fff" stroke="#4f5750" stroke-miterlimit="10" stroke-width="3"/>
    <path d="M451,414q2,120-120,120" fill="none" stroke="#4f5750" stroke-miterlimit="10" stroke-width="2"/>
    <line x1="451" y1="39" x2="451" y2="596" fill="none" stroke="#4f5750" stroke-miterlimit="10" stroke-width="2"/>
    <circle cx="451" cy="79" r="12" fill="#fff" stroke="#4f5750" stroke-miterlimit="10" stroke-width="3"/>
    <circle cx="451" cy="242.54" r="12" fill="#fff" stroke="#4f5750" stroke-miterlimit="10" stroke-width="3"/>
    <line x1="114" y1="596" x2="114" y2="49" fill="none" stroke="#4f5750" stroke-miterlimit="10"/>
    <line x1="144" y1="49" x2="144" y2="596" fill="none" stroke="#4f5750" stroke-miterlimit="10"/>
    <circle cx="451" cy="321" r="12" fill="#fff" stroke="#4f5750" stroke-miterlimit="10" stroke-width="3"/>
    <line x1="273" y1="175" x2="273" y2="242" fill="none" stroke="#4f5750" stroke-miterlimit="10" stroke-width="2"/>
    <polygon points="129.03 38 124.03 46.66 134.03 46.66 129.03 38" fill="#4f5750"/>
    <polygon points="129.03 604.66 134.03 596 124.03 596 129.03 604.66" fill="#4f5750"/>
    <polygon points="451.03 38 446.03 46.66 456.03 46.66 451.03 38" fill="#4f5750"/>
    <polygon points="451.03 604.66 456.03 596 446.03 596 451.03 604.66" fill="#4f5750"/>
    <g>
      <g clip-path="url(#clip-path-2)">
        <circle cx="289.09" cy="200.26" r="2.66" fill="none" stroke="#ebbb00" stroke-linecap="round" stroke-linejoin="round" stroke-width="1.5"/>
        <path d="M290,210a10.38,10.38,0,1,0-10.37-10.37A10.37,10.37,0,0,0,290,210" fill="#fff" stroke="#ebbb00" stroke-miterlimit="10" stroke-width="1.5"/>
        <line x1="265.15" y1="153.96" x2="-95.1" y2="944.45" fill="none" stroke="#ebbb00" stroke-width="1.5"/>
        <line x1="286.88" y1="163.87" x2="-73.36" y2="954.36" fill="none" stroke="#ebbb00" stroke-width="1.5"/>
        <line x1="308.62" y1="173.77" x2="-51.63" y2="964.26" fill="none" stroke="#ebbb00" stroke-width="1.5"/>
        <line x1="330.36" y1="183.68" x2="-29.89" y2="974.17" fill="none" stroke="#ebbb00" stroke-width="1.5"/>
        <line x1="276.02" y1="158.91" x2="-84.23" y2="949.41" fill="none" stroke="#ebbb00" stroke-width="1.5"/>
        <line x1="297.75" y1="168.82" x2="-62.5" y2="959.31" fill="none" stroke="#ebbb00" stroke-width="1.5"/>
        <line x1="319.49" y1="178.73" x2="-40.76" y2="969.22" fill="none" stroke="#ebbb00" stroke-width="1.5"/>
        <line x1="270.58" y1="156.44" x2="-89.67" y2="946.93" fill="none" stroke="#ebbb00" stroke-width="1.5"/>
        <line x1="292.32" y1="166.34" x2="-67.93" y2="956.83" fill="none" stroke="#ebbb00" stroke-width="1.5"/>
        <line x1="314.05" y1="176.25" x2="-46.19" y2="966.74" fill="none" stroke="#ebbb00" stroke-width="1.5"/>
        <line x1="335.79" y1="186.15" x2="-24.46" y2="976.65" fill="none" stroke="#ebbb00" stroke-width="1.5"/>
        <line x1="259.71" y1="151.48" x2="-100.53" y2="941.98" fill="none" stroke="#ebbb00" stroke-width="1.5"/>
        <line x1="281.45" y1="161.39" x2="-78.8" y2="951.88" fill="none" stroke="#ebbb00" stroke-width="1.5"/>
        <line x1="303.19" y1="171.3" x2="-57.06" y2="961.79" fill="none" stroke="#ebbb00" stroke-width="1.5"/>
        <line x1="324.92" y1="181.2" x2="-35.33" y2="971.69" fill="none" stroke="#ebbb00" stroke-width="1.5"/>
        <path d="M279.62,199.62A10.37,10.37,0,1,0,290,189.25a10.37,10.37,0,0,0-10.37,10.37" fill="none" stroke="#ebbb00" stroke-miterlimit="10" stroke-width="1.5"/>
      </g>
      <circle cx="290" cy="199.63" r="10.37" fill="none" stroke="#ebbb00" stroke-miterlimit="10" stroke-width="1.5"/>
    </g>
  </g>
  <g id="schrift">
    <g>
      <path d="M315.11,203.6a2.54,2.54,0,0,1-1.06,1,3.7,3.7,0,0,1-1.75.38,4.38,4.38,0,0,1-1.81-.36,3.15,3.15,0,0,1-1.27-1,2.84,2.84,0,0,1-.55-1.48h1.71a1.75,1.75,0,0,0,.55,1.11,1.79,1.79,0,0,0,1.29.46,1.54,1.54,0,0,0,1.13-.39,1.35,1.35,0,0,0,.4-1,1.3,1.3,0,0,0-.29-.87,2.07,2.07,0,0,0-.73-.54q-.44-.2-1.19-.45a10.33,10.33,0,0,1-1.5-.59,2.74,2.74,0,0,1-1-.85,2.45,2.45,0,0,1-.41-1.47,2.5,2.5,0,0,1,.39-1.4,2.54,2.54,0,0,1,1.12-.93,4,4,0,0,1,1.68-.33,3.68,3.68,0,0,1,2.4.73,2.74,2.74,0,0,1,1,1.9h-1.72a1.68,1.68,0,0,0-.52-1,1.64,1.64,0,0,0-1.17-.4,1.62,1.62,0,0,0-1.08.34,1.22,1.22,0,0,0-.41,1,1.24,1.24,0,0,0,.28.83,1.94,1.94,0,0,0,.71.52c.28.13.67.27,1.17.44a10.26,10.26,0,0,1,1.53.59,2.78,2.78,0,0,1,1,.88,2.53,2.53,0,0,1,.41,1.51A2.7,2.7,0,0,1,315.11,203.6Z" fill="#ebbb00"/>
      <path d="M323,197.86a3.41,3.41,0,0,1,1.22,2.15h-1.69a1.81,1.81,0,0,0-.68-1.14,2.16,2.16,0,0,0-1.35-.41,2,2,0,0,0-1.54.65,2.68,2.68,0,0,0-.62,1.91,2.71,2.71,0,0,0,.62,1.92,2,2,0,0,0,1.54.66,2.13,2.13,0,0,0,1.35-.42,1.84,1.84,0,0,0,.68-1.15h1.69a3.44,3.44,0,0,1-1.22,2.16,3.8,3.8,0,0,1-2.48.8,4,4,0,0,1-2-.48,3.38,3.38,0,0,1-1.35-1.37,4.77,4.77,0,0,1,0-4.21,3.38,3.38,0,0,1,1.35-1.37,4,4,0,0,1,2-.48A3.82,3.82,0,0,1,323,197.86Z" fill="#ebbb00"/>
      <path d="M332.19,197.91a3.49,3.49,0,0,1,.81,2.48v4.49h-1.6v-4.33a2.26,2.26,0,0,0-.53-1.6,1.9,1.9,0,0,0-1.46-.57,2,2,0,0,0-1.53.61,2.51,2.51,0,0,0-.57,1.79v4.1h-1.6V194.52h1.6v4.34a2.59,2.59,0,0,1,1-1.34A3,3,0,0,1,330,197,2.81,2.81,0,0,1,332.19,197.91Z" fill="#ebbb00"/>
      <path d="M336.46,194.52v10.36h-1.6V194.52Z" fill="#ebbb00"/>
      <path d="M338.45,194.25a1,1,0,0,1,.74-.27,1.06,1.06,0,0,1,.75.27.88.88,0,0,1,.29.67.83.83,0,0,1-.29.66,1.09,1.09,0,0,1-.75.25,1.07,1.07,0,0,1-.74-.25.84.84,0,0,1-.28-.66A.88.88,0,0,1,338.45,194.25Zm1.54,2.91v7.71h-1.6v-7.71Z" fill="#ebbb00"/>
      <path d="M349,201.34H343.1a2.43,2.43,0,0,0,.66,1.76,2.15,2.15,0,0,0,1.53.57,2.22,2.22,0,0,0,1.35-.41,1.68,1.68,0,0,0,.68-1.08H349a3.28,3.28,0,0,1-1.92,2.43,4.18,4.18,0,0,1-1.75.36,4,4,0,0,1-2-.48,3.38,3.38,0,0,1-1.35-1.37,4.77,4.77,0,0,1,0-4.21,3.38,3.38,0,0,1,1.35-1.37,4.39,4.39,0,0,1,4,0,3.26,3.26,0,0,1,1.3,1.29,4,4,0,0,1,.4,2.51Zm-1.81-2a1.8,1.8,0,0,0-.78-.76,2.43,2.43,0,0,0-1.08-.25,2.24,2.24,0,0,0-1.57.57,2.34,2.34,0,0,0-.69,1.69h4.38A2.37,2.37,0,0,0,347.22,199.34Z" fill="#ebbb00"/>
      <path d="M355.34,197.76a2.93,2.93,0,0,1,1,1.85h-1.51a1.63,1.63,0,0,0-.54-1,1.71,1.71,0,0,0-1.17-.39,1.37,1.37,0,0,0-.93.29,1,1,0,0,0-.33.78.77.77,0,0,0,.24.59,1.67,1.67,0,0,0,.6.35,10.15,10.15,0,0,0,1,.28,10.14,10.14,0,0,1,1.41.41,2.28,2.28,0,0,1,.92.67,1.86,1.86,0,0,1,.38,1.24,1.93,1.93,0,0,1-.73,1.57,3,3,0,0,1-2,.6,3.77,3.77,0,0,1-2.33-.67,2.77,2.77,0,0,1-1.07-1.88h1.55a1.46,1.46,0,0,0,.56,1,2,2,0,0,0,1.29.39,1.29,1.29,0,0,0,.9-.3,1,1,0,0,0,.33-.76.84.84,0,0,0-.25-.64,1.75,1.75,0,0,0-.63-.37,9,9,0,0,0-1-.27,11.44,11.44,0,0,1-1.37-.39,2.13,2.13,0,0,1-.9-.64,1.8,1.8,0,0,1-.37-1.2,2,2,0,0,1,.74-1.59,3.1,3.1,0,0,1,2-.61A3.26,3.26,0,0,1,355.34,197.76Z" fill="#ebbb00"/>
      <path d="M362.73,197.76a2.93,2.93,0,0,1,1,1.85h-1.51a1.63,1.63,0,0,0-.54-1,1.71,1.71,0,0,0-1.17-.39,1.37,1.37,0,0,0-.93.29,1,1,0,0,0-.33.78.77.77,0,0,0,.24.59,1.67,1.67,0,0,0,.6.35,10.15,10.15,0,0,0,1,.28,10.14,10.14,0,0,1,1.41.41,2.28,2.28,0,0,1,.92.67,1.86,1.86,0,0,1,.38,1.24,1.93,1.93,0,0,1-.73,1.57,3,3,0,0,1-2,.6,3.77,3.77,0,0,1-2.33-.67,2.77,2.77,0,0,1-1.07-1.88h1.55a1.46,1.46,0,0,0,.56,1,2,2,0,0,0,1.29.39,1.29,1.29,0,0,0,.9-.3,1,1,0,0,0,.33-.76.84.84,0,0,0-.25-.64,1.75,1.75,0,0,0-.63-.37,9,9,0,0,0-1-.27,11.44,11.44,0,0,1-1.37-.39,2.13,2.13,0,0,1-.9-.64,1.8,1.8,0,0,1-.37-1.2,2,2,0,0,1,.74-1.59,3.1,3.1,0,0,1,2-.61A3.26,3.26,0,0,1,362.73,197.76Z" fill="#ebbb00"/>
      <path d="M370.3,197.59a2.79,2.79,0,0,1,1.05,1.37v-1.79h1.6v7.71h-1.6v-1.79a2.79,2.79,0,0,1-1.05,1.37,3.05,3.05,0,0,1-1.79.52,3.42,3.42,0,0,1-1.8-.48,3.25,3.25,0,0,1-1.24-1.37,5.18,5.18,0,0,1,0-4.21,3.25,3.25,0,0,1,1.24-1.37,3.42,3.42,0,0,1,1.8-.48A3.05,3.05,0,0,1,370.3,197.59Zm-3,1.56a3.06,3.06,0,0,0,0,3.74,2.22,2.22,0,0,0,1.7.68,2.32,2.32,0,0,0,1.2-.31,2.24,2.24,0,0,0,.84-.89,3.07,3.07,0,0,0,0-2.68,2.23,2.23,0,0,0-.84-.9,2.32,2.32,0,0,0-1.2-.31A2.22,2.22,0,0,0,367.3,199.15Z" fill="#ebbb00"/>
      <path d="M377.35,196.49V195h3.16v9.88h-1.68v-8.39Z" fill="#ebbb00"/>
      <path d="M385.89,196a1.76,1.76,0,0,0-1.6.85,5.12,5.12,0,0,0-.53,2.65V200a2,2,0,0,1,.91-1.2,3.37,3.37,0,0,1,3.93.42,3.41,3.41,0,0,1,.83,2.45,3.72,3.72,0,0,1-.38,1.7,2.84,2.84,0,0,1-1.13,1.19,3.64,3.64,0,0,1-1.86.44,3.14,3.14,0,0,1-2.94-1.33,7.1,7.1,0,0,1-.8-3.65,7.4,7.4,0,0,1,.85-4,3.09,3.09,0,0,1,2.8-1.32,2.92,2.92,0,0,1,2.23.83,3.49,3.49,0,0,1,.9,2.13h-1.51Q387.36,196,385.89,196Zm-1.44,7a2,2,0,0,0,1.57.61,1.91,1.91,0,0,0,1.41-.52,1.94,1.94,0,0,0,.53-1.44,2.07,2.07,0,0,0-.53-1.53,2,2,0,0,0-1.44-.53,2.25,2.25,0,0,0-1.44.49,1.68,1.68,0,0,0-.62,1.4A2.22,2.22,0,0,0,384.45,203Z" fill="#ebbb00"/>
    </g>
    <g>
      <path d="M132.79,343.8V348l2.06.7v2.88l-11.23-4.14v-3.15l11.23-4.14v2.91Zm-2.08.7-4.16,1.41,4.16,1.42Z" fill="#4f5750"/>
      <path d="M126.1,339.89h-2.56v-4.58h11.31v2.88H126.1Z" fill="#4f5750"/>
      <path d="M123.46,327.51a2.91,2.91,0,0,1,2.73-1.73,2.66,2.66,0,0,1,1.78.57,2.47,2.47,0,0,1,.85,1.42h.08a2.73,2.73,0,0,1,2.74-2.19,3.35,3.35,0,0,1,1.74.45,3,3,0,0,1,1.18,1.3,4.59,4.59,0,0,1,.42,2.06,4.66,4.66,0,0,1-1,3.1,3.86,3.86,0,0,1-2.93,1.24V331a1.84,1.84,0,0,0,1.18-.42,1.42,1.42,0,0,0,.43-1.12,1.2,1.2,0,0,0-1.26-1.28q-1.39,0-1.39,2v.51h-2.22v-.5q0-1.81-1.3-1.81a1.2,1.2,0,0,0-.89.31,1.27,1.27,0,0,0,.08,1.75,1.76,1.76,0,0,0,1,.38v2.67a3.81,3.81,0,0,1-2.75-1.12,4.13,4.13,0,0,1-1-2.91A4.64,4.64,0,0,1,123.46,327.51Z" fill="#4f5750"/>
    </g>
    <g>
      <path d="M204,349.85l-4.12,2.7v1.6H204v1h-9.87v-3a3.48,3.48,0,0,1,.78-2.49,2.79,2.79,0,0,1,2.11-.82,2.73,2.73,0,0,1,2,.69,3.13,3.13,0,0,1,.87,2l4.14-2.79Zm-4.86,4.3v-2q0-2.38-2.06-2.38t-2.1,2.38v2Z" fill="#4f5750"/>
      <path d="M194.16,339.85H204v1h-4.68v5.35H204v1h-9.87v-1h4.38v-5.35h-4.38Z" fill="#4f5750"/>
      <path d="M195,336.72h3.72v-3.85h.77v3.85h3.77v-4.27H204v5.26h-9.87v-5.26h.8Z" fill="#4f5750"/>
      <path d="M194.16,329.75H204v1h-9.87Z" fill="#4f5750"/>
      <path d="M204,320.23v1l-8.25,5.4H204v1h-9.86v-1l8.26-5.4h-8.26v-1Z" fill="#4f5750"/>
    </g>
    <g>
      <path d="M102.67,29.53a2.55,2.55,0,0,1-1.06,1,3.7,3.7,0,0,1-1.75.38A4.38,4.38,0,0,1,98,30.55a3.15,3.15,0,0,1-1.27-1,2.84,2.84,0,0,1-.55-1.48h1.71a1.75,1.75,0,0,0,.55,1.11,1.79,1.79,0,0,0,1.29.46,1.54,1.54,0,0,0,1.13-.39,1.35,1.35,0,0,0,.4-1,1.3,1.3,0,0,0-.29-.87,2.07,2.07,0,0,0-.73-.54q-.43-.2-1.19-.45a10.36,10.36,0,0,1-1.5-.59,2.74,2.74,0,0,1-1-.85,2.45,2.45,0,0,1-.41-1.47,2.51,2.51,0,0,1,.39-1.4,2.55,2.55,0,0,1,1.12-.93,4,4,0,0,1,1.68-.33,3.68,3.68,0,0,1,2.4.73,2.74,2.74,0,0,1,1,1.9h-1.72a1.68,1.68,0,0,0-.52-1,1.64,1.64,0,0,0-1.17-.4,1.62,1.62,0,0,0-1.08.34,1.22,1.22,0,0,0-.41,1,1.24,1.24,0,0,0,.28.83,1.94,1.94,0,0,0,.71.52q.43.19,1.17.44a10.26,10.26,0,0,1,1.53.59,2.78,2.78,0,0,1,1,.88,2.53,2.53,0,0,1,.41,1.51A2.71,2.71,0,0,1,102.67,29.53Z" fill="#4f5750"/>
      <path d="M108.49,29.43v1.39h-1a2.64,2.64,0,0,1-1.87-.6,2.61,2.61,0,0,1-.64-2V24.46H103.9V23.1H105V21.18h1.61V23.1h1.86v1.36h-1.86v3.81a1.3,1.3,0,0,0,.25.91,1.18,1.18,0,0,0,.86.25Z" fill="#4f5750"/>
      <path d="M111.25,29v1.76h-1.81V29Z" fill="#4f5750"/>
      <path d="M123.38,21.71a4.08,4.08,0,0,1,1.55,2.37h-1.68a2.68,2.68,0,0,0-1.06-1.27,3.14,3.14,0,0,0-1.74-.48,3.2,3.2,0,0,0-1.66.43A3,3,0,0,0,117.65,24a4,4,0,0,0-.41,1.88,4.18,4.18,0,0,0,.42,1.95,2.92,2.92,0,0,0,1.18,1.24,3.57,3.57,0,0,0,1.77.43,3.12,3.12,0,0,0,2.11-.76,3.24,3.24,0,0,0,1.06-2.09h-3.63V25.45h5V27a4.73,4.73,0,0,1-.78,2,4.44,4.44,0,0,1-1.61,1.42,4.8,4.8,0,0,1-2.29.53,5,5,0,0,1-2.55-.64,4.4,4.4,0,0,1-1.71-1.79,6,6,0,0,1,0-5.22,4.37,4.37,0,0,1,1.7-1.78,5,5,0,0,1,2.54-.64A4.82,4.82,0,0,1,123.38,21.71Z" fill="#4f5750"/>
      <path d="M131.63,23.52a2.79,2.79,0,0,1,1,1.37V23.1h1.6v7.71h-1.6V29a2.79,2.79,0,0,1-1,1.37,3.05,3.05,0,0,1-1.79.52,3.42,3.42,0,0,1-1.8-.48,3.25,3.25,0,0,1-1.24-1.37,5.18,5.18,0,0,1,0-4.21A3.25,3.25,0,0,1,128,23.48a3.42,3.42,0,0,1,1.8-.48A3.05,3.05,0,0,1,131.63,23.52Zm-3,1.56a2.62,2.62,0,0,0-.64,1.87,2.62,2.62,0,0,0,.64,1.87,2.22,2.22,0,0,0,1.7.68,2.32,2.32,0,0,0,1.2-.31,2.24,2.24,0,0,0,.84-.89,3.07,3.07,0,0,0,0-2.68,2.23,2.23,0,0,0-.84-.9,2.32,2.32,0,0,0-1.2-.31A2.22,2.22,0,0,0,128.63,25.08Z" fill="#4f5750"/>
      <path d="M137.79,20.45V30.81h-1.6V20.45Z" fill="#4f5750"/>
      <path d="M141.32,20.45V30.81h-1.6V20.45Z" fill="#4f5750"/>
      <path d="M150.36,27.27h-5.94a2.43,2.43,0,0,0,.66,1.76,2.15,2.15,0,0,0,1.53.57A2.22,2.22,0,0,0,148,29.2a1.68,1.68,0,0,0,.68-1.08h1.71a3.28,3.28,0,0,1-1.92,2.43,4.18,4.18,0,0,1-1.75.36,4,4,0,0,1-2-.48,3.38,3.38,0,0,1-1.35-1.37,4.77,4.77,0,0,1,0-4.21,3.38,3.38,0,0,1,1.35-1.37,4.39,4.39,0,0,1,4,0,3.26,3.26,0,0,1,1.3,1.29,4,4,0,0,1,.4,2.51Zm-1.81-2a1.8,1.8,0,0,0-.78-.76,2.43,2.43,0,0,0-1.08-.25,2.24,2.24,0,0,0-1.57.57,2.34,2.34,0,0,0-.69,1.69h4.38A2.37,2.37,0,0,0,148.55,25.28Z" fill="#4f5750"/>
      <path d="M158.43,23.84a3.49,3.49,0,0,1,.81,2.48v4.49h-1.6V26.49a2.26,2.26,0,0,0-.53-1.6,1.9,1.9,0,0,0-1.46-.57,2,2,0,0,0-1.53.61,2.51,2.51,0,0,0-.57,1.79v4.1H152V23.1h1.6v1.69a2.59,2.59,0,0,1,1-1.34,3,3,0,0,1,1.68-.48A2.81,2.81,0,0,1,158.43,23.84Z" fill="#4f5750"/>
    </g>
    <g>
      <path d="M119,611.75a4.52,4.52,0,0,1,1.62,2.51H119a3,3,0,0,0-1.11-1.42,3.22,3.22,0,0,0-1.87-.52,2.91,2.91,0,0,0-1.58.43,3,3,0,0,0-1.09,1.24,4.61,4.61,0,0,0,0,3.75,3,3,0,0,0,1.09,1.24,2.91,2.91,0,0,0,1.58.43,3.22,3.22,0,0,0,1.87-.52,3,3,0,0,0,1.11-1.41h1.69A4.48,4.48,0,0,1,119,620a4.85,4.85,0,0,1-3,.92,4.78,4.78,0,0,1-2.48-.64,4.31,4.31,0,0,1-1.67-1.78,6.09,6.09,0,0,1,0-5.22,4.36,4.36,0,0,1,1.67-1.78,4.73,4.73,0,0,1,2.48-.64A4.83,4.83,0,0,1,119,611.75Z" fill="#4f5750"/>
      <path d="M128.73,613.84a3.5,3.5,0,0,1,.81,2.48v4.49h-1.6v-4.33a2.26,2.26,0,0,0-.53-1.6,1.9,1.9,0,0,0-1.46-.57,2,2,0,0,0-1.53.61,2.51,2.51,0,0,0-.57,1.79v4.1h-1.6V610.45h1.6v4.34a2.59,2.59,0,0,1,1-1.34,3,3,0,0,1,1.68-.48A2.81,2.81,0,0,1,128.73,613.84Z" fill="#4f5750"/>
      <path d="M138.51,613.1v7.71H136.9v-1.68a2.48,2.48,0,0,1-1,1.32,3.05,3.05,0,0,1-1.69.47,2.81,2.81,0,0,1-2.16-.87,3.49,3.49,0,0,1-.81-2.48V613.1h1.6v4.31a2.27,2.27,0,0,0,.53,1.62,1.9,1.9,0,0,0,1.46.57,2,2,0,0,0,1.53-.62,2.54,2.54,0,0,0,.57-1.79V613.1Z" fill="#4f5750"/>
      <path d="M143.15,613.41a3.18,3.18,0,0,1,1.68-.44v1.74h-.48a2.61,2.61,0,0,0-1.69.51,2,2,0,0,0-.64,1.69v3.91h-1.6V613.1H142v1.51A3,3,0,0,1,143.15,613.41Z" fill="#4f5750"/>
    </g>
    <g>
      <path d="M47.5,515.67H43.33l-.76,2.14H40.86l3.64-9.73h1.83L50,517.81H48.26Zm-.45-1.23-1.64-4.62-1.64,4.62Z" fill="#4f5750"/>
      <path d="M58.27,510.1v7.71H56.65v-1.68a2.48,2.48,0,0,1-1,1.32,3.05,3.05,0,0,1-1.69.47,2.81,2.81,0,0,1-2.16-.87,3.49,3.49,0,0,1-.81-2.48V510.1h1.6v4.31A2.27,2.27,0,0,0,53.1,516a1.9,1.9,0,0,0,1.46.57,2,2,0,0,0,1.53-.62,2.54,2.54,0,0,0,.57-1.79V510.1Z" fill="#4f5750"/>
      <path d="M64.89,510.69a2.93,2.93,0,0,1,1,1.85H64.38a1.63,1.63,0,0,0-.54-1,1.71,1.71,0,0,0-1.17-.38,1.37,1.37,0,0,0-.93.29,1,1,0,0,0-.33.78.77.77,0,0,0,.24.59,1.66,1.66,0,0,0,.59.35,10.24,10.24,0,0,0,1,.28,10.24,10.24,0,0,1,1.41.41,2.29,2.29,0,0,1,.92.67,1.86,1.86,0,0,1,.39,1.24,1.93,1.93,0,0,1-.74,1.57,3,3,0,0,1-2,.6,3.76,3.76,0,0,1-2.33-.67,2.77,2.77,0,0,1-1.07-1.88h1.55a1.46,1.46,0,0,0,.56,1,2,2,0,0,0,1.29.39,1.29,1.29,0,0,0,.9-.3,1,1,0,0,0,.33-.76.84.84,0,0,0-.25-.64,1.74,1.74,0,0,0-.63-.37,8.77,8.77,0,0,0-1-.27,11.3,11.3,0,0,1-1.36-.39,2.13,2.13,0,0,1-.9-.64,1.8,1.8,0,0,1-.37-1.2,2,2,0,0,1,.73-1.59,3.1,3.1,0,0,1,2-.61A3.26,3.26,0,0,1,64.89,510.69Z" fill="#4f5750"/>
      <path d="M69.86,508.8a1.52,1.52,0,0,0-.38,1.17v.13h1.69v1.37H69.48v6.34H67.87v-6.34h-1V510.1h1v-.25a2.64,2.64,0,0,1,.83-2.12,3.44,3.44,0,0,1,2.48-.62v1.4A1.83,1.83,0,0,0,69.86,508.8Z" fill="#4f5750"/>
      <path d="M77.35,510.52a2.78,2.78,0,0,1,1,1.37V510.1H80v7.71H78.4V516a2.79,2.79,0,0,1-1,1.37,3.06,3.06,0,0,1-1.79.52,3.42,3.42,0,0,1-1.8-.48,3.26,3.26,0,0,1-1.24-1.37,5.18,5.18,0,0,1,0-4.21,3.25,3.25,0,0,1,1.24-1.37,3.42,3.42,0,0,1,1.8-.48A3,3,0,0,1,77.35,510.52Zm-3,1.56a3.06,3.06,0,0,0,0,3.74,2.22,2.22,0,0,0,1.7.68,2.32,2.32,0,0,0,1.2-.31,2.24,2.24,0,0,0,.84-.89,3.07,3.07,0,0,0,0-2.68,2.23,2.23,0,0,0-.84-.9,2.32,2.32,0,0,0-1.2-.31A2.22,2.22,0,0,0,74.34,512.08Z" fill="#4f5750"/>
      <path d="M88.38,510.84a3.5,3.5,0,0,1,.81,2.48v4.49H87.6v-4.33a2.25,2.25,0,0,0-.53-1.6,1.9,1.9,0,0,0-1.46-.57,2,2,0,0,0-1.53.61,2.51,2.51,0,0,0-.57,1.79v4.1h-1.6V507.45h1.6v4.34a2.58,2.58,0,0,1,1-1.34,3,3,0,0,1,1.68-.48A2.81,2.81,0,0,1,88.38,510.84Z" fill="#4f5750"/>
      <path d="M93.77,510.41a3.18,3.18,0,0,1,1.68-.44v1.74H95a2.61,2.61,0,0,0-1.69.51,2,2,0,0,0-.64,1.69v3.91h-1.6V510.1h1.6v1.51A3,3,0,0,1,93.77,510.41Z" fill="#4f5750"/>
      <path d="M100.52,516.42v1.39h-1a2.64,2.64,0,0,1-1.87-.6,2.61,2.61,0,0,1-.64-2v-3.78H95.92V510.1H97v-1.92h1.61v1.92h1.86v1.36H98.64v3.81a1.3,1.3,0,0,0,.25.91,1.18,1.18,0,0,0,.86.25Z" fill="#4f5750"/>
      <path d="M44,523.93v1.29H41.25v8.6H39.64v-8.6H36.89v-1.29Z" fill="#4f5750"/>
      <path d="M47.91,526.41a3.18,3.18,0,0,1,1.68-.44v1.74h-.48a2.61,2.61,0,0,0-1.69.51,2,2,0,0,0-.64,1.69v3.91H45.2V526.1h1.6v1.51A3,3,0,0,1,47.91,526.41Z" fill="#4f5750"/>
      <path d="M57.89,526.1v7.71H56.28v-1.68a2.48,2.48,0,0,1-1,1.32,3.05,3.05,0,0,1-1.69.47,2.81,2.81,0,0,1-2.16-.87,3.49,3.49,0,0,1-.81-2.48V526.1h1.6v4.31a2.27,2.27,0,0,0,.53,1.62,1.9,1.9,0,0,0,1.46.57,2,2,0,0,0,1.53-.62,2.54,2.54,0,0,0,.57-1.79V526.1Zm-5.45-2.37a.76.76,0,0,1,.56-.22.78.78,0,0,1,.57.22.75.75,0,0,1,.23.56.76.76,0,0,1-.23.55.77.77,0,0,1-.57.23.75.75,0,0,1-.56-.23.77.77,0,0,1-.22-.55A.76.76,0,0,1,52.45,523.73Zm2.48,0a.78.78,0,0,1,1.34.56.77.77,0,0,1-.22.55.8.8,0,0,1-1.12,0,.77.77,0,0,1-.22-.55A.76.76,0,0,1,54.93,523.73Z" fill="#4f5750"/>
      <path d="M66,526.48a3.25,3.25,0,0,1,1.24,1.37,5.18,5.18,0,0,1,0,4.21A3.26,3.26,0,0,1,66,533.43a3.42,3.42,0,0,1-1.8.48,3.06,3.06,0,0,1-1.79-.52,2.71,2.71,0,0,1-1-1.37v1.79h-1.6V523.45h1.6v4.44a2.7,2.7,0,0,1,1-1.37,3,3,0,0,1,1.79-.52A3.42,3.42,0,0,1,66,526.48Zm-3.49,1.24a2.22,2.22,0,0,0-.84.9,3.07,3.07,0,0,0,0,2.68,2.24,2.24,0,0,0,.84.89,2.32,2.32,0,0,0,1.2.31,2.24,2.24,0,0,0,1.71-.68,3,3,0,0,0,0-3.73,2.23,2.23,0,0,0-1.71-.69A2.32,2.32,0,0,0,62.54,527.71Z" fill="#4f5750"/>
      <path d="M75.48,526.48a3.25,3.25,0,0,1,1.24,1.37,5.18,5.18,0,0,1,0,4.21,3.26,3.26,0,0,1-1.24,1.37,3.42,3.42,0,0,1-1.8.48,3.06,3.06,0,0,1-1.79-.52,2.71,2.71,0,0,1-1-1.37v1.79h-1.6V523.45h1.6v4.44a2.7,2.7,0,0,1,1-1.37,3,3,0,0,1,1.79-.52A3.42,3.42,0,0,1,75.48,526.48ZM72,527.71a2.22,2.22,0,0,0-.84.9,3.07,3.07,0,0,0,0,2.68,2.24,2.24,0,0,0,.84.89,2.32,2.32,0,0,0,1.2.31,2.24,2.24,0,0,0,1.71-.68,3,3,0,0,0,0-3.73,2.23,2.23,0,0,0-1.71-.69A2.32,2.32,0,0,0,72,527.71Z" fill="#4f5750"/>
      <path d="M83.6,526.52a2.79,2.79,0,0,1,1,1.37V526.1h1.6v7.71h-1.6V532a2.79,2.79,0,0,1-1,1.37,3.06,3.06,0,0,1-1.79.52,3.42,3.42,0,0,1-1.8-.48,3.26,3.26,0,0,1-1.24-1.37,5.18,5.18,0,0,1,0-4.21A3.25,3.25,0,0,1,80,526.48a3.42,3.42,0,0,1,1.8-.48A3,3,0,0,1,83.6,526.52Zm-3,1.56a3.06,3.06,0,0,0,0,3.74,2.22,2.22,0,0,0,1.7.68,2.32,2.32,0,0,0,1.2-.31,2.24,2.24,0,0,0,.84-.89,3.07,3.07,0,0,0,0-2.68,2.23,2.23,0,0,0-.84-.9,2.32,2.32,0,0,0-1.2-.31A2.22,2.22,0,0,0,80.59,528.08Z" fill="#4f5750"/>
      <path d="M94.07,526.79a3.41,3.41,0,0,1,1.22,2.15H93.59a1.81,1.81,0,0,0-.68-1.14,2.16,2.16,0,0,0-1.35-.41A2,2,0,0,0,90,528a3.28,3.28,0,0,0,0,3.83,2,2,0,0,0,1.54.66,2.14,2.14,0,0,0,1.35-.42,1.84,1.84,0,0,0,.68-1.15h1.69a3.44,3.44,0,0,1-1.22,2.16,3.8,3.8,0,0,1-2.48.8,4,4,0,0,1-2-.48,3.38,3.38,0,0,1-1.35-1.37,4.77,4.77,0,0,1,0-4.21,3.38,3.38,0,0,1,1.35-1.37,4,4,0,0,1,2-.48A3.82,3.82,0,0,1,94.07,526.79Z" fill="#4f5750"/>
      <path d="M103.29,526.84a3.49,3.49,0,0,1,.81,2.48v4.49h-1.6v-4.33a2.26,2.26,0,0,0-.53-1.6,1.9,1.9,0,0,0-1.46-.57,2,2,0,0,0-1.53.61,2.51,2.51,0,0,0-.57,1.79v4.1h-1.6V523.45h1.6v4.34a2.59,2.59,0,0,1,1-1.34,3,3,0,0,1,1.68-.48A2.81,2.81,0,0,1,103.29,526.84Z" fill="#4f5750"/>
      <path d="M53.54,545.57a2.39,2.39,0,0,1,.55,1.57,2.46,2.46,0,0,1-.83,2,3.53,3.53,0,0,1-2.39.72H46.94v-9.88H50.8a3.45,3.45,0,0,1,2.27.66,2.55,2.55,0,0,1,.3,3.35,2.37,2.37,0,0,1-1.29.78A2.45,2.45,0,0,1,53.54,545.57Zm-5-1.39h2a1.87,1.87,0,0,0,1.28-.39,1.38,1.38,0,0,0,.44-1.09,1.37,1.37,0,0,0-.44-1.08,2,2,0,0,0-1.34-.39H48.54Zm3.42,3.9a1.59,1.59,0,0,0,0-2.32,2.15,2.15,0,0,0-1.41-.42h-2v3.15h2A2.14,2.14,0,0,0,52,548.08Z" fill="#4f5750"/>
      <path d="M60.48,542.52a2.78,2.78,0,0,1,1,1.37V542.1h1.6v7.71h-1.6V548a2.79,2.79,0,0,1-1,1.37,3.06,3.06,0,0,1-1.79.52,3.42,3.42,0,0,1-1.8-.48,3.26,3.26,0,0,1-1.24-1.37,5.18,5.18,0,0,1,0-4.21,3.25,3.25,0,0,1,1.24-1.37,3.42,3.42,0,0,1,1.8-.48A3,3,0,0,1,60.48,542.52Zm-3,1.56a3.06,3.06,0,0,0,0,3.74,2.22,2.22,0,0,0,1.7.68,2.32,2.32,0,0,0,1.2-.31,2.24,2.24,0,0,0,.84-.89,3.07,3.07,0,0,0,0-2.68,2.23,2.23,0,0,0-.84-.9,2.32,2.32,0,0,0-1.2-.31A2.22,2.22,0,0,0,57.47,544.08Z" fill="#4f5750"/>
      <path d="M66.64,539.45v10.36H65V539.45Z" fill="#4f5750"/>
      <path d="M69.72,548.47h4v1.34H68v-1.27l3.75-5.1H68.05V542.1h5.49v1.27Z" fill="#4f5750"/>
      <path d="M82.11,546.27H76.17a2.43,2.43,0,0,0,.66,1.76,2.15,2.15,0,0,0,1.53.57,2.22,2.22,0,0,0,1.35-.41,1.68,1.68,0,0,0,.68-1.08h1.71a3.28,3.28,0,0,1-1.92,2.43,4.19,4.19,0,0,1-1.75.36,4,4,0,0,1-2-.48,3.39,3.39,0,0,1-1.35-1.37,4.78,4.78,0,0,1,0-4.21,3.38,3.38,0,0,1,1.35-1.37,4.38,4.38,0,0,1,4,0,3.26,3.26,0,0,1,1.3,1.29,4,4,0,0,1,.4,2.51Zm-1.81-2a1.8,1.8,0,0,0-.78-.76,2.42,2.42,0,0,0-1.08-.25,2.24,2.24,0,0,0-1.57.57,2.34,2.34,0,0,0-.69,1.69h4.38A2.38,2.38,0,0,0,80.29,544.27Z" fill="#4f5750"/>
      <path d="M86.42,542.41A3.19,3.19,0,0,1,88.1,542v1.74h-.48a2.62,2.62,0,0,0-1.69.51,2,2,0,0,0-.64,1.69v3.91H83.7V542.1h1.6v1.51A3,3,0,0,1,86.42,542.41Z" fill="#4f5750"/>
      <path d="M94,542.69a2.93,2.93,0,0,1,1,1.85H93.49a1.63,1.63,0,0,0-.54-1,1.71,1.71,0,0,0-1.17-.38,1.37,1.37,0,0,0-.93.29,1,1,0,0,0-.33.78.77.77,0,0,0,.24.59,1.67,1.67,0,0,0,.6.35,10.15,10.15,0,0,0,1,.28,10.22,10.22,0,0,1,1.41.41,2.29,2.29,0,0,1,.92.67,1.86,1.86,0,0,1,.38,1.24,1.93,1.93,0,0,1-.73,1.57,3,3,0,0,1-2,.6,3.77,3.77,0,0,1-2.33-.67A2.77,2.77,0,0,1,89,547.36h1.55a1.46,1.46,0,0,0,.56,1,2,2,0,0,0,1.29.39,1.29,1.29,0,0,0,.9-.3,1,1,0,0,0,.33-.76.84.84,0,0,0-.25-.64,1.74,1.74,0,0,0-.63-.37,8.85,8.85,0,0,0-1-.27,11.26,11.26,0,0,1-1.37-.39,2.13,2.13,0,0,1-.9-.64,1.8,1.8,0,0,1-.37-1.2,2,2,0,0,1,.74-1.59,3.1,3.1,0,0,1,2-.61A3.26,3.26,0,0,1,94,542.69Z" fill="#4f5750"/>
    </g>
    <g>
      <path d="M47.5,126.67H43.33l-.76,2.14H40.86l3.64-9.73h1.83L50,128.81H48.26Zm-.45-1.23-1.64-4.62-1.64,4.62Z" fill="#4f5750"/>
      <path d="M58.27,121.1v7.71H56.65v-1.68a2.48,2.48,0,0,1-1,1.32,3.06,3.06,0,0,1-1.69.47,2.81,2.81,0,0,1-2.16-.87,3.49,3.49,0,0,1-.81-2.48V121.1h1.6v4.31A2.27,2.27,0,0,0,53.1,127a1.9,1.9,0,0,0,1.46.57,2,2,0,0,0,1.53-.62,2.54,2.54,0,0,0,.57-1.79V121.1Z" fill="#4f5750"/>
      <path d="M64.89,121.69a2.93,2.93,0,0,1,1,1.85H64.38a1.63,1.63,0,0,0-.54-1,1.71,1.71,0,0,0-1.17-.39,1.37,1.37,0,0,0-.93.29,1,1,0,0,0-.33.78.77.77,0,0,0,.24.59,1.66,1.66,0,0,0,.59.35,10.24,10.24,0,0,0,1,.28,10.16,10.16,0,0,1,1.41.41,2.29,2.29,0,0,1,.92.67,1.86,1.86,0,0,1,.39,1.24,1.93,1.93,0,0,1-.74,1.57,3,3,0,0,1-2,.6,3.76,3.76,0,0,1-2.33-.67,2.76,2.76,0,0,1-1.07-1.88h1.55a1.46,1.46,0,0,0,.56,1,2,2,0,0,0,1.29.39,1.29,1.29,0,0,0,.9-.3,1,1,0,0,0,.33-.76.84.84,0,0,0-.25-.64,1.75,1.75,0,0,0-.63-.37,8.88,8.88,0,0,0-1-.27,11.48,11.48,0,0,1-1.36-.39,2.13,2.13,0,0,1-.9-.64,1.8,1.8,0,0,1-.37-1.2,2,2,0,0,1,.73-1.59,3.1,3.1,0,0,1,2-.61A3.26,3.26,0,0,1,64.89,121.69Z" fill="#4f5750"/>
      <path d="M69.86,119.8a1.52,1.52,0,0,0-.38,1.17v.13h1.69v1.37H69.48v6.34H67.87v-6.34h-1V121.1h1v-.25a2.64,2.64,0,0,1,.83-2.12,3.45,3.45,0,0,1,2.48-.62v1.4A1.83,1.83,0,0,0,69.86,119.8Z" fill="#4f5750"/>
      <path d="M77.35,121.52a2.79,2.79,0,0,1,1,1.37V121.1H80v7.71H78.4V127a2.79,2.79,0,0,1-1,1.37,3.05,3.05,0,0,1-1.79.52,3.42,3.42,0,0,1-1.8-.48,3.25,3.25,0,0,1-1.24-1.37,5.18,5.18,0,0,1,0-4.21,3.25,3.25,0,0,1,1.24-1.37,3.42,3.42,0,0,1,1.8-.48A3.05,3.05,0,0,1,77.35,121.52Zm-3,1.56a3.06,3.06,0,0,0,0,3.74,2.22,2.22,0,0,0,1.7.68,2.32,2.32,0,0,0,1.2-.31,2.24,2.24,0,0,0,.84-.89,3.07,3.07,0,0,0,0-2.68,2.23,2.23,0,0,0-.84-.9,2.32,2.32,0,0,0-1.2-.31A2.22,2.22,0,0,0,74.34,123.08Z" fill="#4f5750"/>
      <path d="M88.38,121.84a3.5,3.5,0,0,1,.81,2.48v4.49H87.6v-4.33a2.25,2.25,0,0,0-.53-1.6,1.9,1.9,0,0,0-1.46-.57,2,2,0,0,0-1.53.61,2.51,2.51,0,0,0-.57,1.79v4.1h-1.6V118.45h1.6v4.34a2.58,2.58,0,0,1,1-1.34,3,3,0,0,1,1.68-.48A2.81,2.81,0,0,1,88.38,121.84Z" fill="#4f5750"/>
      <path d="M93.77,121.41a3.18,3.18,0,0,1,1.68-.44v1.74H95a2.61,2.61,0,0,0-1.69.51,2,2,0,0,0-.64,1.69v3.91h-1.6V121.1h1.6v1.51A3,3,0,0,1,93.77,121.41Z" fill="#4f5750"/>
      <path d="M100.52,127.43v1.39h-1a2.64,2.64,0,0,1-1.87-.6,2.61,2.61,0,0,1-.64-2v-3.78H95.92V121.1H97v-1.92h1.61v1.92h1.86v1.36H98.64v3.81a1.3,1.3,0,0,0,.25.91,1.18,1.18,0,0,0,.86.25Z" fill="#4f5750"/>
      <path d="M50.82,134.93l2.84,8.18,2.86-8.18h1.74l-3.57,9.88h-2l-3.56-9.88Z" fill="#4f5750"/>
      <path d="M64.33,137.52a2.79,2.79,0,0,1,1,1.37V137.1H67v7.71h-1.6V143a2.79,2.79,0,0,1-1,1.37,3.05,3.05,0,0,1-1.79.52,3.42,3.42,0,0,1-1.8-.48,3.25,3.25,0,0,1-1.24-1.37,5.18,5.18,0,0,1,0-4.21,3.25,3.25,0,0,1,1.24-1.37,3.42,3.42,0,0,1,1.8-.48A3.05,3.05,0,0,1,64.33,137.52Zm-3,1.56a3.06,3.06,0,0,0,0,3.74,2.22,2.22,0,0,0,1.7.68,2.32,2.32,0,0,0,1.2-.31,2.24,2.24,0,0,0,.84-.89,3.07,3.07,0,0,0,0-2.68,2.23,2.23,0,0,0-.84-.9,2.32,2.32,0,0,0-1.2-.31A2.22,2.22,0,0,0,61.32,139.08Z" fill="#4f5750"/>
      <path d="M73.78,137.52a2.71,2.71,0,0,1,1,1.37v-4.44h1.61v10.36H74.81V143a2.71,2.71,0,0,1-1,1.37,3.05,3.05,0,0,1-1.79.52,3.42,3.42,0,0,1-1.8-.48,3.25,3.25,0,0,1-1.24-1.37,5.18,5.18,0,0,1,0-4.21,3.25,3.25,0,0,1,1.24-1.37A3.42,3.42,0,0,1,72,137,3.05,3.05,0,0,1,73.78,137.52Zm-3,1.56a3.06,3.06,0,0,0,0,3.74,2.22,2.22,0,0,0,1.7.68,2.32,2.32,0,0,0,1.2-.31,2.24,2.24,0,0,0,.84-.89,3.07,3.07,0,0,0,0-2.68,2.23,2.23,0,0,0-.84-.9,2.32,2.32,0,0,0-1.2-.31A2.22,2.22,0,0,0,70.77,139.08Z" fill="#4f5750"/>
      <path d="M85.45,137.1v7.71H83.84v-1.68a2.48,2.48,0,0,1-1,1.32,3.06,3.06,0,0,1-1.69.47,2.81,2.81,0,0,1-2.16-.87,3.49,3.49,0,0,1-.81-2.48V137.1h1.6v4.31a2.27,2.27,0,0,0,.53,1.62,1.9,1.9,0,0,0,1.46.57,2,2,0,0,0,1.53-.62,2.54,2.54,0,0,0,.57-1.79V137.1Z" fill="#4f5750"/>
      <path d="M88.52,143.47h4v1.34H86.75v-1.27l3.75-5.1H86.85V137.1h5.49v1.27Z" fill="#4f5750"/>
      <path d="M50.4,159.53a2.55,2.55,0,0,1-1.06,1,3.7,3.7,0,0,1-1.75.38,4.38,4.38,0,0,1-1.81-.36,3.15,3.15,0,0,1-1.27-1,2.84,2.84,0,0,1-.55-1.48h1.71a1.75,1.75,0,0,0,.55,1.11,1.79,1.79,0,0,0,1.29.46,1.54,1.54,0,0,0,1.13-.39,1.35,1.35,0,0,0,.4-1,1.3,1.3,0,0,0-.29-.87,2.07,2.07,0,0,0-.73-.54q-.43-.2-1.19-.45a10.36,10.36,0,0,1-1.5-.59,2.74,2.74,0,0,1-1-.85,2.45,2.45,0,0,1-.41-1.47,2.51,2.51,0,0,1,.39-1.4,2.55,2.55,0,0,1,1.12-.93,4,4,0,0,1,1.68-.33,3.68,3.68,0,0,1,2.4.73,2.74,2.74,0,0,1,1,1.9H48.81a1.68,1.68,0,0,0-.52-1,1.64,1.64,0,0,0-1.17-.4,1.62,1.62,0,0,0-1.08.34,1.22,1.22,0,0,0-.41,1,1.24,1.24,0,0,0,.28.83,1.94,1.94,0,0,0,.71.52q.43.19,1.17.44a10.26,10.26,0,0,1,1.53.59,2.78,2.78,0,0,1,1,.88,2.53,2.53,0,0,1,.41,1.51A2.71,2.71,0,0,1,50.4,159.53Z" fill="#4f5750"/>
      <path d="M59.46,157.27H53.52a2.43,2.43,0,0,0,.66,1.76,2.15,2.15,0,0,0,1.53.57,2.22,2.22,0,0,0,1.35-.41,1.68,1.68,0,0,0,.68-1.08h1.71a3.28,3.28,0,0,1-1.92,2.43,4.18,4.18,0,0,1-1.75.36,4,4,0,0,1-2-.48,3.39,3.39,0,0,1-1.35-1.37,4.78,4.78,0,0,1,0-4.21,3.39,3.39,0,0,1,1.35-1.37,4.39,4.39,0,0,1,4,0,3.27,3.27,0,0,1,1.3,1.29,4,4,0,0,1,.4,2.51Zm-1.81-2a1.81,1.81,0,0,0-.78-.76,2.42,2.42,0,0,0-1.08-.25,2.24,2.24,0,0,0-1.57.57,2.34,2.34,0,0,0-.69,1.69H57.9A2.38,2.38,0,0,0,57.64,155.27Z" fill="#4f5750"/>
      <path d="M64.21,159.16l2.18-6.06h1.71l-2.94,7.71H63.23l-2.94-7.71H62Z" fill="#4f5750"/>
      <path d="M76.4,157.27H70.46a2.43,2.43,0,0,0,.66,1.76,2.15,2.15,0,0,0,1.53.57A2.22,2.22,0,0,0,74,159.2a1.68,1.68,0,0,0,.68-1.08h1.71a3.28,3.28,0,0,1-1.92,2.43,4.18,4.18,0,0,1-1.75.36,4,4,0,0,1-2-.48,3.39,3.39,0,0,1-1.35-1.37,4.78,4.78,0,0,1,0-4.21,3.39,3.39,0,0,1,1.35-1.37,4.39,4.39,0,0,1,4,0,3.27,3.27,0,0,1,1.3,1.29,4,4,0,0,1,.4,2.51Zm-1.81-2a1.81,1.81,0,0,0-.78-.76,2.42,2.42,0,0,0-1.08-.25,2.24,2.24,0,0,0-1.57.57,2.34,2.34,0,0,0-.69,1.69h4.38A2.38,2.38,0,0,0,74.58,155.27Z" fill="#4f5750"/>
      <path d="M79.59,150.45v10.36H78V150.45Z" fill="#4f5750"/>
      <path d="M88.63,157.27H82.69a2.43,2.43,0,0,0,.66,1.76,2.15,2.15,0,0,0,1.53.57,2.22,2.22,0,0,0,1.35-.41,1.68,1.68,0,0,0,.68-1.08h1.71a3.28,3.28,0,0,1-1.92,2.43,4.18,4.18,0,0,1-1.75.36,4,4,0,0,1-2-.48,3.39,3.39,0,0,1-1.35-1.37,4.78,4.78,0,0,1,0-4.21A3.39,3.39,0,0,1,83,153.48a4.39,4.39,0,0,1,4,0,3.26,3.26,0,0,1,1.3,1.29,4,4,0,0,1,.4,2.51Zm-1.81-2a1.8,1.8,0,0,0-.78-.76,2.43,2.43,0,0,0-1.08-.25,2.24,2.24,0,0,0-1.57.57,2.34,2.34,0,0,0-.69,1.69h4.38A2.37,2.37,0,0,0,86.82,155.27Z" fill="#4f5750"/>
      <path d="M96.69,153.84a3.49,3.49,0,0,1,.81,2.48v4.49h-1.6v-4.33a2.26,2.26,0,0,0-.53-1.6,1.9,1.9,0,0,0-1.46-.57,2,2,0,0,0-1.53.61,2.51,2.51,0,0,0-.57,1.79v4.1h-1.6V153.1h1.6v1.69a2.59,2.59,0,0,1,1-1.34,3,3,0,0,1,1.68-.48A2.81,2.81,0,0,1,96.69,153.84Z" fill="#4f5750"/>
    </g>
    <g>
      <path d="M316.2,71.79H320v1H314.8v-1l3.7-5.76h-3.62V65h5v1Z" fill="#4f5750"/>
      <path d="M325.55,67a2.69,2.69,0,0,1,1.1,1.08,3.65,3.65,0,0,1,0,3.31,2.69,2.69,0,0,1-1.1,1.08,3.33,3.33,0,0,1-1.58.37,3.29,3.29,0,0,1-1.58-.37,2.72,2.72,0,0,1-1.1-1.08,3.6,3.6,0,0,1,0-3.31,2.73,2.73,0,0,1,1.1-1.08,3.29,3.29,0,0,1,1.58-.37A3.33,3.33,0,0,1,325.55,67Zm-2.47.94a1.63,1.63,0,0,0-.66.68,2.66,2.66,0,0,0,0,2.24,1.63,1.63,0,0,0,.66.67,1.91,1.91,0,0,0,1.78,0,1.63,1.63,0,0,0,.66-.67,2.66,2.66,0,0,0,0-2.24,1.63,1.63,0,0,0-.66-.68,1.91,1.91,0,0,0-1.78,0Z" fill="#4f5750"/>
      <path d="M329.51,64.67v8.14h-1.25V64.67Z" fill="#4f5750"/>
      <path d="M332.28,64.67v8.14H331V64.67Z" fill="#4f5750"/>
      <path d="M337.5,67.22a2.3,2.3,0,0,1,.79,1.46H337.1a1.28,1.28,0,0,0-.42-.8,1.35,1.35,0,0,0-.92-.3,1.08,1.08,0,0,0-.73.23.77.77,0,0,0-.26.61.6.6,0,0,0,.19.46,1.3,1.3,0,0,0,.47.27,8.08,8.08,0,0,0,.8.22,8,8,0,0,1,1.11.32,1.8,1.8,0,0,1,.73.52,1.46,1.46,0,0,1,.3,1,1.52,1.52,0,0,1-.58,1.23,2.38,2.38,0,0,1-1.56.47,3,3,0,0,1-1.83-.53,2.17,2.17,0,0,1-.84-1.47h1.22a1.15,1.15,0,0,0,.44.8,1.57,1.57,0,0,0,1,.31,1,1,0,0,0,.71-.24.78.78,0,0,0,.26-.6.66.66,0,0,0-.2-.51,1.38,1.38,0,0,0-.5-.29,6.93,6.93,0,0,0-.81-.21,8.92,8.92,0,0,1-1.07-.31,1.66,1.66,0,0,1-.7-.5,1.41,1.41,0,0,1-.29-.94,1.55,1.55,0,0,1,.58-1.25,2.44,2.44,0,0,1,1.6-.48A2.56,2.56,0,0,1,337.5,67.22Z" fill="#4f5750"/>
      <path d="M342.66,71.72v1.09h-.77a1.73,1.73,0,0,1-2-2v-3H339V66.75h.87V65.25h1.26v1.51h1.46v1.07h-1.46v3a1,1,0,0,0,.19.71.93.93,0,0,0,.68.2Z" fill="#4f5750"/>
      <path d="M346,67a2.5,2.5,0,0,1,1.32-.35V68h-.37a2.06,2.06,0,0,0-1.33.4,1.6,1.6,0,0,0-.5,1.33v3.07h-1.25V66.75h1.25v1.19A2.33,2.33,0,0,1,346,67Z" fill="#4f5750"/>
      <path d="M352.06,67.08a2.19,2.19,0,0,1,.83,1.08V66.75h1.25v6.06h-1.25V71.41a2.19,2.19,0,0,1-.83,1.08,2.4,2.4,0,0,1-1.41.41,2.69,2.69,0,0,1-1.41-.37,2.56,2.56,0,0,1-1-1.08,4.07,4.07,0,0,1,0-3.31,2.56,2.56,0,0,1,1-1.08,2.69,2.69,0,0,1,1.41-.37A2.4,2.4,0,0,1,352.06,67.08Zm-2.36,1.23a2.4,2.4,0,0,0,0,2.94,1.75,1.75,0,0,0,1.34.53,1.82,1.82,0,0,0,.95-.25,1.75,1.75,0,0,0,.66-.7,2.41,2.41,0,0,0,0-2.11A1.75,1.75,0,0,0,352,68a1.82,1.82,0,0,0-.95-.25A1.75,1.75,0,0,0,349.7,68.31Z" fill="#4f5750"/>
      <path d="M359.35,67.22a2.31,2.31,0,0,1,.79,1.46h-1.19a1.28,1.28,0,0,0-.42-.8,1.35,1.35,0,0,0-.92-.3,1.08,1.08,0,0,0-.73.23.77.77,0,0,0-.26.61.6.6,0,0,0,.19.46,1.31,1.31,0,0,0,.47.27,8,8,0,0,0,.8.22,8,8,0,0,1,1.11.32,1.8,1.8,0,0,1,.73.52,1.46,1.46,0,0,1,.3,1,1.52,1.52,0,0,1-.58,1.23,2.38,2.38,0,0,1-1.56.47,3,3,0,0,1-1.83-.53,2.17,2.17,0,0,1-.84-1.47h1.22a1.15,1.15,0,0,0,.44.8,1.57,1.57,0,0,0,1,.31,1,1,0,0,0,.71-.24.78.78,0,0,0,.26-.6.66.66,0,0,0-.2-.51,1.36,1.36,0,0,0-.5-.29,6.93,6.93,0,0,0-.81-.21,8.92,8.92,0,0,1-1.07-.31,1.66,1.66,0,0,1-.7-.5,1.41,1.41,0,0,1-.29-.94,1.55,1.55,0,0,1,.58-1.25,2.44,2.44,0,0,1,1.6-.48A2.56,2.56,0,0,1,359.35,67.22Z" fill="#4f5750"/>
      <path d="M365.16,67.22a2.31,2.31,0,0,1,.79,1.46h-1.19a1.28,1.28,0,0,0-.42-.8,1.35,1.35,0,0,0-.92-.3,1.08,1.08,0,0,0-.73.23.77.77,0,0,0-.26.61.6.6,0,0,0,.19.46,1.31,1.31,0,0,0,.47.27,8,8,0,0,0,.8.22,8,8,0,0,1,1.11.32,1.8,1.8,0,0,1,.73.52,1.46,1.46,0,0,1,.3,1,1.52,1.52,0,0,1-.58,1.23,2.38,2.38,0,0,1-1.56.47,3,3,0,0,1-1.83-.53,2.17,2.17,0,0,1-.84-1.47h1.22a1.15,1.15,0,0,0,.44.8,1.57,1.57,0,0,0,1,.31,1,1,0,0,0,.71-.24.78.78,0,0,0,.26-.6.66.66,0,0,0-.2-.51,1.36,1.36,0,0,0-.5-.29,6.93,6.93,0,0,0-.81-.21,9,9,0,0,1-1.07-.31,1.67,1.67,0,0,1-.7-.5,1.41,1.41,0,0,1-.29-.94,1.55,1.55,0,0,1,.58-1.25,2.44,2.44,0,0,1,1.6-.48A2.56,2.56,0,0,1,365.16,67.22Z" fill="#4f5750"/>
      <path d="M372.85,70h-4.66a1.91,1.91,0,0,0,.52,1.39,1.69,1.69,0,0,0,1.2.45,1.74,1.74,0,0,0,1.06-.32,1.32,1.32,0,0,0,.53-.85h1.34a2.57,2.57,0,0,1-1.51,1.91,3.28,3.28,0,0,1-1.37.28,3.17,3.17,0,0,1-1.56-.37,2.66,2.66,0,0,1-1.06-1.08,3.75,3.75,0,0,1,0-3.31A2.66,2.66,0,0,1,368.4,67a3.45,3.45,0,0,1,3.11,0,2.56,2.56,0,0,1,1,1,3.13,3.13,0,0,1,.31,2Zm-1.42-1.57a1.42,1.42,0,0,0-.62-.59,1.9,1.9,0,0,0-.85-.19,1.76,1.76,0,0,0-1.23.45,1.84,1.84,0,0,0-.54,1.33h3.44A1.87,1.87,0,0,0,371.43,68.46Z" fill="#4f5750"/>
    </g>
    <g>
      <path d="M301.45,228v7.77H300.2V228Z" fill="#4f5750"/>
      <path d="M308,230.34a2.74,2.74,0,0,1,.64,1.95v3.53h-1.25v-3.4a1.77,1.77,0,0,0-.42-1.26,1.49,1.49,0,0,0-1.14-.45,1.57,1.57,0,0,0-1.2.48,2,2,0,0,0-.45,1.4v3.22H303v-6.06h1.25v1.33A2,2,0,0,1,305,230a2.36,2.36,0,0,1,1.32-.37A2.21,2.21,0,0,1,308,230.34Z" fill="#4f5750"/>
      <path d="M314,230.08a2.13,2.13,0,0,1,.81,1.08v-3.49h1.26v8.14H314.8v-1.41a2.13,2.13,0,0,1-.81,1.08,2.4,2.4,0,0,1-1.41.41,2.69,2.69,0,0,1-1.41-.37,2.56,2.56,0,0,1-1-1.08,4.07,4.07,0,0,1,0-3.31,2.56,2.56,0,0,1,1-1.08,2.69,2.69,0,0,1,1.41-.37A2.4,2.4,0,0,1,314,230.08Zm-2.36,1.23a2.4,2.4,0,0,0,0,2.94,1.75,1.75,0,0,0,1.34.53,1.82,1.82,0,0,0,.95-.25,1.75,1.75,0,0,0,.66-.7,2.41,2.41,0,0,0,0-2.11,1.75,1.75,0,0,0-.66-.7,1.82,1.82,0,0,0-.95-.25A1.75,1.75,0,0,0,311.63,231.31Z" fill="#4f5750"/>
      <path d="M323.16,229.75v6.06H321.9V234.5a2,2,0,0,1-.8,1,2.4,2.4,0,0,1-1.33.37,2.21,2.21,0,0,1-1.69-.68,2.74,2.74,0,0,1-.64-1.95v-3.52h1.25v3.39a1.79,1.79,0,0,0,.42,1.27,1.49,1.49,0,0,0,1.14.45,1.56,1.56,0,0,0,1.2-.48,2,2,0,0,0,.45-1.41v-3.21Z" fill="#4f5750"/>
      <path d="M328.37,230.22a2.3,2.3,0,0,1,.79,1.46H328a1.28,1.28,0,0,0-.42-.8,1.35,1.35,0,0,0-.92-.3,1.08,1.08,0,0,0-.73.23.77.77,0,0,0-.26.61.6.6,0,0,0,.19.46,1.3,1.3,0,0,0,.47.27,8.08,8.08,0,0,0,.8.22,8,8,0,0,1,1.11.32,1.8,1.8,0,0,1,.73.52,1.46,1.46,0,0,1,.3,1,1.52,1.52,0,0,1-.58,1.23,2.38,2.38,0,0,1-1.56.47,3,3,0,0,1-1.83-.53,2.17,2.17,0,0,1-.84-1.47h1.22a1.15,1.15,0,0,0,.44.8,1.57,1.57,0,0,0,1,.31,1,1,0,0,0,.71-.24.78.78,0,0,0,.26-.6.66.66,0,0,0-.2-.51,1.38,1.38,0,0,0-.5-.29,6.93,6.93,0,0,0-.81-.21,8.92,8.92,0,0,1-1.07-.31,1.66,1.66,0,0,1-.7-.5,1.41,1.41,0,0,1-.29-.94,1.55,1.55,0,0,1,.58-1.25,2.44,2.44,0,0,1,1.6-.48A2.56,2.56,0,0,1,328.37,230.22Z" fill="#4f5750"/>
      <path d="M333.53,234.73v1.09h-.77a1.73,1.73,0,0,1-2-2v-3h-.87v-1.07h.87v-1.51h1.26v1.51h1.46v1.07h-1.46v3a1,1,0,0,0,.19.71.93.93,0,0,0,.68.2Z" fill="#4f5750"/>
      <path d="M336.84,230a2.5,2.5,0,0,1,1.32-.35V231h-.37a2.05,2.05,0,0,0-1.33.4,1.6,1.6,0,0,0-.5,1.33v3.07H334.7v-6.06H336v1.19A2.34,2.34,0,0,1,336.84,230Z" fill="#4f5750"/>
      <path d="M339.14,227.47a.81.81,0,0,1,.58-.21.83.83,0,0,1,.59.21.69.69,0,0,1,.23.53.66.66,0,0,1-.23.52.86.86,0,0,1-.59.2.84.84,0,0,1-.58-.2.66.66,0,0,1-.22-.52A.7.7,0,0,1,339.14,227.47Zm1.21,2.29v6.06h-1.25v-6.06Z" fill="#4f5750"/>
      <path d="M347.45,233h-4.66a1.91,1.91,0,0,0,.52,1.39,1.69,1.69,0,0,0,1.2.45,1.74,1.74,0,0,0,1.06-.32,1.32,1.32,0,0,0,.53-.85h1.34a2.57,2.57,0,0,1-1.51,1.91,3.28,3.28,0,0,1-1.37.28,3.17,3.17,0,0,1-1.56-.37,2.66,2.66,0,0,1-1.06-1.08,3.75,3.75,0,0,1,0-3.31,2.66,2.66,0,0,1,1.06-1.08,3.45,3.45,0,0,1,3.11,0,2.57,2.57,0,0,1,1,1,2.91,2.91,0,0,1,.36,1.44A3,3,0,0,1,347.45,233ZM346,231.46a1.41,1.41,0,0,0-.62-.59,1.9,1.9,0,0,0-.85-.19,1.76,1.76,0,0,0-1.23.45,1.84,1.84,0,0,0-.54,1.33h3.44A1.86,1.86,0,0,0,346,231.46Z" fill="#4f5750"/>
      <path d="M352.41,230.22a2.31,2.31,0,0,1,.79,1.46H352a1.28,1.28,0,0,0-.42-.8,1.35,1.35,0,0,0-.92-.3,1.08,1.08,0,0,0-.73.23.77.77,0,0,0-.26.61.6.6,0,0,0,.19.46,1.31,1.31,0,0,0,.47.27,7.93,7.93,0,0,0,.8.22,8,8,0,0,1,1.11.32,1.79,1.79,0,0,1,.73.52,1.46,1.46,0,0,1,.3,1,1.52,1.52,0,0,1-.58,1.23,2.38,2.38,0,0,1-1.56.47,3,3,0,0,1-1.83-.53,2.17,2.17,0,0,1-.84-1.47h1.22a1.15,1.15,0,0,0,.44.8,1.57,1.57,0,0,0,1,.31,1,1,0,0,0,.71-.24.78.78,0,0,0,.26-.6.66.66,0,0,0-.2-.51,1.36,1.36,0,0,0-.5-.29,7,7,0,0,0-.81-.21,8.94,8.94,0,0,1-1.07-.31,1.67,1.67,0,0,1-.7-.5,1.41,1.41,0,0,1-.29-.94,1.55,1.55,0,0,1,.58-1.25,2.44,2.44,0,0,1,1.6-.48A2.56,2.56,0,0,1,352.41,230.22Z" fill="#4f5750"/>
      <path d="M357.56,234.73v1.09h-.77a2.08,2.08,0,0,1-1.47-.47,2.05,2.05,0,0,1-.5-1.56v-3H354v-1.07h.87v-1.51h1.27v1.51h1.46v1.07h-1.46v3a1,1,0,0,0,.19.71.92.92,0,0,0,.68.2Z" fill="#4f5750"/>
      <path d="M360.87,230a2.5,2.5,0,0,1,1.32-.35V231h-.37a2.05,2.05,0,0,0-1.33.4,1.6,1.6,0,0,0-.5,1.33v3.07h-1.25v-6.06H360v1.19A2.34,2.34,0,0,1,360.87,230Z" fill="#4f5750"/>
      <path d="M367,230.08a2.19,2.19,0,0,1,.83,1.08v-1.41H369v6.06h-1.25v-1.41a2.19,2.19,0,0,1-.83,1.08,2.39,2.39,0,0,1-1.41.41,2.69,2.69,0,0,1-1.41-.37,2.56,2.56,0,0,1-1-1.08,4.07,4.07,0,0,1,0-3.31,2.56,2.56,0,0,1,1-1.08,2.69,2.69,0,0,1,1.41-.37A2.39,2.39,0,0,1,367,230.08Zm-2.36,1.23a2.41,2.41,0,0,0,0,2.94,1.75,1.75,0,0,0,1.34.53,1.82,1.82,0,0,0,.95-.25,1.75,1.75,0,0,0,.66-.7,2.41,2.41,0,0,0,0-2.11,1.75,1.75,0,0,0-.66-.7,1.82,1.82,0,0,0-.95-.25A1.75,1.75,0,0,0,364.61,231.31Z" fill="#4f5750"/>
      <path d="M374.25,230.22a2.31,2.31,0,0,1,.79,1.46h-1.19a1.28,1.28,0,0,0-.42-.8,1.35,1.35,0,0,0-.92-.3,1.08,1.08,0,0,0-.73.23.77.77,0,0,0-.26.61.6.6,0,0,0,.19.46,1.31,1.31,0,0,0,.47.27,8,8,0,0,0,.8.22,8,8,0,0,1,1.11.32,1.8,1.8,0,0,1,.73.52,1.46,1.46,0,0,1,.3,1,1.52,1.52,0,0,1-.58,1.23,2.38,2.38,0,0,1-1.56.47,3,3,0,0,1-1.83-.53,2.17,2.17,0,0,1-.84-1.47h1.22a1.15,1.15,0,0,0,.44.8,1.57,1.57,0,0,0,1,.31,1,1,0,0,0,.71-.24.78.78,0,0,0,.26-.6.66.66,0,0,0-.2-.51,1.36,1.36,0,0,0-.5-.29,6.93,6.93,0,0,0-.81-.21,9,9,0,0,1-1.07-.31,1.67,1.67,0,0,1-.7-.5,1.41,1.41,0,0,1-.29-.94,1.55,1.55,0,0,1,.58-1.25,2.44,2.44,0,0,1,1.6-.48A2.56,2.56,0,0,1,374.25,230.22Z" fill="#4f5750"/>
      <path d="M380.06,230.22a2.31,2.31,0,0,1,.79,1.46h-1.19a1.28,1.28,0,0,0-.42-.8,1.35,1.35,0,0,0-.92-.3,1.08,1.08,0,0,0-.73.23.77.77,0,0,0-.26.61.6.6,0,0,0,.19.46,1.31,1.31,0,0,0,.47.27,8,8,0,0,0,.8.22,8,8,0,0,1,1.11.32,1.8,1.8,0,0,1,.73.52,1.46,1.46,0,0,1,.3,1,1.52,1.52,0,0,1-.58,1.23,2.38,2.38,0,0,1-1.56.47,3,3,0,0,1-1.83-.53,2.17,2.17,0,0,1-.84-1.47h1.22a1.15,1.15,0,0,0,.44.8,1.57,1.57,0,0,0,1,.31,1,1,0,0,0,.71-.24.78.78,0,0,0,.26-.6.66.66,0,0,0-.2-.51,1.36,1.36,0,0,0-.5-.29,6.93,6.93,0,0,0-.81-.21,9,9,0,0,1-1.07-.31,1.67,1.67,0,0,1-.7-.5,1.41,1.41,0,0,1-.29-.94,1.55,1.55,0,0,1,.58-1.25,2.44,2.44,0,0,1,1.6-.48A2.56,2.56,0,0,1,380.06,230.22Z" fill="#4f5750"/>
      <path d="M387.75,233h-4.66a1.91,1.91,0,0,0,.52,1.39,1.69,1.69,0,0,0,1.2.45,1.74,1.74,0,0,0,1.06-.32,1.32,1.32,0,0,0,.53-.85h1.34a2.57,2.57,0,0,1-1.51,1.91,3.28,3.28,0,0,1-1.37.28,3.17,3.17,0,0,1-1.56-.37,2.66,2.66,0,0,1-1.06-1.08,3.75,3.75,0,0,1,0-3.31,2.66,2.66,0,0,1,1.06-1.08,3.45,3.45,0,0,1,3.11,0,2.56,2.56,0,0,1,1,1,3.13,3.13,0,0,1,.31,2Zm-1.42-1.57a1.42,1.42,0,0,0-.62-.59,1.9,1.9,0,0,0-.85-.19,1.76,1.76,0,0,0-1.23.45,1.84,1.84,0,0,0-.54,1.33h3.44A1.87,1.87,0,0,0,386.33,231.46Z" fill="#4f5750"/>
    </g>
    <g>
      <path d="M463.65,181.38v3.28l1.68.59v1.34l-7.64-2.86v-1.44l7.64-2.85v1.34Zm-1,.35L459.06,183l3.63,1.29Z" fill="#4f5750"/>
      <path d="M459.28,172.92h6.06v1.27H464a2,2,0,0,1,1,.8,2.4,2.4,0,0,1,.37,1.33,2.21,2.21,0,0,1-.68,1.69,2.74,2.74,0,0,1-1.95.64h-3.52V177.4h3.39a1.79,1.79,0,0,0,1.27-.42,1.49,1.49,0,0,0,.45-1.14,1.56,1.56,0,0,0-.48-1.2,2,2,0,0,0-1.41-.45h-3.21Z" fill="#4f5750"/>
      <path d="M459.74,167.71a2.3,2.3,0,0,1,1.46-.79v1.19a1.28,1.28,0,0,0-.8.42,1.35,1.35,0,0,0-.3.92,1.08,1.08,0,0,0,.22.73.77.77,0,0,0,.61.26.6.6,0,0,0,.46-.19,1.3,1.3,0,0,0,.27-.47,8,8,0,0,0,.22-.8,8.07,8.07,0,0,1,.32-1.11,1.8,1.8,0,0,1,.52-.73,1.46,1.46,0,0,1,1-.3,1.52,1.52,0,0,1,1.23.58,2.38,2.38,0,0,1,.47,1.56,3,3,0,0,1-.53,1.83,2.17,2.17,0,0,1-1.47.84v-1.22a1.15,1.15,0,0,0,.8-.44,1.57,1.57,0,0,0,.31-1,1,1,0,0,0-.24-.71.78.78,0,0,0-.6-.26.66.66,0,0,0-.51.2,1.37,1.37,0,0,0-.29.5,7.15,7.15,0,0,0-.21.81,9,9,0,0,1-.31,1.07,1.67,1.67,0,0,1-.5.7,1.41,1.41,0,0,1-.94.29,1.55,1.55,0,0,1-1.25-.58,2.44,2.44,0,0,1-.48-1.6A2.56,2.56,0,0,1,459.74,167.71Z" fill="#4f5750"/>
      <path d="M464.25,162.56h1.09v.77a1.73,1.73,0,0,1-2,2h-3v.87h-1.07v-.87h-1.51V164h1.51v-1.46h1.07V164h3a1,1,0,0,0,.71-.19.92.92,0,0,0,.2-.68Z" fill="#4f5750"/>
      <path d="M459.52,159.25a2.5,2.5,0,0,1-.35-1.32h1.36v.37a2.06,2.06,0,0,0,.4,1.33,1.6,1.6,0,0,0,1.33.5h3.07v1.25h-6.06v-1.25h1.19A2.34,2.34,0,0,1,459.52,159.25Z" fill="#4f5750"/>
      <path d="M459.61,153.15a2.19,2.19,0,0,1,1.08-.82h-1.41v-1.25h6.06v1.25h-1.41a2.18,2.18,0,0,1,1.08.82,2.4,2.4,0,0,1,.41,1.41A2.69,2.69,0,0,1,465,156a2.55,2.55,0,0,1-1.08,1,4.07,4.07,0,0,1-3.31,0,2.55,2.55,0,0,1-1.08-1,2.69,2.69,0,0,1-.37-1.41A2.4,2.4,0,0,1,459.61,153.15Zm1.23,2.36a2.4,2.4,0,0,0,2.94,0,1.75,1.75,0,0,0,.53-1.34,1.82,1.82,0,0,0-.25-.95,1.76,1.76,0,0,0-.7-.66,2.42,2.42,0,0,0-2.11,0,1.75,1.75,0,0,0-.7.66,1.82,1.82,0,0,0-.25.95A1.74,1.74,0,0,0,460.83,155.51Z" fill="#4f5750"/>
      <path d="M459.74,145.87a2.3,2.3,0,0,1,1.46-.79v1.19a1.28,1.28,0,0,0-.8.42,1.35,1.35,0,0,0-.3.92,1.08,1.08,0,0,0,.22.73.77.77,0,0,0,.61.26.6.6,0,0,0,.46-.19,1.3,1.3,0,0,0,.27-.47,8,8,0,0,0,.22-.8,8.1,8.1,0,0,1,.32-1.11,1.8,1.8,0,0,1,.52-.73,1.46,1.46,0,0,1,1-.3,1.52,1.52,0,0,1,1.23.58,2.38,2.38,0,0,1,.47,1.56,3,3,0,0,1-.53,1.83,2.17,2.17,0,0,1-1.47.84V148.6a1.15,1.15,0,0,0,.8-.44,1.57,1.57,0,0,0,.31-1,1,1,0,0,0-.24-.71.78.78,0,0,0-.6-.26.66.66,0,0,0-.51.2,1.37,1.37,0,0,0-.29.5,7.15,7.15,0,0,0-.21.81,9,9,0,0,1-.31,1.07,1.67,1.67,0,0,1-.5.7,1.41,1.41,0,0,1-.94.29,1.55,1.55,0,0,1-1.25-.58,2.44,2.44,0,0,1-.48-1.6A2.56,2.56,0,0,1,459.74,145.87Z" fill="#4f5750"/>
      <path d="M459.74,140.06a2.3,2.3,0,0,1,1.46-.79v1.19a1.28,1.28,0,0,0-.8.42,1.35,1.35,0,0,0-.3.92,1.08,1.08,0,0,0,.22.73.77.77,0,0,0,.61.26.6.6,0,0,0,.46-.19,1.3,1.3,0,0,0,.27-.47,8,8,0,0,0,.22-.8,8,8,0,0,1,.32-1.11,1.8,1.8,0,0,1,.52-.73,1.46,1.46,0,0,1,1-.3,1.52,1.52,0,0,1,1.23.58,2.38,2.38,0,0,1,.47,1.56,3,3,0,0,1-.53,1.83,2.17,2.17,0,0,1-1.47.84v-1.22a1.15,1.15,0,0,0,.8-.44,1.57,1.57,0,0,0,.31-1,1,1,0,0,0-.24-.71.78.78,0,0,0-.6-.26.66.66,0,0,0-.51.2,1.36,1.36,0,0,0-.29.5,7.13,7.13,0,0,0-.21.81,9.07,9.07,0,0,1-.31,1.07,1.67,1.67,0,0,1-.5.7,1.41,1.41,0,0,1-.94.29,1.54,1.54,0,0,1-1.25-.58,2.44,2.44,0,0,1-.48-1.6A2.56,2.56,0,0,1,459.74,140.06Z" fill="#4f5750"/>
      <path d="M462.55,132.37V137a1.91,1.91,0,0,0,1.39-.52,1.69,1.69,0,0,0,.45-1.2,1.74,1.74,0,0,0-.32-1.06,1.32,1.32,0,0,0-.85-.53v-1.34a2.57,2.57,0,0,1,1.91,1.51,3.29,3.29,0,0,1,.28,1.38,3.17,3.17,0,0,1-.37,1.56,2.66,2.66,0,0,1-1.08,1.06,3.75,3.75,0,0,1-3.31,0,2.66,2.66,0,0,1-1.08-1.06,3.45,3.45,0,0,1,0-3.11,2.56,2.56,0,0,1,1-1,3.12,3.12,0,0,1,2-.31ZM461,133.79a1.42,1.42,0,0,0-.59.62,1.91,1.91,0,0,0-.19.85,1.76,1.76,0,0,0,.45,1.23A1.84,1.84,0,0,0,462,137v-3.44A1.88,1.88,0,0,0,461,133.79Z" fill="#4f5750"/>
    </g>
    <g>
      <path d="M464.36,479.93v-2.68h1v3.94h-7.77v-1.25Z" fill="#4f5750"/>
      <path d="M459.61,472.43a2.18,2.18,0,0,1,1.08-.82h-1.41v-1.25h6.06v1.25h-1.41a2.17,2.17,0,0,1,1.08.82,2.4,2.4,0,0,1,.41,1.41,2.7,2.7,0,0,1-.37,1.41,2.55,2.55,0,0,1-1.08,1,4.07,4.07,0,0,1-3.31,0,2.55,2.55,0,0,1-1.08-1,2.7,2.7,0,0,1-.37-1.41A2.4,2.4,0,0,1,459.61,472.43Zm1.23,2.36a2.4,2.4,0,0,0,2.94,0,1.75,1.75,0,0,0,.53-1.34,1.82,1.82,0,0,0-.25-.95,1.76,1.76,0,0,0-.7-.66,2.42,2.42,0,0,0-2.11,0,1.75,1.75,0,0,0-.7.66,1.82,1.82,0,0,0-.25.95A1.74,1.74,0,0,0,460.83,474.79Z" fill="#4f5750"/>
      <path d="M459.86,463.76a2.75,2.75,0,0,1,1.95-.64h3.53v1.25h-3.4a1.77,1.77,0,0,0-1.26.42,1.49,1.49,0,0,0-.45,1.14,1.57,1.57,0,0,0,.48,1.2,2,2,0,0,0,1.4.45h3.22v1.25h-6.06v-1.25h1.33a2,2,0,0,1-1.06-.81,2.36,2.36,0,0,1-.37-1.32A2.21,2.21,0,0,1,459.86,463.76Z" fill="#4f5750"/>
      <path d="M459.61,457.82a2.13,2.13,0,0,1,1.08-.81H457.2v-1.26h8.14V457h-1.41a2.12,2.12,0,0,1,1.08.81,2.4,2.4,0,0,1,.41,1.41,2.69,2.69,0,0,1-.37,1.41,2.55,2.55,0,0,1-1.08,1,4.07,4.07,0,0,1-3.31,0,2.55,2.55,0,0,1-1.08-1,2.69,2.69,0,0,1-.37-1.41A2.4,2.4,0,0,1,459.61,457.82Zm1.23,2.36a2.41,2.41,0,0,0,2.94,0,1.75,1.75,0,0,0,.53-1.34,1.82,1.82,0,0,0-.25-.95,1.76,1.76,0,0,0-.7-.66,2.42,2.42,0,0,0-2.11,0,1.76,1.76,0,0,0-.7.66,1.82,1.82,0,0,0-.25.95A1.74,1.74,0,0,0,460.83,460.18Z" fill="#4f5750"/>
      <path d="M459.74,450.54a2.3,2.3,0,0,1,1.46-.79v1.19a1.29,1.29,0,0,0-.8.42,1.35,1.35,0,0,0-.3.92,1.08,1.08,0,0,0,.22.73.77.77,0,0,0,.61.26.6.6,0,0,0,.46-.19,1.29,1.29,0,0,0,.27-.47,8,8,0,0,0,.22-.8,8,8,0,0,1,.32-1.11,1.79,1.79,0,0,1,.52-.73,1.46,1.46,0,0,1,1-.3,1.52,1.52,0,0,1,1.23.58,2.38,2.38,0,0,1,.47,1.56,3,3,0,0,1-.53,1.83,2.17,2.17,0,0,1-1.47.84v-1.22a1.15,1.15,0,0,0,.8-.44,1.57,1.57,0,0,0,.31-1,1,1,0,0,0-.24-.71.78.78,0,0,0-.6-.26.66.66,0,0,0-.51.2,1.37,1.37,0,0,0-.29.5,7.13,7.13,0,0,0-.21.81,9.07,9.07,0,0,1-.31,1.07,1.67,1.67,0,0,1-.5.7,1.41,1.41,0,0,1-.94.29,1.55,1.55,0,0,1-1.25-.58,2.43,2.43,0,0,1-.48-1.6A2.55,2.55,0,0,1,459.74,450.54Z" fill="#4f5750"/>
      <path d="M464.25,445.38h1.09v.77a1.73,1.73,0,0,1-2,2h-3V449h-1.07v-.87h-1.51v-1.26h1.51v-1.46h1.07v1.46h3a1,1,0,0,0,.71-.19.92.92,0,0,0,.2-.68Z" fill="#4f5750"/>
      <path d="M459.52,442.07a2.5,2.5,0,0,1-.35-1.32h1.36v.38a2.05,2.05,0,0,0,.4,1.32,1.6,1.6,0,0,0,1.33.5h3.07v1.25h-6.06V443h1.19A2.34,2.34,0,0,1,459.52,442.07Z" fill="#4f5750"/>
      <path d="M459.61,436a2.18,2.18,0,0,1,1.08-.82h-1.41V433.9h6.06v1.25h-1.41A2.17,2.17,0,0,1,465,436a2.4,2.4,0,0,1,.41,1.41,2.7,2.7,0,0,1-.37,1.41,2.55,2.55,0,0,1-1.08,1,4.07,4.07,0,0,1-3.31,0,2.55,2.55,0,0,1-1.08-1,2.7,2.7,0,0,1-.37-1.41A2.4,2.4,0,0,1,459.61,436Zm1.23,2.36a2.4,2.4,0,0,0,2.94,0,1.75,1.75,0,0,0,.53-1.34,1.82,1.82,0,0,0-.25-.95,1.76,1.76,0,0,0-.7-.66,2.42,2.42,0,0,0-2.11,0,1.75,1.75,0,0,0-.7.66,1.82,1.82,0,0,0-.25.95A1.74,1.74,0,0,0,460.83,438.34Z" fill="#4f5750"/>
      <path d="M459.74,428.69a2.3,2.3,0,0,1,1.46-.79v1.19a1.28,1.28,0,0,0-.8.42,1.35,1.35,0,0,0-.3.92,1.08,1.08,0,0,0,.22.73.77.77,0,0,0,.61.26.6.6,0,0,0,.46-.19,1.3,1.3,0,0,0,.27-.47,8,8,0,0,0,.22-.8,8,8,0,0,1,.32-1.11,1.8,1.8,0,0,1,.52-.73,1.46,1.46,0,0,1,1-.3,1.52,1.52,0,0,1,1.23.58,2.38,2.38,0,0,1,.47,1.56,3,3,0,0,1-.53,1.83,2.17,2.17,0,0,1-1.47.84v-1.22a1.15,1.15,0,0,0,.8-.44,1.57,1.57,0,0,0,.31-1,1,1,0,0,0-.24-.71.78.78,0,0,0-.6-.26.66.66,0,0,0-.51.2,1.36,1.36,0,0,0-.29.5,7.13,7.13,0,0,0-.21.81,9.07,9.07,0,0,1-.31,1.07,1.67,1.67,0,0,1-.5.7,1.41,1.41,0,0,1-.94.29,1.54,1.54,0,0,1-1.25-.58,2.44,2.44,0,0,1-.48-1.6A2.56,2.56,0,0,1,459.74,428.69Z" fill="#4f5750"/>
      <path d="M459.74,422.88a2.3,2.3,0,0,1,1.46-.79v1.19a1.28,1.28,0,0,0-.8.42,1.35,1.35,0,0,0-.3.92,1.08,1.08,0,0,0,.22.73.77.77,0,0,0,.61.26.6.6,0,0,0,.46-.19,1.3,1.3,0,0,0,.27-.47,8,8,0,0,0,.22-.8,8,8,0,0,1,.32-1.11,1.8,1.8,0,0,1,.52-.73,1.46,1.46,0,0,1,1-.3,1.52,1.52,0,0,1,1.23.58,2.38,2.38,0,0,1,.47,1.56,3,3,0,0,1-.53,1.83,2.17,2.17,0,0,1-1.47.84v-1.22a1.15,1.15,0,0,0,.8-.44,1.57,1.57,0,0,0,.31-1,1,1,0,0,0-.24-.71.78.78,0,0,0-.6-.26.66.66,0,0,0-.51.2,1.36,1.36,0,0,0-.29.5,7.13,7.13,0,0,0-.21.81,9.07,9.07,0,0,1-.31,1.07,1.67,1.67,0,0,1-.5.7,1.41,1.41,0,0,1-.94.29,1.54,1.54,0,0,1-1.25-.58,2.44,2.44,0,0,1-.48-1.6A2.56,2.56,0,0,1,459.74,422.88Z" fill="#4f5750"/>
      <path d="M462.55,415.19v4.66a1.91,1.91,0,0,0,1.39-.52,1.69,1.69,0,0,0,.45-1.2,1.74,1.74,0,0,0-.32-1.06,1.32,1.32,0,0,0-.85-.53V415.2a2.57,2.57,0,0,1,1.91,1.51,3.29,3.29,0,0,1,.28,1.38,3.17,3.17,0,0,1-.37,1.56A2.66,2.66,0,0,1,464,420.7a3.75,3.75,0,0,1-3.31,0,2.66,2.66,0,0,1-1.08-1.06,3.45,3.45,0,0,1,0-3.11,2.56,2.56,0,0,1,1-1,3.12,3.12,0,0,1,2-.31ZM461,416.61a1.42,1.42,0,0,0-.59.62,1.91,1.91,0,0,0-.19.85,1.76,1.76,0,0,0,.45,1.23,1.84,1.84,0,0,0,1.33.54v-3.44A1.88,1.88,0,0,0,461,416.61Z" fill="#4f5750"/>
    </g>
    <g>
      <path d="M289.73,517.66a3.21,3.21,0,0,1,1.22,1.86h-1.32a2.11,2.11,0,0,0-.83-1,2.47,2.47,0,0,0-1.37-.37,2.52,2.52,0,0,0-1.3.34,2.35,2.35,0,0,0-.9,1,3.16,3.16,0,0,0-.32,1.47,3.29,3.29,0,0,0,.33,1.53,2.29,2.29,0,0,0,.93,1,2.8,2.8,0,0,0,1.39.33,2.45,2.45,0,0,0,1.66-.6,2.54,2.54,0,0,0,.84-1.64H287.2v-.92h3.91v1.2a3.72,3.72,0,0,1-.61,1.56,3.49,3.49,0,0,1-1.27,1.12,3.77,3.77,0,0,1-1.8.42,3.91,3.91,0,0,1-2-.51,3.46,3.46,0,0,1-1.34-1.4,4.69,4.69,0,0,1,0-4.1,3.43,3.43,0,0,1,1.34-1.4,3.9,3.9,0,0,1,2-.5A3.78,3.78,0,0,1,289.73,517.66Z" fill="#4f5750"/>
      <path d="M296.21,519.08a2.19,2.19,0,0,1,.83,1.08v-1.41h1.25v6.06H297v-1.41a2.18,2.18,0,0,1-.83,1.08,2.4,2.4,0,0,1-1.41.41,2.69,2.69,0,0,1-1.41-.37,2.55,2.55,0,0,1-1-1.08,4.07,4.07,0,0,1,0-3.31,2.55,2.55,0,0,1,1-1.08,2.69,2.69,0,0,1,1.41-.37A2.4,2.4,0,0,1,296.21,519.08Zm-2.36,1.23a2.4,2.4,0,0,0,0,2.94,1.75,1.75,0,0,0,1.34.53,1.82,1.82,0,0,0,.95-.25,1.75,1.75,0,0,0,.66-.7,2.41,2.41,0,0,0,0-2.11,1.74,1.74,0,0,0-.66-.7,1.82,1.82,0,0,0-.95-.25A1.74,1.74,0,0,0,293.85,520.31Z" fill="#4f5750"/>
      <path d="M303.64,519.08a2.19,2.19,0,0,1,.83,1.08v-1.41h1.25v6.13a3.15,3.15,0,0,1-.35,1.5,2.54,2.54,0,0,1-1,1,3,3,0,0,1-1.54.37,3.29,3.29,0,0,1-2.06-.61,2.61,2.61,0,0,1-1-1.64H301a1.47,1.47,0,0,0,.59.84,1.93,1.93,0,0,0,1.12.3,1.71,1.71,0,0,0,1.23-.46,1.77,1.77,0,0,0,.48-1.34v-1.47a2.18,2.18,0,0,1-.83,1.08,2.4,2.4,0,0,1-1.41.41,2.69,2.69,0,0,1-1.41-.37,2.55,2.55,0,0,1-1-1.08,4.07,4.07,0,0,1,0-3.31,2.55,2.55,0,0,1,1-1.08,2.69,2.69,0,0,1,1.41-.37A2.4,2.4,0,0,1,303.64,519.08Zm-2.36,1.23a2.4,2.4,0,0,0,0,2.94,1.75,1.75,0,0,0,1.34.53,1.82,1.82,0,0,0,.95-.25,1.75,1.75,0,0,0,.66-.7,2.41,2.41,0,0,0,0-2.11,1.74,1.74,0,0,0-.66-.7,1.82,1.82,0,0,0-.95-.25A1.74,1.74,0,0,0,301.28,520.31Z" fill="#4f5750"/>
      <path d="M311.58,519a2.68,2.68,0,0,1,1.1,1.08,3.66,3.66,0,0,1,0,3.31,2.68,2.68,0,0,1-1.1,1.08,3.33,3.33,0,0,1-1.58.37,3.3,3.3,0,0,1-1.58-.37,2.72,2.72,0,0,1-1.1-1.08,3.31,3.31,0,0,1-.4-1.66,3.27,3.27,0,0,1,.4-1.65,2.72,2.72,0,0,1,1.1-1.08,3.3,3.3,0,0,1,1.58-.37A3.33,3.33,0,0,1,311.58,519Zm-2.48.93a1.63,1.63,0,0,0-.65.68,2.65,2.65,0,0,0,0,2.24,1.62,1.62,0,0,0,.65.67,1.91,1.91,0,0,0,1.78,0,1.62,1.62,0,0,0,.65-.67,2.65,2.65,0,0,0,0-2.24,1.63,1.63,0,0,0-.65-.68,1.92,1.92,0,0,0-1.78,0Z" fill="#4f5750"/>
      <path d="M315.19,523.76h3.11v1.06h-4.5v-1l2.95-4h-2.87v-1.06h4.31v1Z" fill="#4f5750"/>
    </g>
    <g>
      <path d="M303.1,311.26v1.65h-5.83V331.7h-2V312.91h-5.8v-1.65Z" fill="#4f5750"/>
      <path d="M318.24,331.7l-5.6-8.53h-3.31v8.53h-2.06V311.26h6.26a7.2,7.2,0,0,1,5.15,1.62,5.78,5.78,0,0,1,1.7,4.38,5.65,5.65,0,0,1-1.44,4.06,6.47,6.47,0,0,1-4.16,1.8l5.77,8.58Zm-8.9-10.06h4.06q4.93,0,4.93-4.26T313.39,313h-4.06Z" fill="#4f5750"/>
      <path d="M327.28,311.26V331.7h-2.06V311.26Z" fill="#4f5750"/>
      <path d="M335.2,312.91v7.71h8v1.6h-8V330H344v1.68h-10.9V311.26H344v1.65Z" fill="#4f5750"/>
      <path d="M360.85,329.14a5,5,0,0,1-2,2,6.83,6.83,0,0,1-3.39.77,8.13,8.13,0,0,1-3.51-.73,6.25,6.25,0,0,1-2.45-2,5.62,5.62,0,0,1-1.06-2.83h2.15a4.52,4.52,0,0,0,.67,1.8,4.32,4.32,0,0,0,1.59,1.49,5,5,0,0,0,2.52.59,4,4,0,0,0,3-1,3.6,3.6,0,0,0,1-2.64,3.45,3.45,0,0,0-.68-2.22A4.6,4.6,0,0,0,357,323a24.11,24.11,0,0,0-2.74-1,24.29,24.29,0,0,1-3.09-1.17,5.3,5.3,0,0,1-2-1.67,5.39,5.39,0,0,1,.81-6.7,6.46,6.46,0,0,1,4.47-1.45,6.94,6.94,0,0,1,4.6,1.42,5.57,5.57,0,0,1,2,3.54h-2.17a4.23,4.23,0,0,0-1.38-2.32,4.38,4.38,0,0,0-3.06-1,4.24,4.24,0,0,0-2.87.93,3.66,3.66,0,0,0-.41,4.7,4.43,4.43,0,0,0,1.64,1.25q1,.44,2.65,1a23.86,23.86,0,0,1,3.15,1.19,5.41,5.41,0,0,1,2,1.74,5.13,5.13,0,0,1,.84,3.07A5.53,5.53,0,0,1,360.85,329.14Z" fill="#4f5750"/>
      <path d="M368.72,312.91v7.71h8v1.6h-8V330h8.85v1.68h-10.9V311.26h10.9v1.65Z" fill="#4f5750"/>
      <path d="M397.87,331.7h-2.06l-11.19-17.08V331.7h-2.06V311.29h2.06l11.19,17.11V311.29h2.06Z" fill="#4f5750"/>
    </g>
    <g>
      <path d="M429.82,20.93l2.84,8.18,2.86-8.18h1.74l-3.57,9.88h-2l-3.56-9.88Z" fill="#4f5750"/>
      <path d="M443.33,23.52a2.79,2.79,0,0,1,1,1.37V23.1H446v7.71h-1.6V29a2.79,2.79,0,0,1-1,1.37,3.06,3.06,0,0,1-1.79.52,3.42,3.42,0,0,1-1.8-.48,3.25,3.25,0,0,1-1.24-1.37,5.18,5.18,0,0,1,0-4.21,3.25,3.25,0,0,1,1.24-1.37,3.42,3.42,0,0,1,1.8-.48A3.06,3.06,0,0,1,443.33,23.52Zm-3,1.56a2.62,2.62,0,0,0-.64,1.87,2.62,2.62,0,0,0,.64,1.87,2.22,2.22,0,0,0,1.7.68,2.32,2.32,0,0,0,1.2-.31,2.24,2.24,0,0,0,.84-.89,3.07,3.07,0,0,0,0-2.68,2.24,2.24,0,0,0-.84-.9,2.32,2.32,0,0,0-1.2-.31A2.22,2.22,0,0,0,440.32,25.08Z" fill="#4f5750"/>
      <path d="M452.78,23.52a2.71,2.71,0,0,1,1,1.37V20.45h1.61V30.81h-1.61V29a2.71,2.71,0,0,1-1,1.37,3.05,3.05,0,0,1-1.79.52,3.42,3.42,0,0,1-1.8-.48,3.26,3.26,0,0,1-1.24-1.37,5.19,5.19,0,0,1,0-4.21,3.26,3.26,0,0,1,1.24-1.37A3.42,3.42,0,0,1,451,23,3.05,3.05,0,0,1,452.78,23.52Zm-3,1.56a2.62,2.62,0,0,0-.64,1.87,2.62,2.62,0,0,0,.64,1.87,2.22,2.22,0,0,0,1.7.68,2.32,2.32,0,0,0,1.2-.31,2.24,2.24,0,0,0,.84-.89,3.07,3.07,0,0,0,0-2.68,2.23,2.23,0,0,0-.84-.9,2.32,2.32,0,0,0-1.2-.31A2.22,2.22,0,0,0,449.77,25.08Z" fill="#4f5750"/>
      <path d="M464.45,23.1v7.71h-1.61V29.13a2.48,2.48,0,0,1-1,1.32,3.06,3.06,0,0,1-1.69.47,2.81,2.81,0,0,1-2.16-.87,3.49,3.49,0,0,1-.81-2.48V23.1h1.6v4.31a2.27,2.27,0,0,0,.53,1.62,1.9,1.9,0,0,0,1.46.57,2,2,0,0,0,1.53-.62,2.54,2.54,0,0,0,.57-1.79V23.1Z" fill="#4f5750"/>
      <path d="M467.52,29.47h4v1.34h-5.73V29.54l3.75-5.1h-3.65V23.1h5.49v1.27Z" fill="#4f5750"/>
    </g>
    <g>
      <path d="M432.54,616.57a2.4,2.4,0,0,1,.55,1.57,2.46,2.46,0,0,1-.83,2,3.53,3.53,0,0,1-2.39.72h-3.93v-9.88h3.86a3.45,3.45,0,0,1,2.28.66,2.55,2.55,0,0,1,.3,3.35,2.37,2.37,0,0,1-1.29.78A2.45,2.45,0,0,1,432.54,616.57Zm-5-1.39h2a1.87,1.87,0,0,0,1.28-.39,1.38,1.38,0,0,0,.44-1.09,1.37,1.37,0,0,0-.44-1.08,2,2,0,0,0-1.34-.39h-1.92Zm3.42,3.9a1.59,1.59,0,0,0,0-2.32,2.15,2.15,0,0,0-1.41-.42h-2v3.15h2A2.14,2.14,0,0,0,431,619.08Z" fill="#4f5750"/>
      <path d="M439.48,613.52a2.78,2.78,0,0,1,1,1.37V613.1h1.6v7.71h-1.6V619a2.79,2.79,0,0,1-1,1.37,3.05,3.05,0,0,1-1.79.52,3.42,3.42,0,0,1-1.8-.48,3.26,3.26,0,0,1-1.24-1.37,5.19,5.19,0,0,1,0-4.21,3.25,3.25,0,0,1,1.24-1.37,3.42,3.42,0,0,1,1.8-.48A3,3,0,0,1,439.48,613.52Zm-3,1.56a3.06,3.06,0,0,0,0,3.74,2.22,2.22,0,0,0,1.7.68,2.32,2.32,0,0,0,1.2-.31,2.24,2.24,0,0,0,.84-.89,3.07,3.07,0,0,0,0-2.68,2.22,2.22,0,0,0-.84-.9,2.32,2.32,0,0,0-1.2-.31A2.22,2.22,0,0,0,436.47,615.08Z" fill="#4f5750"/>
      <path d="M445.64,610.45v10.36H444V610.45Z" fill="#4f5750"/>
      <path d="M448.72,619.47h4v1.34H447v-1.27l3.75-5.1h-3.65V613.1h5.49v1.27Z" fill="#4f5750"/>
      <path d="M461.11,617.27h-5.94a2.43,2.43,0,0,0,.66,1.76,2.15,2.15,0,0,0,1.53.57,2.22,2.22,0,0,0,1.35-.41,1.67,1.67,0,0,0,.68-1.08h1.71a3.28,3.28,0,0,1-1.92,2.43,4.19,4.19,0,0,1-1.75.36,4,4,0,0,1-2-.48,3.38,3.38,0,0,1-1.35-1.37,4.77,4.77,0,0,1,0-4.21,3.38,3.38,0,0,1,1.35-1.37,4.38,4.38,0,0,1,4,0,3.27,3.27,0,0,1,1.3,1.29,4,4,0,0,1,.4,2.51Zm-1.81-2a1.8,1.8,0,0,0-.78-.76,2.43,2.43,0,0,0-1.08-.25,2.24,2.24,0,0,0-1.57.57,2.34,2.34,0,0,0-.69,1.69h4.38A2.38,2.38,0,0,0,459.29,615.27Z" fill="#4f5750"/>
      <path d="M465.42,613.41a3.19,3.19,0,0,1,1.68-.44v1.74h-.48a2.62,2.62,0,0,0-1.69.51,2,2,0,0,0-.64,1.69v3.91h-1.6V613.1h1.6v1.51A3,3,0,0,1,465.42,613.41Z" fill="#4f5750"/>
      <path d="M473,613.69a2.93,2.93,0,0,1,1,1.85h-1.51a1.63,1.63,0,0,0-.54-1,1.71,1.71,0,0,0-1.17-.38,1.37,1.37,0,0,0-.93.29,1,1,0,0,0-.33.78.77.77,0,0,0,.24.59,1.67,1.67,0,0,0,.6.35,10.15,10.15,0,0,0,1,.28,10.22,10.22,0,0,1,1.41.41,2.29,2.29,0,0,1,.92.67,1.86,1.86,0,0,1,.38,1.24,1.93,1.93,0,0,1-.73,1.57,3,3,0,0,1-2,.6,3.77,3.77,0,0,1-2.33-.67,2.77,2.77,0,0,1-1.07-1.88h1.55a1.46,1.46,0,0,0,.56,1,2,2,0,0,0,1.29.39,1.29,1.29,0,0,0,.9-.3,1,1,0,0,0,.33-.76.84.84,0,0,0-.25-.64,1.74,1.74,0,0,0-.63-.37,8.85,8.85,0,0,0-1-.27,11.26,11.26,0,0,1-1.37-.39,2.13,2.13,0,0,1-.9-.64,1.8,1.8,0,0,1-.37-1.2,2,2,0,0,1,.74-1.59,3.1,3.1,0,0,1,2-.61A3.26,3.26,0,0,1,473,613.69Z" fill="#4f5750"/>
    </g>
  </g>
</svg>
