<svg xmlns="http://www.w3.org/2000/svg" width="57.985" height="75.33" viewBox="0 0 57.985 75.33">
  <g id="Security_Locations" data-name="Security Locations" transform="translate(-574.6 -61.1)">
    <g id="Group_1323" data-name="Group 1323" transform="translate(574.6 61.1)">
      <path id="Path_753" data-name="Path 753" d="M632.585,73.345a1.683,1.683,0,0,0-1.79-1.835c-.248-.008-.5-.023-.752-.03-1.173-.045-2.384-.09-3.565-.218a39.079,39.079,0,0,1-21.715-9.673,1.68,1.68,0,0,0-1.151-.489,1.887,1.887,0,0,0-1.181.466c-.331.271-.662.542-.978.812a37,37,0,0,1-3.046,2.362A39.286,39.286,0,0,1,576.443,71.5a1.664,1.664,0,0,0-1.835,1.835V82.77c0,8.409-.008,17.112-.008,25.664a14.043,14.043,0,0,0,.737,4.363,19.791,19.791,0,0,0,3.994,6.8,45.784,45.784,0,0,0,7.785,6.988,134.232,134.232,0,0,0,15.683,9.643,1.668,1.668,0,0,0,.79.2,1.745,1.745,0,0,0,.782-.2c.354-.181.7-.376,1.038-.564.083-.045.173-.1.256-.143a113.528,113.528,0,0,0,15.608-10,38.889,38.889,0,0,0,7.792-7.823,18.9,18.9,0,0,0,2.58-4.949,16.782,16.782,0,0,0,.865-5.551c-.038-3.738-.03-7.552-.023-11.23,0-1.4.007-2.851.007-4.28h.083V86.757Q632.589,80.066,632.585,73.345Zm-3.3,10.342c-.023,7.913-.038,16.1-.053,24.145a13.079,13.079,0,0,1-2.339,7.281,31.323,31.323,0,0,1-6.574,7.01,94.088,94.088,0,0,1-13.02,8.763c-.684.391-1.384.782-2.068,1.166-.527.293-1.061.594-1.595.9a.163.163,0,0,0-.038.023.127.127,0,0,1-.038-.015,135.575,135.575,0,0,1-12.7-7.68,49.521,49.521,0,0,1-8.688-7.356,17.033,17.033,0,0,1-3.761-6.175,12.623,12.623,0,0,1-.579-3.979c.015-10.057.023-20.286.038-30.177l.008-2.806a44.528,44.528,0,0,0,13.644-2.768A43.46,43.46,0,0,0,603.6,64.989a43.46,43.46,0,0,0,12.072,7.025,44.216,44.216,0,0,0,13.637,2.768C629.3,77.738,629.29,80.717,629.283,83.688Z" transform="translate(-574.6 -61.1)" fill="#a5bbd4"/>
    </g>
    <g id="Group_1324" data-name="Group 1324" transform="translate(588.049 78.528)">
      <path id="Path_754" data-name="Path 754" d="M861.449,401.9a7.65,7.65,0,1,0-7.65-7.65A7.656,7.656,0,0,0,861.449,401.9Zm-4.43-7.65a4.43,4.43,0,1,1,4.43,4.43A4.433,4.433,0,0,1,857.019,394.25Z" transform="translate(-846.248 -379.545)" fill="#a5bbd4"/>
      <path id="Path_755" data-name="Path 755" d="M769.2,292.815V292.8H768v.015a15.218,15.218,0,0,0-14.6,15.194,12.184,12.184,0,0,0,2.294,7.431l11.583,17.119a1.607,1.607,0,0,0,2.663,0l11.583-17.119a12.247,12.247,0,0,0,2.294-7.431A15.242,15.242,0,0,0,769.2,292.815Zm11.388,15.194a8.644,8.644,0,0,1-1.738,5.641L768.6,328.806,758.357,313.65a8.644,8.644,0,0,1-1.737-5.641,11.986,11.986,0,1,1,23.972,0Z" transform="translate(-753.4 -292.8)" fill="#a5bbd4"/>
    </g>
  </g>
</svg>
