<svg xmlns="http://www.w3.org/2000/svg" width="69.929" height="75.331" viewBox="0 0 69.929 75.331">
  <g id="Group_1322" data-name="Group 1322" transform="translate(-763 -2319)">
    <g id="Custom" transform="translate(763 2319)">
      <path id="Path_728" data-name="Path 728" d="M901.823,448.881c1.279.252,2.524.5,3.77.757a18.977,18.977,0,0,1,4.073,1.119,9.305,9.305,0,0,1,4.855,5.369,22.925,22.925,0,0,1,1.405,6.715c.1,1.338.135,2.684.177,4.031a1.37,1.37,0,0,1-1.338,1.59c-.8,0-1.33-.614-1.338-1.557a34.815,34.815,0,0,0-.757-7.759,11.248,11.248,0,0,0-1.565-3.82,3.224,3.224,0,0,0-.2-.269.875.875,0,0,0-.135-.067v.471c0,1.22.008,2.44-.017,3.66a1.317,1.317,0,0,1-2.558.4,2.181,2.181,0,0,1-.084-.7q-.013-2.689,0-5.377c0-.32-.076-.488-.4-.564-1.3-.286-2.583-.589-3.913-.892-.4.934-.774,1.818-1.144,2.71q-2.7,6.374-5.394,12.757a1.37,1.37,0,0,1-1.834.917,1.537,1.537,0,0,1-.825-.959q-2.891-6.955-5.789-13.91c-.2-.48-.4-.951-.614-1.481-.513.1-1.01.2-1.515.311-.833.185-1.658.387-2.491.572-.278.059-.37.194-.37.488.017,1.877.008,3.753.008,5.63a1.31,1.31,0,0,1-1.01,1.33,1.269,1.269,0,0,1-1.447-.589,1.908,1.908,0,0,1-.21-.833c-.025-1.161-.008-2.323-.008-3.492v-.547c-.168.219-.269.337-.362.471a12.282,12.282,0,0,0-1.75,4.594,35.664,35.664,0,0,0-.589,7.018,1.389,1.389,0,0,1-.446,1.136,1.266,1.266,0,0,1-1.447.227,1.247,1.247,0,0,1-.783-1.279c.1-1.961.126-3.921.37-5.865a24.921,24.921,0,0,1,1.027-4.485,9.555,9.555,0,0,1,7.935-6.816c1.557-.278,3.1-.614,4.653-.926a1.99,1.99,0,0,0,.3-.093c-.32-.345-.623-.648-.9-.976a11.06,11.06,0,0,1-2.449-5.975c-.168-1.582-.126-3.189-.193-4.78a4.736,4.736,0,0,0-.194-.959c-.1-.379-.252-.741-.337-1.128-.564-2.541-1.927-4.729-3.029-7.035-.093-.185-.194-.37-.286-.564a1.312,1.312,0,0,1,.69-1.944c1.944-.858,3.9-1.708,5.865-2.5,1.06-.421,2.179-.715,3.265-1.06a11.643,11.643,0,0,1,6.824-.034,57.779,57.779,0,0,1,9.248,3.627,1.308,1.308,0,0,1,.614,1.91c-.581,1.178-1.136,2.373-1.776,3.526a12.964,12.964,0,0,0-1.245,3.543c-.16.749-.135,1.582-.783,2.171-.076.067-.042.269-.042.4-.05,1.548-.008,3.114-.177,4.653a10.969,10.969,0,0,1-3.273,7C901.873,448.771,901.865,448.8,901.823,448.881Zm.825-11.276a18.609,18.609,0,0,1-13.43,0,18.2,18.2,0,0,0,.421,5.419,7.507,7.507,0,0,0,2.415,4,6.3,6.3,0,0,0,9.6-2.44A14.687,14.687,0,0,0,902.647,437.6Zm-17.007-10.224c.539,1.069,1.052,2.1,1.548,3.122a.488.488,0,0,0,.513.311c1.431-.008,2.861-.008,4.283-.008q6.071,0,12.143-.008c.16,0,.4-.059.463-.16.564-1.06,1.086-2.137,1.624-3.214a.645.645,0,0,0-.126-.093,46.533,46.533,0,0,0-8.062-2.97,7.826,7.826,0,0,0-3.45-.151,33.083,33.083,0,0,0-5.831,1.851C887.719,426.472,886.7,426.926,885.641,427.381Zm2.693,6.126a5.052,5.052,0,0,1,.143.564.814.814,0,0,0,.715.732c1.195.294,2.373.656,3.568.942a11.474,11.474,0,0,0,3.778.421,33.438,33.438,0,0,0,6.648-1.54.6.6,0,0,0,.3-.337,6.708,6.708,0,0,0,.177-.783Zm7.615,30.159c.547-1.287,1.043-2.457,1.523-3.635a.51.51,0,0,0-.05-.379c-.421-.867-.858-1.725-1.3-2.592-.05-.1-.118-.2-.21-.353a15.929,15.929,0,0,1-.926,1.818,2.3,2.3,0,0,0-.084,2.693A22.523,22.523,0,0,1,895.949,463.666Zm3.854-12.454a10.256,10.256,0,0,1-.6,1.919,9.9,9.9,0,0,1-1.262,1.565c.278.555.606,1.212.976,1.944.74-1.75,1.456-3.433,2.18-5.158C900.636,451.38,900.215,451.3,899.8,451.212Zm-5.8,3.332a3.829,3.829,0,0,1-1.834-3.332c-.463.1-.867.185-1.3.278.707,1.691,1.388,3.341,2.121,5.083C893.357,455.831,893.677,455.209,894.005,454.544Zm.867-3.593c-.025,1.06.278,1.405,1.161,1.38.673-.025.976-.269.951-1.38Z" transform="translate(-846.175 -393.149)" fill="#a5bbd4"/>
      <path id="Path_729" data-name="Path 729" d="M526.81,148.621h23.856a4.252,4.252,0,0,1,.463.008,1.335,1.335,0,0,1-.008,2.659,3.474,3.474,0,0,1-.421.008H525.648a1.376,1.376,0,0,1-1.548-1.557V86.948a1.366,1.366,0,0,1,1.548-1.548H568.3a1.361,1.361,0,0,1,1.515,1.506v23.873a1.345,1.345,0,1,1-2.676.05V88.11H526.81Z" transform="translate(-524.1 -85.4)" fill="#a5bbd4"/>
      <path id="Path_730" data-name="Path 730" d="M604.1,635.573v-5.125a1.373,1.373,0,0,1,1.548-1.548h10.3a1.383,1.383,0,0,1,1.59,1.59v10.258a1.383,1.383,0,0,1-1.59,1.59h-10.3a1.373,1.373,0,0,1-1.548-1.548Zm10.729,4.073v-8.036H606.8v8.036Z" transform="translate(-597.368 -583.165)" fill="#a5bbd4"/>
      <path id="Path_731" data-name="Path 731" d="M606.752,184.027v8.053h8.07v-1.195a1.343,1.343,0,1,1,2.676,0c0,.825.008,1.649,0,2.482a1.334,1.334,0,0,1-1.422,1.422c-3.526.008-7.06,0-10.586,0a1.338,1.338,0,0,1-1.431-1.414c-.008-3.526,0-7.06,0-10.586a1.337,1.337,0,0,1,1.456-1.431c1.262-.008,2.524,0,3.778,0a1.343,1.343,0,1,1,.017,2.676C608.477,184.035,607.636,184.027,606.752,184.027Z" transform="translate(-597.327 -173.281)" fill="#a5bbd4"/>
      <path id="Path_732" data-name="Path 732" d="M606.633,407.8v8.053h8.061v-1.195a1.343,1.343,0,1,1,2.676,0c.008.825.008,1.649,0,2.482a1.334,1.334,0,0,1-1.422,1.422q-5.289.013-10.586,0a1.334,1.334,0,0,1-1.431-1.414q-.013-5.289,0-10.586a1.337,1.337,0,0,1,1.456-1.431c1.271-.008,2.55-.008,3.82,0a1.342,1.342,0,1,1-.025,2.676C608.358,407.807,607.516,407.8,606.633,407.8Z" transform="translate(-597.208 -378.22)" fill="#a5bbd4"/>
      <path id="Path_733" data-name="Path 733" d="M803.876,215.935c-2.2,0-4.4.008-6.6,0a1.339,1.339,0,0,1-1.33-1.826,1.377,1.377,0,0,1,1.372-.85h7.06c2.062,0,4.115-.008,6.177,0a1.339,1.339,0,0,1,1.33,1.826,1.377,1.377,0,0,1-1.372.85Z" transform="translate(-772.985 -202.497)" fill="#a5bbd4"/>
      <path id="Path_734" data-name="Path 734" d="M803.882,279.816h-6.639a1.319,1.319,0,0,1-1.321-.917,1.251,1.251,0,0,1,.446-1.456,1.968,1.968,0,0,1,.934-.294q6.6-.025,13.195-.008a1.345,1.345,0,1,1-.025,2.676C808.283,279.824,806.087,279.816,803.882,279.816Z" transform="translate(-772.982 -261)" fill="#a5bbd4"/>
      <path id="Path_735" data-name="Path 735" d="M802.439,660.708c1.767,0,3.526-.008,5.293,0a1.338,1.338,0,0,1,1.313,1.834,1.358,1.358,0,0,1-1.38.833h-8.911c-.547,0-1.094.008-1.641,0a1.34,1.34,0,1,1,.017-2.676Q799.805,660.713,802.439,660.708Z" transform="translate(-772.844 -612.289)" fill="#a5bbd4"/>
      <path id="Path_736" data-name="Path 736" d="M655.943,201.952c.951-1.271,1.86-2.474,2.768-3.686.109-.143.21-.294.328-.438a1.336,1.336,0,1,1,2.146,1.59c-.446.623-.917,1.229-1.38,1.851-.841,1.119-1.674,2.238-2.516,3.358a1.349,1.349,0,0,1-2.247.168c-.833-.825-1.666-1.658-2.491-2.491a1.337,1.337,0,1,1,1.877-1.893C654.925,200.9,655.413,201.405,655.943,201.952Z" transform="translate(-641.31 -187.84)" fill="#a5bbd4"/>
      <path id="Path_737" data-name="Path 737" d="M655.923,425.742c.774-1.035,1.515-2.02,2.255-3,.278-.37.547-.741.833-1.111a1.338,1.338,0,1,1,2.129,1.616c-1.313,1.759-2.625,3.517-3.955,5.268a1.316,1.316,0,0,1-2.1.143q-1.3-1.288-2.583-2.583a1.335,1.335,0,1,1,1.9-1.868C654.9,424.7,655.393,425.212,655.923,425.742Z" transform="translate(-641.281 -392.806)" fill="#a5bbd4"/>
      <path id="Path_738" data-name="Path 738" d="M801.177,437.031h3.862a1.347,1.347,0,1,1,0,2.676h-7.733a1.347,1.347,0,1,1,0-2.676C798.6,437.023,799.89,437.023,801.177,437.031Z" transform="translate(-772.937 -407.436)" fill="#a5bbd4"/>
      <path id="Path_739" data-name="Path 739" d="M800.646,501h3.189a1.343,1.343,0,1,1,0,2.676h-6.471a1.343,1.343,0,1,1,0-2.676Z" transform="translate(-773.028 -466.028)" fill="#a5bbd4"/>
      <path id="Path_740" data-name="Path 740" d="M800.7,727.476h-3.231a1.343,1.343,0,1,1,0-2.676h6.471a1.343,1.343,0,1,1,0,2.676Z" transform="translate(-773.12 -670.995)" fill="#a5bbd4"/>
      <path id="Path_741" data-name="Path 741" d="M1093.619,477a2.013,2.013,0,0,1,2,2,2.011,2.011,0,1,1-2-2Z" transform="translate(-1043.845 -444.047)" fill="#a5bbd4"/>
    </g>
  </g>
</svg>
